<?xml version="1.0" encoding="UTF-8"?>
<svg id="Layer_1" data-name="Layer 1" xmlns="http://www.w3.org/2000/svg" xmlns:xlink="http://www.w3.org/1999/xlink" viewBox="0 0 2700 1000">
  <defs>
    <style>
      .cls-1 {
        fill: url(#linear-gradient-2);
      }

      .cls-2 {
        fill: url(#linear-gradient-6);
      }

      .cls-3 {
        fill: #aff2d8;
      }

      .cls-4 {
        fill: url(#linear-gradient-5);
      }

      .cls-5 {
        fill: none;
      }

      .cls-6 {
        fill: url(#linear-gradient-7);
      }

      .cls-7 {
        fill: url(#linear-gradient-3);
      }

      .cls-8 {
        fill: url(#linear-gradient);
      }

      .cls-9 {
        fill: url(#linear-gradient-4);
      }

      .cls-10 {
        fill: url(#linear-gradient-8);
      }

      .cls-11 {
        fill: #9ad2f9;
      }
    </style>
    <linearGradient id="linear-gradient" x1="641.07" y1="669.17" x2="240.08" y2="437.66" gradientUnits="userSpaceOnUse">
      <stop offset="0" stop-color="#9491e2"/>
      <stop offset="1" stop-color="#aff2d8"/>
    </linearGradient>
    <linearGradient id="linear-gradient-2" x1="639.16" y1="549.74" x2="256.57" y2="328.85" xlink:href="#linear-gradient"/>
    <linearGradient id="linear-gradient-3" x1="745.99" y1="671.15" x2="363.4" y2="450.26" xlink:href="#linear-gradient"/>
    <linearGradient id="linear-gradient-4" x1="599.76" y1="476.05" x2="308.91" y2="308.13" xlink:href="#linear-gradient"/>
    <linearGradient id="linear-gradient-5" x1="762.48" y1="562.34" x2="361.49" y2="330.83" xlink:href="#linear-gradient"/>
    <linearGradient id="linear-gradient-6" x1="693.65" y1="691.87" x2="402.8" y2="523.95" xlink:href="#linear-gradient"/>
    <linearGradient id="linear-gradient-7" x1="592.61" y1="661.98" x2="194.13" y2="431.91" xlink:href="#linear-gradient"/>
    <linearGradient id="linear-gradient-8" x1="808.43" y1="568.09" x2="409.95" y2="338.02" gradientUnits="userSpaceOnUse">
      <stop offset="0" stop-color="#9491e2"/>
      <stop offset="1" stop-color="#aff2d8"/>
    </linearGradient>
  </defs>
  <g>
    <path class="cls-8" d="m608.97,395.58c29.42,30.02,48.76,66.25,57.97,104.42,12.04,49.87,6.84,103.04-15.61,150.05-10.73,22.45-25.39,43.49-43.98,62.08-30.35,30.35-67.19,50.21-106.07,59.59-72.24,17.45-151.43-1.3-208.71-56.24-.45-.43-.91-.87-1.35-1.31-.7-.68-1.39-1.36-2.07-2.05s-1.37-1.37-2.05-2.07c-.44-.44-.88-.9-1.31-1.35-.84-.86-1.67-1.73-2.5-2.6-.1-.1-.19-.2-.29-.3-.79-.85-1.59-1.7-2.38-2.56-.02-.03-.05-.06-.08-.09-.68-.74-1.36-1.48-2.04-2.23-.06-.07-.12-.13-.18-.2-.17-.18-.33-.35-.49-.53-.1-.11-.2-.22-.3-.34-.32-.37-.65-.73-.98-1.1-.14-.16-.29-.32-.43-.48-.47-.53-.94-1.07-1.4-1.61-.01,0-.02-.01-.02-.02-.28-.32-.56-.65-.84-.98-.35-.41-.71-.82-1.06-1.23-.02-.02-.04-.04-.05-.06-.43-.49-.85-.99-1.26-1.49-.41-.48-.81-.96-1.21-1.44-.16-.19-.31-.37-.46-.56-.65-.79-1.3-1.58-1.94-2.37-14.79-18.29-27.47-38.35-37.69-59.82-.04-.05-.06-.1-.08-.16-.5-1.05-.99-2.11-1.48-3.16-.02-.03-.04-.06-.04-.09-.49-1.05-.96-2.11-1.43-3.17-.43-.96-.85-1.93-1.27-2.89-.06-.13-.11-.26-.17-.39-.11-.23-.21-.47-.31-.71-.16-.37-.31-.73-.46-1.09-.05-.1-.09-.2-.13-.29-.37-.88-.74-1.75-1.1-2.63-.45-1.1-.89-2.2-1.33-3.3,0,0,0-.01-.01-.02s0-.02-.01-.04c-.44-1.1-.86-2.2-1.28-3.29-10.24-26.72-16.51-54.62-18.82-82.78-.08-1.09-.17-2.18-.25-3.26-.01-.15-.02-.29-.03-.44-.05-.75-.1-1.51-.14-2.26-.05-.68-.09-1.36-.12-2.03-.03-.44-.05-.88-.07-1.32-.04-.71-.07-1.42-.1-2.12-.03-.57-.05-1.15-.07-1.72-.03-.84-.06-1.68-.08-2.52-.01-.23-.02-.47-.02-.71-.04-1.16-.06-2.33-.08-3.5,1.66,79.36,44.39,148.61,107.81,187.35,34.12,20.85,74.23,32.86,117.14,32.86,26.3,0,51.54-4.51,75-12.8,49.11-17.36,90.4-51.28,117.14-95.06,20.54-33.61,32.5-73.02,32.85-115.2.02-1.84.01-3.67-.03-5.51-.01-.58-.03-1.16-.05-1.75-.02-.59-.04-1.18-.07-1.77-.02-.58-.05-1.16-.09-1.75v-.02c-.04-.59-.07-1.18-.11-1.76-.12-1.78-.28-3.54-.47-5.3-.05-.59-.12-1.18-.2-1.76-1.4-12.01-4.24-23.59-8.32-34.57-.21-.56-.42-1.12-.64-1.67-.21-.56-.43-1.12-.65-1.67-.13-.32-.25-.64-.39-.97-.13-.34-.27-.67-.41-1.01-.23-.55-.46-1.1-.7-1.66-.3-.7-.61-1.4-.92-2.09-.17-.4-.35-.79-.54-1.19-5.11-11.16-11.66-21.82-19.67-31.71-.37-.46-.74-.92-1.12-1.37-.35-.44-.72-.87-1.09-1.3l-.11-.13c-.36-.43-.73-.85-1.1-1.28-.36-.42-.73-.84-1.1-1.26-.46-.51-.91-1.02-1.37-1.52-.36-.4-.72-.78-1.08-1.17-.68-.73-1.37-1.45-2.06-2.17Z"/>
    <path class="cls-1" d="m496.49,200.05c-79.36,1.66-148.61,44.39-187.35,107.81-20.85,34.12-32.86,74.23-32.86,117.14,0,26.3,4.51,51.54,12.8,75,17.36,49.11,51.28,90.4,95.06,117.14,33.61,20.54,73.02,32.5,115.2,32.85,1.84.02,3.67.01,5.51-.03.58-.01,1.16-.03,1.75-.05.59-.02,1.18-.04,1.77-.07.56-.02,1.12-.05,1.68-.08.04,0,.07,0,.11,0,.58-.04,1.16-.07,1.75-.11,1.76-.12,3.52-.28,5.26-.46.03,0,.07-.01.1-.01.58-.05,1.14-.12,1.71-.19,10.79-1.26,21.23-3.67,31.19-7.11.57-.19,1.13-.39,1.69-.59.56-.2,1.13-.4,1.69-.61s1.12-.42,1.67-.64c.56-.21,1.12-.43,1.67-.65.26-.1.51-.2.76-.31.41-.16.81-.33,1.21-.5.55-.23,1.1-.46,1.66-.7.55-.23,1.1-.47,1.64-.72.55-.24,1.09-.49,1.64-.74,11.16-5.11,21.82-11.66,31.71-19.67.46-.37.92-.74,1.37-1.12.44-.35.87-.72,1.3-1.09l.13-.11c.43-.36.85-.73,1.28-1.1.42-.36.84-.73,1.26-1.1.51-.46,1.02-.91,1.52-1.37.4-.36.78-.72,1.17-1.08.73-.68,1.45-1.37,2.17-2.06-30.02,29.42-66.25,48.76-104.42,57.97-49.87,12.04-103.04,6.84-150.05-15.61-22.45-10.73-43.49-25.39-62.08-43.98-30.35-30.35-50.21-67.19-59.59-106.07-17.45-72.23,1.3-151.43,56.24-208.71.43-.45.87-.91,1.31-1.35.68-.7,1.36-1.39,2.05-2.07s1.37-1.37,2.07-2.05c.44-.44.9-.88,1.35-1.31.86-.84,1.73-1.67,2.6-2.5.1-.1.2-.19.3-.29.01,0,.03-.02.04-.03.7-.67,1.4-1.32,2.11-1.97.13-.13.27-.25.41-.38.01-.02.03-.03.04-.04.11-.1.22-.2.34-.31.06-.05.11-.1.17-.16.56-.51,1.11-1.02,1.67-1.52.1-.09.2-.18.3-.27.18-.17.35-.33.53-.49.11-.1.22-.2.34-.3.37-.32.73-.65,1.1-.98.16-.14.32-.29.48-.43.53-.47,1.07-.94,1.61-1.4,0-.01.01-.02.02-.02.03-.02.06-.05.1-.08.29-.26.59-.52.88-.76.41-.35.82-.71,1.23-1.06.09-.08.19-.16.28-.23,0-.01.01-.02.02-.02.29-.25.59-.5.88-.74.13-.11.25-.22.37-.31.48-.41.96-.81,1.44-1.21.19-.16.37-.31.56-.46.79-.65,1.57-1.3,2.37-1.94,18.29-14.79,38.35-27.47,59.82-37.69.05-.04.1-.06.16-.08,1.05-.49,2.11-.98,3.16-1.48.03-.02.06-.04.09-.04,1.06-.49,2.11-.96,3.17-1.43.96-.43,1.93-.85,2.89-1.27.13-.06.25-.11.38-.17.08-.04.16-.07.23-.1.07-.04.15-.07.23-.1.7-.31,1.4-.61,2.1-.89.43-.19.86-.37,1.3-.55.03-.01.06-.03.1-.04.55-.23,1.1-.46,1.64-.68.04-.02.08-.04.12-.05.51-.21,1.02-.42,1.54-.62.09-.04.18-.08.27-.11.17-.08.35-.15.53-.22.22-.09.44-.17.66-.26.89-.35,1.78-.7,2.67-1.04,1.12-.43,2.23-.85,3.35-1.26s2.23-.82,3.35-1.22h0c23.55-8.38,47.93-13.72,72.55-16.03,1.01-.1,2.02-.19,3.02-.27.22-.02.44-.04.65-.05,1.03-.08,2.07-.16,3.1-.23.15-.01.29-.02.44-.03.75-.05,1.51-.1,2.26-.14.68-.05,1.36-.09,2.03-.12.44-.03.88-.05,1.32-.07.71-.04,1.42-.07,2.12-.1.57-.03,1.15-.05,1.72-.07.84-.03,1.68-.06,2.52-.08.23-.01.47-.02.71-.02,1.16-.04,2.33-.06,3.5-.08Z"/>
    <path class="cls-7" d="m396.86,392.31c30.02-29.42,66.25-48.76,104.42-57.97,49.87-12.04,103.04-6.84,150.05,15.61,22.45,10.73,43.49,25.39,62.08,43.98,30.35,30.35,50.21,67.19,59.59,106.07,17.45,72.24-1.3,151.43-56.24,208.71-.43.45-.87.91-1.31,1.35-.68.7-1.36,1.39-2.05,2.07-.68.68-1.37,1.37-2.07,2.05-.44.44-.9.88-1.35,1.31-.86.84-1.73,1.67-2.6,2.5-.11.11-.23.22-.34.32-.7.67-1.4,1.32-2.11,1.97-.14.13-.28.25-.41.38-.01.02-.03.03-.04.04-.17.16-.34.32-.51.47-.56.51-1.12,1.02-1.67,1.52-.03.03-.06.06-.1.09-.36.32-.71.65-1.07.97-.37.32-.73.65-1.1.98-.69.62-1.39,1.23-2.09,1.83-.04.04-.08.07-.11.1-.72.63-1.45,1.25-2.17,1.87-.08.07-.16.14-.23.2-.29.25-.59.5-.88.74-.13.11-.25.22-.37.31-.48.41-.96.8-1.44,1.21-.19.16-.37.32-.56.46-.79.65-1.58,1.3-2.37,1.94-18.29,14.79-38.36,27.48-59.83,37.69-.05.03-.1.05-.14.07-1.06.5-2.11,1-3.17,1.48-1.08.5-2.17.99-3.25,1.48-.97.43-1.93.85-2.89,1.27-.13.06-.25.11-.38.17-.15.07-.31.13-.46.19-.7.31-1.4.6-2.11.89-.43.19-.86.37-1.3.55-.03.02-.06.03-.1.04-.55.23-1.09.46-1.64.68-.04.02-.08.04-.12.05-.51.21-1.02.42-1.54.62-.09.04-.18.08-.27.11-.17.08-.35.15-.53.22-.22.09-.44.17-.66.26-.89.35-1.78.7-2.67,1.04-1.12.43-2.23.85-3.35,1.26-1.12.41-2.24.82-3.35,1.22h0c-23.55,8.38-47.93,13.72-72.55,16.03-1.01.1-2.02.19-3.02.27-.22.02-.44.04-.65.05-1.03.08-2.07.16-3.1.23-.15.01-.29.02-.44.03-.75.05-1.51.1-2.26.14-.68.05-1.36.09-2.03.12-.44.03-.88.05-1.32.07-.71.04-1.42.07-2.12.1-.57.03-1.15.05-1.72.07-.84.03-1.68.06-2.52.08-.14,0-.28.01-.43.01-.09,0-.19.01-.28,0-1.16.04-2.33.06-3.5.08,79.35-1.66,148.61-44.39,187.35-107.81,20.85-34.12,32.86-74.23,32.86-117.14,0-26.3-4.51-51.54-12.8-75-17.36-49.11-51.28-90.4-95.06-117.14-33.61-20.54-73.02-32.5-115.2-32.85-1.84-.02-3.67-.01-5.51.03-.58.01-1.16.03-1.75.05-.59.02-1.18.04-1.77.07-.56.02-1.12.05-1.68.08-.04,0-.07,0-.11,0-.58.04-1.16.07-1.75.11-1.76.12-3.52.28-5.26.46-.03,0-.07.01-.1.01-.58.05-1.14.12-1.71.19-10.79,1.26-21.23,3.67-31.19,7.11-.57.19-1.13.39-1.69.59-.56.2-1.13.4-1.69.61s-1.12.42-1.67.64c-.56.21-1.12.43-1.67.65-.26.1-.51.2-.76.31-.41.16-.81.33-1.21.5-.55.23-1.1.46-1.66.7-.55.23-1.1.47-1.64.72-.55.24-1.09.49-1.64.74-11.16,5.11-21.82,11.66-31.71,19.67-.46.37-.92.74-1.37,1.12-.44.35-.87.72-1.3,1.09l-.13.11c-.43.36-.85.73-1.28,1.1-.42.36-.84.73-1.26,1.1-.51.46-1.02.91-1.52,1.37-.4.36-.78.72-1.17,1.08-.73.68-1.45,1.37-2.17,2.06Z"/>
    <path class="cls-9" d="m629.97,228.93c21.47,10.21,41.53,22.9,59.83,37.69.79.64,1.58,1.29,2.37,1.94.19.15.37.3.56.46.48.4.96.8,1.44,1.21.13.1.25.2.37.31.29.24.59.49.88.74.08.06.16.13.23.2.73.62,1.45,1.24,2.17,1.87.04.03.08.07.11.1.7.6,1.4,1.21,2.09,1.83.37.32.74.65,1.1.98.36.32.71.64,1.07.97.04.03.07.06.1.09.56.5,1.12,1.01,1.67,1.52.17.16.34.31.51.47.01,0,.03.02.04.04.14.13.28.25.41.38.7.65,1.4,1.31,2.11,1.97.11.1.23.21.34.32.87.83,1.74,1.66,2.6,2.5-57.28-54.94-136.48-73.69-208.71-56.24-38.87,9.38-75.72,29.24-106.07,59.59-18.59,18.59-33.25,39.63-43.98,62.08-22.45,47-27.65,100.18-15.61,150.05,9.21,38.17,28.54,74.39,57.97,104.42.09.09.17.18.26.27.45.47.91.92,1.36,1.38.46.46.91.91,1.38,1.36.81.79,1.62,1.57,2.44,2.33.39.36.77.72,1.17,1.08.5.46,1.01.92,1.52,1.37.42.37.84.74,1.26,1.1.43.38.85.74,1.28,1.1l.13.11c.43.37.86.73,1.3,1.09.45.38.91.76,1.37,1.12,9.89,8,20.55,14.56,31.71,19.67.55.25,1.09.5,1.64.74.55.25,1.1.49,1.64.72.55.24,1.1.47,1.66.7.4.17.8.34,1.21.5.25.1.5.2.76.31.56.22,1.12.44,1.67.65.56.22,1.12.43,1.67.64s1.12.41,1.69.61c.56.2,1.12.4,1.69.59,9.96,3.44,20.4,5.85,31.19,7.11.57.07,1.13.14,1.71.19.03,0,.07,0,.1.01,1.74.19,3.49.34,5.26.46.58.04,1.16.08,1.75.11.04,0,.07,0,.11,0,.56.03,1.12.06,1.68.08.59.03,1.18.05,1.77.07.58.02,1.16.04,1.75.05.54.01,1.09.02,1.63.03-42.18-.35-81.59-12.31-115.2-32.85-43.78-26.74-77.7-68.03-95.06-117.14-8.29-23.46-12.8-48.7-12.8-75,0-42.91,12.01-83.02,32.86-117.14,38.74-63.42,107.99-106.16,187.35-107.81.53-.01,1.07-.02,1.61-.02.08,0,.17,0,.26,0,1.94-.02,3.88-.02,5.82,0,.09,0,.18,0,.26,0,.54,0,1.08.01,1.61.02,1.17.02,2.34.04,3.5.08.24,0,.47,0,.71.02.84.02,1.68.05,2.52.08.58.02,1.15.04,1.72.07.71.03,1.42.06,2.12.1.44.02.88.04,1.32.07.68.03,1.36.07,2.03.12.75.04,1.51.09,2.26.14.15,0,.29.02.44.03,1.03.07,2.07.15,3.1.23.22.02.44.04.65.05,1.01.08,2.02.17,3.02.27,24.62,2.31,49,7.65,72.55,16.03h0c1.12.4,2.24.8,3.35,1.22s2.23.83,3.35,1.26c.89.34,1.78.68,2.67,1.04.22.08.44.17.66.26.18.07.35.14.53.22.09.03.18.07.27.11.52.2,1.03.41,1.54.62.04.01.08.03.12.05.55.22,1.1.44,1.64.68.04,0,.07.02.1.04.44.18.87.36,1.3.55.7.29,1.4.59,2.11.89.16.06.31.13.46.19.13.05.26.11.38.17.97.42,1.93.85,2.89,1.27,1.09.49,2.17.98,3.25,1.48,1.06.49,2.12.98,3.17,1.48.05.01.1.04.14.07Z"/>
    <path class="cls-4" d="m351.29,498.06c-.02,1.84-.01,3.67.03,5.51.01.58.03,1.16.05,1.75.02.59.04,1.18.07,1.77.02.58.05,1.16.09,1.75v.02c.04.59.07,1.18.11,1.76.12,1.78.28,3.54.47,5.3.05.59.12,1.18.2,1.76,1.4,12.01,4.24,23.59,8.32,34.57.21.56.42,1.12.64,1.67.21.56.43,1.12.65,1.67.13.32.25.64.39.97.13.34.27.67.41,1.01.23.55.46,1.1.7,1.66.3.7.61,1.4.92,2.09.17.4.35.79.54,1.19,5.11,11.16,11.66,21.82,19.67,31.71.37.46.74.92,1.12,1.37.35.44.72.87,1.09,1.3l.11.13c.36.43.73.85,1.1,1.28.36.42.73.84,1.1,1.26.46.51.91,1.02,1.37,1.52.36.4.72.78,1.08,1.17.68.73,1.37,1.45,2.06,2.17-29.42-30.02-48.76-66.25-57.97-104.42-12.04-49.87-6.84-103.04,15.61-150.05,10.73-22.45,25.39-43.49,43.98-62.08,30.35-30.35,67.19-50.21,106.07-59.59,72.23-17.45,151.43,1.3,208.71,56.24.45.43.91.87,1.35,1.31.7.68,1.39,1.36,2.07,2.05.68.68,1.37,1.37,2.05,2.07.44.44.88.9,1.31,1.35.84.86,1.67,1.73,2.5,2.6.1.1.19.2.29.3.79.85,1.59,1.7,2.38,2.56.02.02.05.05.08.09.68.74,1.36,1.48,2.04,2.23.32.36.65.71.97,1.07.32.37.65.73.98,1.1.62.69,1.23,1.39,1.83,2.09.04.04.07.07.1.11.63.72,1.25,1.45,1.87,2.17.43.49.85.99,1.26,1.49.41.48.81.96,1.21,1.44.16.19.31.37.46.56.65.79,1.3,1.58,1.94,2.37,14.79,18.29,27.48,38.36,37.69,59.83.03.05.05.1.07.14.5,1.06,1,2.11,1.48,3.17.5,1.08.99,2.17,1.48,3.25.47,1.06.94,2.12,1.4,3.19.04.08.08.17.11.26.28.64.56,1.28.83,1.93.37.88.74,1.75,1.1,2.63.45,1.1.89,2.2,1.33,3.3,0,.02.02.04.02.06.44,1.1.86,2.2,1.28,3.29,10.24,26.72,16.51,54.62,18.82,82.78.08,1.09.17,2.18.25,3.26.01.15.02.29.03.44.05.75.1,1.51.14,2.26.05.68.09,1.36.12,2.03.03.44.05.88.07,1.32.04.71.07,1.42.1,2.12.03.57.05,1.15.07,1.72.03.84.06,1.68.08,2.52.01.23.02.47.02.71.04,1.16.06,2.33.08,3.5-1.66-79.35-44.39-148.61-107.81-187.35-34.12-20.85-74.23-32.86-117.14-32.86-26.3,0-51.54,4.51-75,12.8-49.11,17.36-90.4,51.28-117.14,95.06-20.54,33.61-32.5,73.02-32.85,115.2Z"/>
    <path class="cls-2" d="m292.57,715.48c57.28,54.94,136.47,73.69,208.71,56.24,38.87-9.38,75.72-29.24,106.07-59.59,18.59-18.59,33.25-39.63,43.98-62.08,22.45-47,27.65-100.18,15.61-150.05-9.21-38.17-28.54-74.39-57.97-104.42-.09-.09-.17-.18-.26-.27-.45-.47-.91-.92-1.36-1.38-.46-.46-.91-.91-1.38-1.36-.81-.79-1.62-1.57-2.44-2.33-.39-.36-.77-.72-1.17-1.08-.5-.46-1.01-.92-1.52-1.37-.42-.37-.84-.74-1.26-1.1-.43-.38-.85-.74-1.28-1.1l-.13-.11c-.43-.37-.86-.73-1.3-1.09-.45-.38-.91-.76-1.37-1.12-9.89-8-20.55-14.56-31.71-19.67-.55-.25-1.09-.5-1.64-.74-.55-.25-1.1-.49-1.64-.72-.55-.24-1.1-.47-1.66-.7-.4-.17-.8-.34-1.21-.5-.25-.1-.5-.2-.76-.31-.56-.22-1.12-.44-1.67-.65-.56-.22-1.12-.43-1.67-.64s-1.12-.41-1.69-.61c-.56-.2-1.12-.4-1.69-.59-9.96-3.44-20.4-5.85-31.19-7.11-.57-.07-1.13-.14-1.71-.19-.03,0-.07,0-.1-.01-1.74-.19-3.49-.34-5.26-.46-.58-.04-1.16-.08-1.75-.11-.04,0-.07,0-.11,0-.56-.03-1.12-.06-1.68-.08-.59-.03-1.18-.05-1.77-.07-.58-.02-1.16-.04-1.75-.05-.54-.01-1.09-.02-1.63-.03,42.18.35,81.59,12.31,115.2,32.85,43.78,26.74,77.7,68.03,95.06,117.14,8.29,23.46,12.8,48.7,12.8,75,0,42.91-12.01,83.02-32.86,117.14-38.74,63.42-108,106.16-187.35,107.81-.53.01-1.07.02-1.61.02-.08,0-.17,0-.26,0-1.94.02-3.88.02-5.82,0-.09,0-.18,0-.26,0-.54,0-1.08-.01-1.61-.02-1.17-.02-2.34-.04-3.5-.08-.24,0-.47,0-.71-.02-.84-.02-1.68-.05-2.52-.08-.58-.02-1.15-.04-1.72-.07-.71-.03-1.42-.06-2.12-.1-.44-.02-.88-.04-1.32-.07-.68-.03-1.36-.07-2.03-.12-.75-.04-1.51-.09-2.26-.14-.15,0-.29-.02-.44-.03-1.03-.07-2.07-.15-3.1-.23-.22-.02-.44-.04-.65-.05-1.01-.08-2.02-.17-3.02-.27-24.62-2.31-49-7.66-72.55-16.03h0c-1.12-.4-2.24-.8-3.35-1.22-1.12-.41-2.23-.83-3.35-1.26-.89-.34-1.78-.68-2.67-1.04-.22-.08-.44-.17-.66-.26-.17-.07-.35-.14-.53-.22-.09-.03-.18-.07-.27-.11-.52-.2-1.03-.41-1.54-.62-.04-.01-.08-.03-.12-.05-.55-.22-1.1-.44-1.64-.68-.04,0-.07-.02-.1-.04-.44-.18-.87-.36-1.3-.55-.7-.29-1.4-.59-2.1-.89-.08-.03-.15-.06-.23-.1-.08-.03-.16-.06-.23-.1-.13-.05-.26-.11-.38-.17-.97-.42-1.93-.85-2.89-1.27-1.06-.47-2.11-.95-3.17-1.43-.03,0-.06-.02-.09-.04-1.06-.49-2.11-.98-3.16-1.48-.05-.02-.1-.04-.16-.08-21.47-10.21-41.53-22.9-59.82-37.69-.8-.64-1.58-1.29-2.37-1.94-.19-.14-.37-.3-.56-.46-.48-.4-.96-.8-1.44-1.21-.13-.1-.25-.2-.37-.31-.29-.24-.59-.49-.88-.74,0,0-.01,0-.02-.02-.09-.08-.19-.16-.28-.23-.41-.35-.82-.7-1.23-1.06-.29-.25-.59-.5-.88-.76-.03-.02-.07-.05-.1-.08,0,0-.01-.01-.02-.02-.54-.46-1.07-.93-1.61-1.4-.16-.14-.32-.28-.48-.43-.37-.32-.74-.65-1.1-.98-.11-.1-.23-.2-.34-.3-.1-.09-.2-.18-.31-.28-.08-.06-.16-.13-.23-.2-.1-.09-.2-.18-.3-.27-.56-.5-1.12-1.01-1.67-1.52-.06-.05-.11-.1-.17-.16-.11-.1-.23-.2-.34-.31-.01,0-.03-.02-.04-.04-.14-.13-.28-.25-.41-.38-.7-.65-1.4-1.31-2.11-1.97-.01-.01-.03-.02-.04-.03-.1-.1-.2-.19-.3-.29-.87-.83-1.74-1.66-2.6-2.5Z"/>
    <path class="cls-6" d="m651.27,501.94c-.35,42.18-12.31,81.59-32.85,115.2-26.74,43.78-68.03,77.7-117.14,95.06-23.46,8.29-48.7,12.8-75,12.8-42.91,0-83.02-12.01-117.14-32.86-63.42-38.74-106.16-107.99-107.81-187.35-.01-.53-.02-1.07-.02-1.61,0-.08,0-.17,0-.26-.02-1.94-.02-3.88,0-5.82,0-.09,0-.18,0-.26,0-.54.01-1.08.02-1.61.02-1.17.04-2.34.08-3.5,0-.24,0-.47.02-.71.02-.84.05-1.68.08-2.52.02-.58.04-1.15.07-1.72.03-.71.06-1.42.1-2.12.02-.44.04-.88.07-1.32.03-.68.07-1.36.12-2.03.04-.75.09-1.51.14-2.26,0-.15.02-.29.03-.44.08-1.09.16-2.18.25-3.26,2.32-28.16,8.59-56.05,18.82-82.78.42-1.1.85-2.2,1.28-3.29,0-.02.01-.04.02-.06.44-1.1.88-2.2,1.33-3.3.36-.88.73-1.76,1.1-2.63.27-.65.55-1.29.83-1.93.03-.09.07-.17.11-.26.46-1.06.92-2.12,1.4-3.19.49-1.09.98-2.17,1.48-3.25.49-1.06.98-2.12,1.48-3.17.01-.05.04-.1.07-.14,10.21-21.47,22.9-41.53,37.69-59.83.64-.79,1.29-1.58,1.94-2.37.1-.12.19-.25.3-.37.05-.07.1-.13.16-.19.4-.48.8-.96,1.21-1.44.41-.5.83-1,1.26-1.49.62-.73,1.24-1.45,1.87-2.17.03-.04.07-.08.1-.11.6-.7,1.21-1.4,1.83-2.09.32-.37.65-.74.98-1.1.32-.36.64-.71.97-1.07.68-.75,1.36-1.49,2.04-2.23.03-.04.05-.07.08-.09.79-.86,1.59-1.71,2.38-2.56.1-.1.19-.2.29-.3.83-.87,1.66-1.74,2.5-2.6-54.94,57.28-73.69,136.48-56.24,208.71,9.38,38.87,29.24,75.72,59.59,106.07,18.59,18.59,39.63,33.25,62.08,43.98,47,22.45,100.18,27.65,150.05,15.61,38.17-9.21,74.39-28.54,104.42-57.97.09-.09.18-.17.27-.26.47-.45.92-.91,1.38-1.36.46-.46.91-.91,1.36-1.38.79-.81,1.57-1.62,2.33-2.44.36-.39.72-.77,1.08-1.17.46-.5.92-1.01,1.37-1.52.37-.42.74-.84,1.1-1.26.38-.43.74-.85,1.1-1.28l.11-.13c.37-.43.73-.86,1.09-1.3.38-.45.76-.91,1.12-1.37,8-9.89,14.56-20.55,19.67-31.71.19-.4.37-.79.54-1.19.31-.7.62-1.39.92-2.09.24-.55.47-1.1.7-1.66.14-.34.28-.67.41-1.01.14-.32.26-.64.39-.97.23-.56.44-1.12.65-1.67.22-.56.43-1.12.64-1.67,4.08-10.97,6.91-22.55,8.32-34.57.08-.59.14-1.18.2-1.76.19-1.76.35-3.52.47-5.3.04-.59.08-1.18.11-1.76v-.02c.04-.58.07-1.16.09-1.75.03-.59.05-1.18.07-1.77.02-.58.04-1.16.05-1.75.01-.54.02-1.09.03-1.63Z"/>
    <path class="cls-10" d="m351.29,498.06c.35-42.18,12.31-81.59,32.85-115.2,26.74-43.78,68.03-77.7,117.14-95.06,23.46-8.29,48.7-12.8,75-12.8,42.91,0,83.02,12.01,117.14,32.86,63.42,38.74,106.16,108,107.81,187.35.01.53.02,1.07.02,1.61,0,.08,0,.17,0,.26.02,1.94.02,3.88,0,5.82,0,.09,0,.18,0,.26,0,.54-.01,1.08-.02,1.61-.02,1.17-.04,2.34-.08,3.5,0,.24,0,.47-.02.71-.02.84-.05,1.68-.08,2.52-.02.58-.04,1.15-.07,1.72-.03.71-.06,1.42-.1,2.12-.02.44-.04.88-.07,1.32-.03.68-.07,1.36-.12,2.03-.04.75-.09,1.51-.14,2.26,0,.15-.02.29-.03.44-.08,1.09-.16,2.18-.25,3.26-2.32,28.16-8.59,56.05-18.82,82.78-.42,1.1-.85,2.2-1.28,3.29,0,.01,0,.02-.01.04s0,.02-.01.02c-.44,1.1-.88,2.2-1.33,3.3-.36.88-.73,1.76-1.1,2.63-.04.1-.08.2-.13.29-.15.37-.31.73-.46,1.09-.1.24-.2.47-.31.71-.05.13-.11.26-.17.39-.42.97-.84,1.93-1.27,2.89-.47,1.06-.95,2.12-1.43,3.17,0,.03-.02.06-.04.09-.49,1.06-.98,2.11-1.48,3.16-.02.05-.04.1-.08.16-10.21,21.47-22.9,41.53-37.69,59.82-.64.79-1.29,1.58-1.94,2.37-.15.19-.3.37-.46.56-.4.48-.8.96-1.21,1.44-.41.5-.83,1-1.26,1.49,0,.02-.02.04-.05.06-.35.41-.7.82-1.06,1.23-.28.33-.56.65-.84.98,0,0-.01.01-.02.02-.46.54-.93,1.07-1.4,1.61-.14.16-.28.32-.43.48-.32.37-.65.74-.98,1.1-.1.11-.2.23-.3.34-.16.18-.32.35-.49.53-.06.07-.12.14-.18.2-.68.75-1.36,1.49-2.04,2.23-.03.04-.05.07-.08.09-.79.86-1.59,1.71-2.38,2.56-.1.1-.19.2-.29.3-.83.87-1.66,1.74-2.5,2.6,54.94-57.28,73.69-136.47,56.24-208.71-9.38-38.87-29.24-75.72-59.59-106.07-18.59-18.59-39.63-33.25-62.08-43.98-47-22.45-100.18-27.65-150.05-15.61-38.17,9.21-74.39,28.54-104.42,57.97-.09.09-.18.17-.27.26-.47.45-.92.91-1.38,1.36-.46.46-.91.91-1.36,1.38-.79.81-1.57,1.62-2.33,2.44-.36.39-.72.77-1.08,1.17-.46.5-.92,1.01-1.37,1.52-.37.42-.74.84-1.1,1.26-.38.43-.74.85-1.1,1.28l-.11.13c-.37.43-.73.86-1.09,1.3-.38.45-.76.91-1.12,1.37-8,9.89-14.56,20.55-19.67,31.71-.19.4-.37.79-.54,1.19-.31.7-.62,1.39-.92,2.09-.24.55-.47,1.1-.7,1.66-.14.34-.28.67-.41,1.01-.14.32-.26.64-.39.97-.23.56-.44,1.12-.65,1.67-.22.56-.43,1.12-.64,1.67-4.08,10.97-6.91,22.55-8.32,34.57-.08.59-.14,1.18-.2,1.76-.19,1.76-.35,3.52-.47,5.3-.04.59-.08,1.18-.11,1.76v.02c-.04.58-.07,1.16-.09,1.75-.03.59-.05,1.18-.07,1.77-.02.58-.04,1.16-.05,1.75-.01.54-.02,1.09-.03,1.63Z"/>
    <path class="cls-5" d="m221.66,608.89c-.44-1.12-.86-2.23-1.28-3.35"/>
    <path class="cls-5" d="m222.98,612.23c-.19-.48-.38-.96-.57-1.44-.26-.63-.5-1.26-.75-1.89"/>
    <path class="cls-5" d="m225.75,618.84c-.11-.23-.2-.47-.31-.71"/>
    <path class="cls-5" d="m230.14,628.54c-.48-1.01-.95-2.02-1.42-3.04"/>
    <path class="cls-5" d="m276.14,698.27c-.36-.4-.71-.8-1.06-1.21-.13-.14-.25-.28-.37-.42"/>
    <path class="cls-5" d="m296.76,719.49c-.42-.4-.83-.79-1.25-1.19"/>
    <path class="cls-5" d="m298.07,720.69s-.03-.02-.04-.04"/>
    <path class="cls-5" d="m301.09,723.43c-.1-.09-.2-.18-.31-.28"/>
    <path class="cls-5" d="m304.62,726.54c-.54-.46-1.07-.93-1.61-1.4"/>
    <path class="cls-5" d="m306.84,728.46c-.41-.35-.82-.7-1.23-1.06"/>
    <path class="cls-5" d="m375.9,772.62c-1.06-.49-2.11-.98-3.16-1.48"/>
    <path class="cls-5" d="m720.77,704.52c-.4.43-.81.86-1.22,1.29"/>
    <path class="cls-5" d="m727.85,696.64c-.12.14-.24.28-.37.42-.35.4-.7.8-1.06,1.21"/>
    <path class="cls-5" d="m773.84,625.5c-.47,1.02-.94,2.03-1.42,3.04"/>
    <path class="cls-5" d="m777.12,618.13c-.1.24-.2.47-.31.71"/>
    <path class="cls-5" d="m780.9,608.9c-.25.63-.49,1.26-.75,1.89-.19.48-.38.96-.57,1.44"/>
    <path class="cls-5" d="m782.18,605.54c-.42,1.12-.85,2.24-1.28,3.35"/>
    <path class="cls-5" d="m372.74,228.86c1.05-.49,2.11-.98,3.16-1.48"/>
    <path class="cls-5" d="m305.61,272.59c.41-.35.82-.71,1.23-1.06"/>
    <path class="cls-5" d="m303.01,274.86c.53-.47,1.07-.94,1.61-1.4"/>
    <path class="cls-5" d="m300.56,277.05c.18-.17.35-.33.53-.49"/>
    <path class="cls-5" d="m298.03,279.35s.03-.03.04-.04"/>
    <path class="cls-5" d="m295.52,281.7c.41-.4.83-.79,1.25-1.19"/>
    <path class="cls-5" d="m651.27,501.94c-.35,42.18-12.31,81.59-32.85,115.2-26.74,43.78-68.03,77.7-117.14,95.06-23.46,8.29-48.7,12.8-75,12.8-42.91,0-83.02-12.01-117.14-32.86-63.42-38.74-106.16-107.99-107.81-187.35"/>
    <path class="cls-5" d="m801.23,495.21c-1.66-79.35-44.39-148.61-107.81-187.35-34.12-20.85-74.23-32.86-117.14-32.86-26.3,0-51.54,4.51-75,12.8-49.11,17.36-90.4,51.28-117.14,95.06-20.54,33.61-32.5,73.02-32.85,115.2"/>
    <path class="cls-5" d="m298.03,720.65c-.14-.13-.28-.25-.41-.38"/>
    <path class="cls-5" d="m305.61,727.41c-.29-.25-.59-.5-.88-.76"/>
    <path class="cls-5" d="m308.02,729.46c-.29-.24-.59-.49-.88-.74"/>
    <path class="cls-5" d="m382.43,775.53c-.13-.05-.26-.11-.38-.17"/>
    <path class="cls-5" d="m383.85,776.14c-.32-.14-.64-.28-.96-.42"/>
    <path class="cls-5" d="m386.3,777.16c-.44-.18-.87-.36-1.3-.55"/>
    <path class="cls-5" d="m390.48,778.87l-.52-.22"/>
    <path class="cls-5" d="m612.6,778.65l-.52.22"/>
    <path class="cls-5" d="m617.57,776.62c-.43.19-.86.37-1.3.55"/>
    <path class="cls-5" d="m620.51,775.36c-.13.06-.25.11-.38.17"/>
    <path class="cls-5" d="m695.42,728.71c-.29.25-.59.5-.88.74"/>
    <path class="cls-5" d="m696.06,728.17c-.13.11-.27.23-.4.34"/>
    <path class="cls-5" d="m703.98,278.85c.17.16.34.31.51.47"/>
    <path class="cls-5" d="m695.42,271.29c.21.17.42.35.64.54"/>
    <path class="cls-5" d="m612.08,221.13c.26.11.53.21.79.32"/>
    <path class="cls-5" d="m611.41,220.87c.22.08.44.17.66.26"/>
    <path class="cls-5" d="m390.49,221.13c.22-.09.44-.17.66-.26"/>
    <path class="cls-5" d="m389.69,221.46c.26-.11.53-.22.79-.32"/>
    <path class="cls-5" d="m382.67,224.37c.4-.17.79-.35,1.19-.52"/>
    <path class="cls-5" d="m306.84,271.54c.09-.08.19-.16.28-.23"/>
    <path class="cls-5" d="m298.07,279.31c.11-.11.23-.21.34-.31"/>
    <path class="cls-5" d="m605.7,607.69c-30.02,29.42-66.25,48.76-104.42,57.97-49.87,12.04-103.04,6.84-150.05-15.61-22.45-10.73-43.49-25.39-62.08-43.98-30.35-30.35-50.21-67.19-59.59-106.07-17.45-72.23,1.3-151.43,56.24-208.71"/>
    <path class="cls-5" d="m716.76,708.71c54.94-57.28,73.69-136.47,56.24-208.71-9.38-38.87-29.24-75.72-59.59-106.07-18.59-18.59-39.63-33.25-62.08-43.98-47-22.45-100.18-27.65-150.05-15.61-38.17,9.21-74.39,28.54-104.42,57.97"/>
    <path class="cls-5" d="m506.07,799.95c-.53.01-1.07.02-1.61.02"/>
    <path class="cls-5" d="m510.05,350.25c-.56-.03-1.12-.06-1.68-.08-.59-.03-1.18-.05-1.77-.07-.58-.02-1.16-.04-1.75-.05"/>
    <path class="cls-5" d="m517.16,350.83c-1.74-.19-3.49-.34-5.26-.46-.58-.04-1.16-.08-1.75-.11"/>
    <path class="cls-5" d="m553.53,359.35c-.56-.21-1.12-.41-1.69-.61-.56-.2-1.12-.4-1.69-.59-9.96-3.44-20.4-5.85-31.19-7.11-.57-.07-1.13-.14-1.71-.19"/>
    <path class="cls-5" d="m556.88,360.64c-.56-.22-1.12-.44-1.67-.65"/>
    <path class="cls-5" d="m560.51,362.14c-.55-.23-1.1-.47-1.66-.7-.4-.17-.8-.34-1.21-.5"/>
    <path class="cls-5" d="m598.17,385.48c-.43-.36-.86-.72-1.3-1.09-.46-.37-.91-.75-1.37-1.12-9.65-7.8-20.3-14.42-31.71-19.67l-1.64-.74"/>
    <path class="cls-5" d="m600.83,387.79l-1.26-1.1c-.43-.37-.85-.74-1.28-1.1"/>
    <path class="cls-5" d="m603.53,390.24l-1.17-1.08"/>
    <path class="cls-5" d="m612.12,398.92l-1.08-1.17"/>
    <path class="cls-5" d="m615.69,402.99c-.37-.43-.73-.85-1.1-1.28l-1.1-1.26"/>
    <path class="cls-5" d="m638.22,438.68l-.54-1.19c-5.24-11.41-11.87-22.06-19.67-31.71-.37-.46-.75-.92-1.12-1.37-.37-.44-.73-.87-1.09-1.3"/>
    <path class="cls-5" d="m641.29,446.08c-.21-.56-.43-1.12-.65-1.67-.13-.32-.25-.64-.39-.97-.13-.34-.27-.67-.41-1.01-.23-.56-.46-1.11-.7-1.66"/>
    <path class="cls-5" d="m651.02,491.14c-.04-.59-.07-1.18-.11-1.76-.12-1.78-.28-3.54-.47-5.3-.05-.59-.12-1.18-.2-1.76-1.4-12.01-4.24-23.59-8.32-34.57"/>
    <path class="cls-5" d="m651.24,496.43c-.01-.58-.03-1.16-.05-1.75-.02-.59-.04-1.18-.07-1.77-.02-.58-.05-1.16-.09-1.75"/>
    <path class="cls-5" d="m651.02,508.83c.04-.58.07-1.16.09-1.75.03-.59.05-1.18.07-1.77.02-.58.04-1.16.05-1.75"/>
    <path class="cls-5" d="m641.93,552.25c4.08-10.97,6.91-22.55,8.32-34.57.08-.59.14-1.18.2-1.76.19-1.76.35-3.52.47-5.3.04-.59.08-1.18.11-1.76"/>
    <path class="cls-5" d="m639.14,559.23c.23-.55.47-1.1.7-1.66.14-.34.28-.67.41-1.01.14-.32.26-.64.39-.97.23-.56.44-1.12.65-1.67"/>
    <path class="cls-5" d="m615.8,596.89c.36-.43.72-.86,1.09-1.3.37-.45.75-.91,1.12-1.37,7.8-9.65,14.42-20.3,19.67-31.71l.54-1.19"/>
    <path class="cls-5" d="m613.49,599.55l1.1-1.26c.37-.43.74-.85,1.1-1.28"/>
    <path class="cls-5" d="m611.04,602.25l1.08-1.17"/>
    <path class="cls-5" d="m602.36,610.84l1.17-1.08"/>
    <path class="cls-5" d="m598.29,614.41c.43-.37.85-.73,1.28-1.1l1.26-1.1"/>
    <path class="cls-5" d="m562.15,637.14l1.64-.74c11.41-5.24,22.05-11.87,31.71-19.67.46-.37.91-.75,1.37-1.12.44-.37.87-.73,1.3-1.09"/>
    <path class="cls-5" d="m557.64,639.05c.41-.16.81-.33,1.21-.5.55-.23,1.1-.46,1.66-.7"/>
    <path class="cls-5" d="m555.2,640.01c.56-.21,1.12-.43,1.67-.65"/>
    <path class="cls-5" d="m517.25,649.15c.58-.05,1.14-.12,1.71-.19,10.79-1.26,21.23-3.67,31.19-7.11.57-.19,1.13-.39,1.69-.59.56-.2,1.13-.4,1.69-.61"/>
    <path class="cls-5" d="m510.15,649.74c.58-.04,1.16-.07,1.75-.11,1.76-.12,3.52-.28,5.26-.46"/>
    <path class="cls-5" d="m504.85,649.96c.58-.01,1.16-.03,1.75-.05.59-.02,1.18-.04,1.77-.07.56-.02,1.12-.05,1.68-.08"/>
    <path class="cls-5" d="m492.99,200.13c1.16-.04,2.33-.06,3.5-.08"/>
    <path class="cls-5" d="m480.3,200.74c.75-.06,1.5-.11,2.26-.14.68-.05,1.36-.09,2.03-.12.44-.03.88-.05,1.32-.07.71-.04,1.42-.07,2.12-.1.57-.03,1.15-.05,1.72-.07.84-.03,1.68-.06,2.52-.08"/>
    <path class="cls-5" d="m476.76,201c1.03-.09,2.06-.17,3.1-.23"/>
    <path class="cls-5" d="m400.53,217.36c23.02-8.22,47.33-13.69,72.55-16.03,1-.1,2.01-.19,3.02-.27"/>
    <path class="cls-5" d="m391.15,220.87c.89-.35,1.78-.7,2.67-1.04,1.11-.43,2.23-.85,3.35-1.26,1.12-.42,2.23-.83,3.35-1.22"/>
    <path class="cls-5" d="m389.96,221.35c.17-.08.35-.15.53-.22"/>
    <path class="cls-5" d="m388.16,222.07c.51-.22,1.03-.42,1.54-.62"/>
    <path class="cls-5" d="m386.39,222.8c.55-.23,1.1-.46,1.64-.68"/>
    <path class="cls-5" d="m382.89,224.28c.7-.31,1.4-.61,2.1-.89.43-.19.86-.37,1.3-.55"/>
    <path class="cls-5" d="m375.99,227.34c1.06-.49,2.11-.96,3.17-1.43.96-.43,1.93-.85,2.89-1.27.13-.05.26-.11.38-.17"/>
    <path class="cls-5" d="m372.74,228.86c1.01-.47,2.03-.95,3.04-1.42"/>
    <path class="cls-5" d="m310.39,268.56c.79-.65,1.57-1.3,2.37-1.94,18.29-14.79,38.35-27.47,59.82-37.69"/>
    <path class="cls-5" d="m308.39,270.23c.48-.41.96-.81,1.44-1.21"/>
    <path class="cls-5" d="m307.14,271.29c.29-.25.59-.5.88-.74"/>
    <path class="cls-5" d="m304.73,273.36c.29-.26.59-.51.88-.76.29-.26.59-.51.89-.77"/>
    <path class="cls-5" d="m304.31,273.72c.11-.1.22-.19.33-.29"/>
    <path class="cls-5" d="m303.01,274.86c.4-.36.8-.71,1.21-1.06"/>
    <path class="cls-5" d="m301.43,276.27c.37-.33.74-.66,1.1-.98"/>
    <path class="cls-5" d="m298.58,278.85c.55-.52,1.11-1.03,1.67-1.52"/>
    <path class="cls-5" d="m295.47,281.73c.43-.41.86-.82,1.29-1.22.29-.26.57-.53.86-.79.13-.13.27-.25.41-.38"/>
    <path class="cls-5" d="m292.57,284.52c.86-.85,1.73-1.68,2.6-2.5"/>
    <path class="cls-5" d="m287.1,289.94c.68-.7,1.36-1.39,2.05-2.07s1.37-1.37,2.07-2.05"/>
    <path class="cls-5" d="m283.3,293.89c.82-.88,1.65-1.74,2.5-2.6"/>
    <path class="cls-5" d="m280.63,296.75c.79-.86,1.58-1.71,2.38-2.56"/>
    <path class="cls-5" d="m274.74,303.34c.6-.7,1.21-1.4,1.83-2.09.32-.37.65-.74.98-1.1.32-.36.64-.71.97-1.07.67-.74,1.35-1.49,2.04-2.23"/>
    <path class="cls-5" d="m270.14,308.74c.05-.06.11-.13.16-.19.4-.48.8-.96,1.21-1.44.41-.5.83-1,1.26-1.49.62-.73,1.24-1.45,1.87-2.17"/>
    <path class="cls-5" d="m230.21,371.31c10.21-21.47,22.9-41.53,37.69-59.83.64-.79,1.29-1.58,1.94-2.37"/>
    <path class="cls-5" d="m225.79,381.06c.46-1.06.92-2.12,1.4-3.19.49-1.09.98-2.17,1.48-3.25.49-1.06.98-2.12,1.48-3.17"/>
    <path class="cls-5" d="m222.42,389.19c.43-1.1.88-2.21,1.33-3.3.36-.88.73-1.76,1.1-2.63.27-.65.55-1.29.83-1.93"/>
    <path class="cls-5" d="m202.05,478.58c.07-1.09.16-2.18.25-3.26,2.35-28.95,8.82-56.74,18.82-82.78.41-1.1.84-2.2,1.28-3.29"/>
    <path class="cls-5" d="m201.42,491c.02-.84.05-1.68.08-2.52.02-.58.04-1.15.07-1.72.03-.71.06-1.42.1-2.12.02-.44.04-.88.07-1.32.03-.68.07-1.36.12-2.03.04-.76.08-1.51.14-2.26"/>
    <path class="cls-5" d="m201.3,496.83c0-.54.01-1.08.02-1.61.02-1.17.04-2.34.08-3.5"/>
    <path class="cls-5" d="m201.3,502.91c-.01-.97-.02-1.94-.02-2.91s0-1.94.02-2.91"/>
    <path class="cls-5" d="m201.41,508.29c-.04-1.16-.06-2.33-.08-3.5-.01-.53-.02-1.07-.02-1.61"/>
    <path class="cls-5" d="m202.02,520.98c-.06-.75-.11-1.5-.14-2.26-.05-.68-.09-1.36-.12-2.03-.03-.44-.05-.88-.07-1.32-.04-.71-.07-1.42-.1-2.12-.03-.57-.05-1.15-.07-1.72-.03-.84-.06-1.68-.08-2.52"/>
    <path class="cls-5" d="m222.4,610.75c-.25-.62-.5-1.24-.74-1.85h0c-.19-.49-.37-.96-.55-1.44-.25-.64-.5-1.28-.74-1.92-9.58-25.49-15.79-52.61-18.08-80.86-.09-1.09-.17-2.17-.25-3.26"/>
    <path class="cls-5" d="m224.85,616.75c-.37-.88-.74-1.75-1.1-2.63-.26-.62-.52-1.25-.77-1.88-.19-.47-.38-.94-.56-1.42"/>
    <path class="cls-5" d="m225.44,618.13c-.16-.37-.31-.73-.46-1.09"/>
    <path class="cls-5" d="m228.62,625.29c-.49-1.05-.96-2.11-1.43-3.17-.43-.96-.85-1.93-1.27-2.89"/>
    <path class="cls-5" d="m230.14,628.54c-.5-1.05-.99-2.11-1.48-3.16"/>
    <path class="cls-5" d="m269.84,690.89c-.65-.79-1.3-1.58-1.94-2.37-14.79-18.29-27.47-38.35-37.69-59.82"/>
    <path class="cls-5" d="m272.77,694.38c-.43-.49-.85-.99-1.26-1.49-.41-.48-.81-.96-1.21-1.44"/>
    <path class="cls-5" d="m273.87,695.67c-.35-.41-.71-.82-1.06-1.23"/>
    <path class="cls-5" d="m276.14,698.27c-.47-.53-.94-1.07-1.4-1.61"/>
    <path class="cls-5" d="m277.55,699.85c-.33-.37-.66-.74-.98-1.1"/>
    <path class="cls-5" d="m278.33,700.72c-.17-.18-.33-.35-.49-.53"/>
    <path class="cls-5" d="m280.55,703.16c-.69-.74-1.37-1.48-2.04-2.23"/>
    <path class="cls-5" d="m283.01,705.81c-.8-.85-1.6-1.7-2.38-2.56"/>
    <path class="cls-5" d="m285.8,708.71c-.85-.86-1.68-1.73-2.5-2.6"/>
    <path class="cls-5" d="m291.22,714.18c-.7-.68-1.39-1.36-2.07-2.05s-1.37-1.37-2.05-2.07"/>
    <path class="cls-5" d="m295.17,717.98c-.87-.82-1.74-1.65-2.6-2.5"/>
    <path class="cls-5" d="m297.62,720.27c-.29-.26-.57-.52-.86-.79-.43-.4-.86-.81-1.29-1.22"/>
    <path class="cls-5" d="m298.41,721c-.11-.1-.23-.2-.34-.31"/>
    <path class="cls-5" d="m300.26,722.68c-.56-.5-1.12-1.01-1.67-1.52"/>
    <path class="cls-5" d="m300.86,723.22s-.05-.04-.07-.07c-.08-.06-.16-.13-.23-.2"/>
    <path class="cls-5" d="m302.53,724.71c-.37-.32-.74-.65-1.1-.98"/>
    <path class="cls-5" d="m304.22,726.2c-.4-.35-.8-.7-1.21-1.06"/>
    <path class="cls-5" d="m304.64,726.57c-.11-.1-.22-.19-.33-.29"/>
    <path class="cls-5" d="m306.5,728.17c-.3-.26-.59-.51-.89-.77"/>
    <path class="cls-5" d="m307.12,728.7c-.09-.08-.19-.16-.28-.23"/>
    <path class="cls-5" d="m309.83,730.98c-.48-.4-.96-.8-1.44-1.21"/>
    <path class="cls-5" d="m372.58,771.06c-21.47-10.21-41.53-22.9-59.82-37.69-.8-.64-1.58-1.29-2.37-1.94"/>
    <path class="cls-5" d="m375.78,772.56c-1.01-.47-2.03-.95-3.04-1.42"/>
    <path class="cls-5" d="m382.05,775.36c-.97-.42-1.93-.85-2.89-1.27-1.06-.47-2.11-.95-3.17-1.43"/>
    <path class="cls-5" d="m384.99,776.62c-.7-.29-1.4-.59-2.1-.89-.08-.03-.15-.06-.23-.1"/>
    <path class="cls-5" d="m388.04,777.88c-.55-.22-1.1-.44-1.64-.68"/>
    <path class="cls-5" d="m400.52,782.64c-1.12-.39-2.24-.8-3.35-1.22-1.12-.41-2.24-.83-3.35-1.26-.89-.34-1.78-.68-2.67-1.04-.22-.08-.44-.17-.66-.26-.17-.07-.35-.14-.53-.22-.09-.03-.18-.07-.27-.11-.51-.2-1.03-.4-1.54-.62"/>
    <path class="cls-5" d="m476.1,798.94c-1.01-.08-2.02-.17-3.02-.27-25.22-2.34-49.54-7.81-72.55-16.03"/>
    <path class="cls-5" d="m479.86,799.23c-1.04-.07-2.07-.14-3.1-.23"/>
    <path class="cls-5" d="m492.28,799.86c-.84-.02-1.68-.05-2.52-.08-.58-.02-1.15-.04-1.72-.07-.71-.03-1.42-.06-2.12-.1-.44-.02-.88-.04-1.32-.07-.68-.03-1.36-.07-2.03-.12-.76-.04-1.51-.08-2.26-.14"/>
    <path class="cls-5" d="m498.11,799.98c-.54,0-1.08-.01-1.61-.02-1.17-.02-2.34-.04-3.5-.08"/>
    <path class="cls-5" d="m504.19,799.98c-.97.01-1.94.02-2.91.02s-1.94,0-2.91-.02"/>
    <path class="cls-5" d="m509.57,799.87c-1.16.04-2.33.06-3.5.08,79.35-1.66,148.61-44.39,187.35-107.81,20.85-34.12,32.86-74.23,32.86-117.14,0-26.3-4.51-51.54-12.8-75-17.36-49.11-51.28-90.4-95.06-117.14-33.61-20.54-73.02-32.5-115.2-32.85"/>
    <path class="cls-5" d="m522.26,799.26c-.75.06-1.5.11-2.26.14-.68.05-1.36.09-2.03.12-.44.03-.88.05-1.32.07-.71.04-1.42.07-2.12.1-.57.03-1.15.05-1.72.07-.84.03-1.68.06-2.52.08-.14,0-.28.01-.43.01"/>
    <path class="cls-5" d="m525.8,799c-1.03.09-2.06.17-3.1.23"/>
    <path class="cls-5" d="m602.03,782.64c-23.02,8.21-47.33,13.69-72.55,16.03-1,.1-2.01.19-3.02.27"/>
    <path class="cls-5" d="m614.4,777.93c-.51.21-1.02.42-1.54.62-.09.04-.18.08-.27.11-.17.08-.35.15-.53.22-.22.09-.44.17-.66.26-.89.35-1.78.7-2.67,1.04-1.11.43-2.23.85-3.35,1.26-1.12.42-2.23.83-3.35,1.22"/>
    <path class="cls-5" d="m616.17,777.2c-.55.23-1.09.46-1.64.68"/>
    <path class="cls-5" d="m619.67,775.72c-.7.31-1.4.6-2.11.89"/>
    <path class="cls-5" d="m629.83,771.13c-1.06.5-2.11,1-3.17,1.48-1.08.5-2.17.99-3.25,1.48-.97.43-1.93.85-2.89,1.27"/>
    <path class="cls-5" d="m692.17,731.44c-.79.65-1.58,1.3-2.37,1.94-18.29,14.79-38.36,27.48-59.83,37.69"/>
    <path class="cls-5" d="m694.17,729.77c-.48.41-.96.8-1.44,1.21"/>
    <path class="cls-5" d="m697.83,726.64c-.72.63-1.45,1.25-2.17,1.87-.08.07-.16.14-.23.2"/>
    <path class="cls-5" d="m702.21,722.77c-.36.32-.71.65-1.07.97-.37.33-.74.66-1.1.98-.69.62-1.39,1.23-2.09,1.83"/>
    <path class="cls-5" d="m704.53,720.65s-.03.03-.04.04c-.17.16-.34.32-.51.47-.55.52-1.11,1.02-1.67,1.52"/>
    <path class="cls-5" d="m707.04,718.3c-.7.67-1.4,1.33-2.11,1.97"/>
    <path class="cls-5" d="m709.99,715.48c-.86.85-1.73,1.68-2.6,2.5"/>
    <path class="cls-5" d="m715.46,710.06c-.68.7-1.36,1.39-2.05,2.07-.68.68-1.37,1.37-2.07,2.05"/>
    <path class="cls-5" d="m719.26,706.11c-.82.88-1.65,1.74-2.5,2.6"/>
    <path class="cls-5" d="m721.93,703.25c-.39.42-.78.85-1.16,1.27-.41.43-.82.86-1.22,1.29"/>
    <path class="cls-5" d="m724.05,700.93c-.67.75-1.35,1.49-2.04,2.23"/>
    <path class="cls-5" d="m724.71,700.19c-.16.18-.32.35-.49.53"/>
    <path class="cls-5" d="m725.99,698.75c-.32.37-.65.74-.98,1.1"/>
    <path class="cls-5" d="m727.82,696.66c-.46.54-.93,1.07-1.4,1.61"/>
    <path class="cls-5" d="m729.74,694.44c-.35.41-.7.82-1.06,1.23"/>
    <path class="cls-5" d="m732.26,691.45c-.4.48-.8.96-1.21,1.44-.41.5-.83,1-1.26,1.49"/>
    <path class="cls-5" d="m772.34,628.7c-10.21,21.47-22.9,41.53-37.69,59.82-.64.79-1.29,1.58-1.94,2.37"/>
    <path class="cls-5" d="m773.9,625.38c-.49,1.06-.98,2.11-1.48,3.16"/>
    <path class="cls-5" d="m776.64,619.23c-.42.97-.84,1.93-1.27,2.89-.47,1.06-.95,2.12-1.43,3.17"/>
    <path class="cls-5" d="m777.58,617.04c-.15.37-.31.73-.46,1.09"/>
    <path class="cls-5" d="m780.14,610.81c-.18.47-.37.95-.56,1.42-.26.63-.52,1.26-.77,1.88-.36.88-.73,1.76-1.1,2.63"/>
    <path class="cls-5" d="m800.51,521.42c-.07,1.09-.16,2.18-.25,3.26-2.3,28.24-8.51,55.37-18.08,80.86-.24.64-.49,1.28-.74,1.92-.17.48-.36.95-.55,1.43h0c-.24.62-.49,1.24-.74,1.86"/>
    <path class="cls-5" d="m801.14,509c-.02.84-.05,1.68-.08,2.52-.02.58-.04,1.15-.07,1.72-.03.71-.06,1.42-.1,2.12-.02.44-.04.88-.07,1.32-.03.68-.07,1.36-.12,2.03-.04.76-.08,1.51-.14,2.26"/>
    <path class="cls-5" d="m801.26,503.17c0,.54-.01,1.08-.02,1.61-.02,1.17-.04,2.34-.08,3.5"/>
    <path class="cls-5" d="m801.26,497.09c.01.97.02,1.94.02,2.91s0,1.94-.02,2.91"/>
    <path class="cls-5" d="m801.15,491.71c.04,1.16.06,2.33.08,3.5.01.53.02,1.07.02,1.61"/>
    <path class="cls-5" d="m800.54,479.02c.06.75.11,1.5.14,2.26.05.68.09,1.36.12,2.03.03.44.05.88.07,1.32.04.71.07,1.42.1,2.12.03.57.05,1.15.07,1.72.03.84.06,1.68.08,2.52"/>
    <path class="cls-5" d="m780.16,389.25c.44,1.09.87,2.19,1.28,3.29,10,26.04,16.47,53.83,18.82,82.78.09,1.09.17,2.17.25,3.26"/>
    <path class="cls-5" d="m776.88,381.32c.28.64.56,1.28.83,1.93.37.88.74,1.75,1.1,2.63.46,1.09.9,2.2,1.33,3.3"/>
    <path class="cls-5" d="m772.41,371.45c.5,1.06,1,2.11,1.48,3.17.5,1.08.99,2.17,1.48,3.25.47,1.06.94,2.12,1.4,3.19"/>
    <path class="cls-5" d="m732.72,309.11c.65.79,1.3,1.58,1.94,2.37,14.79,18.29,27.48,38.36,37.69,59.83"/>
    <path class="cls-5" d="m727.92,303.45c.63.72,1.25,1.45,1.87,2.17.43.49.85.99,1.26,1.49.41.48.81.96,1.21,1.44"/>
    <path class="cls-5" d="m722.01,296.84c.69.74,1.37,1.48,2.04,2.23.32.36.65.71.97,1.07.33.37.66.74.98,1.1.62.69,1.23,1.39,1.83,2.09"/>
    <path class="cls-5" d="m719.55,294.19c.8.85,1.6,1.7,2.38,2.56"/>
    <path class="cls-5" d="m716.76,291.29c.85.86,1.68,1.73,2.5,2.6"/>
    <path class="cls-5" d="m711.34,285.82c.7.68,1.39,1.36,2.07,2.05.68.68,1.37,1.37,2.05,2.07"/>
    <path class="cls-5" d="m707.39,282.02c.88.82,1.74,1.65,2.6,2.5"/>
    <path class="cls-5" d="m704.94,279.73c.71.65,1.41,1.3,2.11,1.97"/>
    <path class="cls-5" d="m704.49,279.31s.03.02.04.04"/>
    <path class="cls-5" d="m702.3,277.32c.56.5,1.12,1.01,1.67,1.52"/>
    <path class="cls-5" d="m697.94,273.46c.7.6,1.4,1.21,2.09,1.83.37.32.74.65,1.1.98.36.32.71.64,1.07.97"/>
    <path class="cls-5" d="m695.66,271.49c.73.62,1.45,1.24,2.17,1.87"/>
    <path class="cls-5" d="m694.54,270.54c.29.25.59.5.88.74"/>
    <path class="cls-5" d="m692.73,269.02c.48.4.96.8,1.44,1.21"/>
    <path class="cls-5" d="m629.97,228.93c21.47,10.21,41.53,22.9,59.83,37.69.79.64,1.58,1.29,2.37,1.94"/>
    <path class="cls-5" d="m620.13,224.47c.13.05.25.11.38.17.97.42,1.93.85,2.89,1.27,1.09.49,2.17.98,3.25,1.48,1.06.49,2.12.98,3.17,1.48"/>
    <path class="cls-5" d="m616.26,222.84c.44.18.87.36,1.3.55.7.29,1.4.59,2.11.89"/>
    <path class="cls-5" d="m614.52,222.12c.55.22,1.1.44,1.64.68"/>
    <path class="cls-5" d="m612.87,221.46c.52.2,1.03.41,1.54.62"/>
    <path class="cls-5" d="m612.07,221.13c.18.07.35.14.53.22"/>
    <path class="cls-5" d="m602.04,217.36c1.12.39,2.24.8,3.35,1.22,1.12.41,2.24.83,3.35,1.26.89.34,1.78.68,2.67,1.04"/>
    <path class="cls-5" d="m526.46,201.06c1.01.08,2.02.17,3.02.27,25.22,2.35,49.54,7.82,72.55,16.03"/>
    <path class="cls-5" d="m522.7,200.77c1.04.07,2.07.14,3.1.23"/>
    <path class="cls-5" d="m510.28,200.14c.84.02,1.68.05,2.52.08.58.02,1.15.04,1.72.07.71.03,1.42.06,2.12.1.44.02.88.04,1.32.07.68.03,1.36.07,2.03.12.76.04,1.51.08,2.26.14"/>
    <path class="cls-5" d="m504.45,200.02c.54,0,1.08.01,1.61.02,1.17.02,2.34.04,3.5.08"/>
    <path class="cls-5" d="m498.37,200.02c.97-.01,1.94-.02,2.91-.02s1.94,0,2.91.02"/>
    <path class="cls-5" d="m499.34,649.99c-42.18-.35-81.59-12.31-115.2-32.85-43.78-26.74-77.7-68.03-95.06-117.14-8.29-23.46-12.8-48.7-12.8-75,0-42.91,12.01-83.02,32.86-117.14,38.74-63.42,107.99-106.16,187.35-107.81.53-.01,1.07-.02,1.61-.02"/>
    <path class="cls-5" d="m492.51,649.75c.56.03,1.12.06,1.68.08.59.03,1.18.05,1.77.07.58.02,1.16.04,1.75.05"/>
    <path class="cls-5" d="m485.4,649.17c1.74.19,3.49.34,5.26.46.58.04,1.16.08,1.75.11"/>
    <path class="cls-5" d="m449.03,640.65c.56.21,1.12.41,1.69.61.56.2,1.12.4,1.69.59,9.96,3.44,20.4,5.85,31.19,7.11.57.07,1.13.14,1.71.19"/>
    <path class="cls-5" d="m445.68,639.36c.56.22,1.12.44,1.67.65"/>
    <path class="cls-5" d="m442.05,637.86c.55.23,1.1.47,1.66.7.4.17.8.34,1.21.5"/>
    <path class="cls-5" d="m404.39,614.52c.43.36.86.72,1.3,1.09.46.37.91.75,1.37,1.12,9.65,7.8,20.3,14.42,31.71,19.67l1.64.74"/>
    <path class="cls-5" d="m401.73,612.21l1.26,1.1c.43.37.85.74,1.28,1.1"/>
    <path class="cls-5" d="m399.03,609.76c.39.36.78.72,1.17,1.08"/>
    <path class="cls-5" d="m390.44,601.08c.36.39.72.78,1.08,1.17"/>
    <path class="cls-5" d="m386.87,597.01c.37.43.73.85,1.1,1.28.37.42.73.84,1.1,1.26"/>
    <path class="cls-5" d="m364.34,561.32l.54,1.19c5.24,11.41,11.87,22.06,19.67,31.71.37.46.75.92,1.12,1.37.37.44.73.87,1.09,1.3"/>
    <path class="cls-5" d="m361.27,553.92c.21.56.43,1.12.65,1.67.13.32.25.64.39.97.13.34.27.67.41,1.01.23.56.46,1.11.7,1.66"/>
    <path class="cls-5" d="m351.54,508.86c.04.59.07,1.18.11,1.76.12,1.78.28,3.54.47,5.3.05.59.12,1.18.2,1.76,1.4,12.01,4.24,23.59,8.32,34.57"/>
    <path class="cls-5" d="m351.32,503.57c.01.58.03,1.16.05,1.75.02.59.04,1.18.07,1.77.02.58.05,1.16.09,1.75"/>
    <path class="cls-5" d="m351.54,491.17c-.04.58-.07,1.16-.09,1.75-.03.59-.05,1.18-.07,1.77-.02.58-.04,1.16-.05,1.75"/>
    <path class="cls-5" d="m360.63,447.75c-4.08,10.97-6.91,22.55-8.32,34.57-.08.59-.14,1.18-.2,1.76-.19,1.76-.35,3.52-.47,5.3-.04.59-.08,1.18-.11,1.76"/>
    <path class="cls-5" d="m363.42,440.77c-.23.55-.47,1.1-.7,1.66-.14.34-.28.67-.41,1.01-.14.32-.26.64-.39.97-.23.56-.44,1.12-.65,1.67"/>
    <path class="cls-5" d="m386.76,403.11c-.36.43-.72.86-1.09,1.3-.37.45-.75.91-1.12,1.37-7.8,9.65-14.42,20.3-19.67,31.71l-.54,1.19"/>
    <path class="cls-5" d="m389.07,400.45l-1.1,1.26c-.37.43-.74.85-1.1,1.28"/>
    <path class="cls-5" d="m391.52,397.75l-1.08,1.17"/>
    <path class="cls-5" d="m400.2,389.16c-.39.36-.78.72-1.17,1.08"/>
    <path class="cls-5" d="m404.27,385.59c-.43.37-.85.73-1.28,1.1l-1.26,1.1"/>
    <path class="cls-5" d="m440.41,362.86l-1.64.74c-11.41,5.24-22.05,11.87-31.71,19.67-.46.37-.91.75-1.37,1.12-.44.37-.87.73-1.3,1.09"/>
    <path class="cls-5" d="m444.92,360.95c-.41.16-.81.33-1.21.5-.55.23-1.1.46-1.66.7"/>
    <path class="cls-5" d="m447.36,359.99c-.56.21-1.12.43-1.67.65"/>
    <path class="cls-5" d="m485.31,350.85c-.58.05-1.14.12-1.71.19-10.79,1.26-21.23,3.67-31.19,7.11-.57.19-1.13.39-1.69.59-.56.2-1.13.4-1.69.61"/>
    <path class="cls-5" d="m492.41,350.26c-.58.04-1.16.07-1.75.11-1.76.12-3.52.28-5.26.46"/>
    <path class="cls-5" d="m497.71,350.04c-.58.01-1.16.03-1.75.05-.59.02-1.18.04-1.77.07-.56.02-1.12.05-1.68.08"/>
    <path class="cls-5" d="m292.57,715.48c-.45-.43-.91-.87-1.35-1.31-.7-.68-1.39-1.36-2.07-2.05-.69-.68-1.37-1.37-2.05-2.07-.44-.44-.88-.9-1.31-1.35-.84-.86-1.67-1.73-2.5-2.6-.1-.1-.19-.2-.29-.3-.79-.85-1.59-1.7-2.38-2.56-.02-.03-.05-.06-.08-.09-.68-.74-1.36-1.48-2.04-2.23-.06-.07-.12-.13-.18-.2-.16-.17-.32-.35-.49-.53-.1-.11-.2-.22-.3-.34-.32-.37-.65-.73-.98-1.1-.14-.16-.29-.32-.43-.48-.35-.4-.71-.8-1.06-1.21-.11-.13-.23-.26-.34-.4-.01,0-.02-.01-.02-.02-.28-.32-.56-.65-.84-.98-.36-.41-.71-.82-1.06-1.23-.02-.02-.04-.04-.05-.06-.43-.49-.85-.99-1.26-1.49-.41-.48-.81-.96-1.21-1.44-.16-.19-.31-.37-.46-.56-.66-.79-1.3-1.58-1.94-2.37-15.16-18.7-27.71-38.8-37.69-59.82-.04-.05-.06-.1-.08-.16-.49-1.01-.96-2.03-1.42-3.04-.02-.04-.04-.08-.05-.12-.02-.03-.04-.06-.04-.09-.49-1.06-.97-2.11-1.43-3.17-.43-.96-.86-1.93-1.27-2.89-.06-.13-.11-.26-.17-.39-.11-.23-.21-.47-.31-.71-.16-.36-.31-.73-.46-1.09-.05-.1-.09-.2-.13-.29-.37-.88-.74-1.75-1.1-2.63-.45-1.1-.89-2.2-1.33-3.3,0,0,0-.01-.01-.02s0-.02-.01-.04c-.44-1.1-.86-2.2-1.28-3.29-10.24-26.72-16.51-54.62-18.82-82.78-.08-1.09-.17-2.18-.25-3.26-.01-.15-.02-.29-.03-.44-.05-.75-.1-1.51-.14-2.26-.05-.68-.09-1.36-.12-2.03-.03-.44-.05-.88-.07-1.32-.04-.71-.07-1.42-.1-2.12-.03-.57-.05-1.15-.07-1.72-.04-.84-.06-1.68-.08-2.52-.01-.23-.02-.47-.02-.71-.04-1.16-.07-2.33-.08-3.5-.01-.53-.02-1.07-.02-1.61,0-.08,0-.17,0-.26-.02-1.94-.02-3.88,0-5.82,0-.09,0-.18,0-.26,0-.54.01-1.08.02-1.61.01-1.17.04-2.34.08-3.5,0-.24,0-.47.02-.71.02-.84.05-1.68.08-2.52.02-.58.04-1.15.07-1.72.03-.71.06-1.42.1-2.12.02-.44.04-.88.07-1.32.03-.68.07-1.36.12-2.03.04-.75.09-1.51.14-2.26,0-.15.02-.29.03-.44.08-1.09.16-2.18.25-3.26,2.32-28.16,8.59-56.05,18.82-82.78.42-1.1.85-2.2,1.28-3.29,0-.02.01-.04.02-.06.44-1.1.88-2.2,1.33-3.3.36-.88.73-1.76,1.1-2.63.27-.65.55-1.29.83-1.93.03-.09.07-.17.11-.26.46-1.07.92-2.12,1.4-3.19.48-1.09.97-2.17,1.48-3.25.48-1.06.97-2.12,1.48-3.17.01-.05.04-.1.07-.14,9.97-21.02,22.54-41.12,37.69-59.83.64-.79,1.28-1.58,1.94-2.37.1-.12.19-.25.3-.37.05-.07.1-.13.16-.19.4-.48.8-.96,1.21-1.44.41-.5.83-1,1.26-1.49.61-.73,1.24-1.45,1.87-2.17.03-.04.07-.08.1-.11.6-.7,1.21-1.4,1.83-2.09.32-.37.65-.74.98-1.1.32-.36.65-.72.97-1.07.68-.75,1.36-1.49,2.04-2.23.03-.04.05-.07.08-.09.79-.86,1.59-1.71,2.38-2.56.1-.1.19-.2.29-.3.83-.87,1.66-1.74,2.5-2.6.43-.45.87-.91,1.31-1.35.68-.7,1.36-1.39,2.05-2.07.68-.69,1.37-1.37,2.07-2.05.44-.44.9-.88,1.35-1.31.86-.84,1.73-1.67,2.6-2.5.1-.1.2-.19.3-.29.01,0,.03-.02.04-.03.7-.67,1.4-1.32,2.11-1.97.13-.13.27-.25.41-.38.01,0,.02-.02.04-.04.11-.1.22-.2.34-.31.06-.05.11-.1.17-.16.56-.51,1.11-1.02,1.67-1.52.1-.09.2-.18.3-.27.17-.16.35-.32.53-.49.11-.1.22-.2.34-.3.37-.32.73-.65,1.1-.98.16-.14.32-.29.48-.43l1.21-1.06s.06-.05.09-.08c.1-.09.2-.18.31-.26,0-.01.01-.02.02-.02.03-.02.06-.05.1-.08.29-.26.59-.52.88-.76.29-.26.59-.52.89-.77.11-.1.23-.2.34-.29.09-.08.19-.16.28-.23,0-.01.01-.02.02-.02.29-.25.59-.5.88-.74.13-.11.25-.22.37-.31.48-.41.96-.81,1.44-1.21.19-.16.37-.31.56-.46.79-.66,1.58-1.3,2.37-1.94,18.7-15.16,38.8-27.72,59.82-37.69.05-.04.1-.06.16-.08,1.01-.49,2.02-.96,3.04-1.42.04-.02.08-.04.12-.05.03-.02.06-.04.09-.04,1.06-.49,2.11-.97,3.17-1.43.96-.43,1.93-.86,2.89-1.27.13-.06.25-.11.38-.17.08-.04.16-.07.23-.1.07-.04.15-.07.23-.1.32-.14.64-.28.96-.42.38-.16.76-.32,1.14-.47.43-.19.86-.37,1.3-.55.03-.01.06-.03.1-.04.55-.23,1.09-.46,1.64-.68.04-.02.08-.04.12-.05.51-.21,1.02-.42,1.54-.62.09-.04.18-.08.27-.11l.52-.22h0c.22-.09.44-.17.66-.26.89-.35,1.78-.7,2.67-1.04,1.12-.43,2.23-.85,3.35-1.26s2.23-.82,3.35-1.22h0c23.55-8.38,47.93-13.72,72.55-16.03,1.01-.1,2.02-.19,3.02-.27.22-.02.44-.04.65-.05,1.03-.08,2.07-.16,3.1-.23.15-.01.29-.02.44-.03.75-.05,1.51-.1,2.26-.14.68-.05,1.36-.09,2.03-.12.44-.03.88-.05,1.32-.07.71-.04,1.42-.07,2.12-.1.57-.03,1.15-.05,1.72-.07.84-.04,1.68-.06,2.52-.08.23-.01.47-.02.71-.02,1.16-.04,2.33-.07,3.5-.08.53-.01,1.07-.02,1.61-.02.08,0,.17,0,.26,0,1.94-.02,3.88-.02,5.82,0,.09,0,.18,0,.26,0,.54,0,1.08.01,1.61.02,1.17.01,2.34.04,3.5.08.24,0,.47,0,.71.02.84.02,1.68.05,2.52.08.58.02,1.15.04,1.72.07.71.03,1.42.06,2.12.1.44.02.88.04,1.32.07.68.03,1.36.07,2.03.12.75.04,1.51.09,2.26.14.15,0,.29.02.44.03,1.03.07,2.07.15,3.1.23.22.02.44.04.65.05,1.01.08,2.02.17,3.02.27,24.62,2.31,49,7.65,72.55,16.03h0c1.12.4,2.24.8,3.35,1.22s2.23.83,3.35,1.26c.89.34,1.78.68,2.67,1.04.22.08.44.17.66.26h0l.52.22c.09.03.18.07.27.11.52.2,1.03.41,1.54.62.04.01.08.03.12.05.55.22,1.1.44,1.64.68.04,0,.07.02.1.04.44.18.87.36,1.3.55.7.29,1.4.59,2.11.89.16.06.31.13.46.19.13.05.26.11.38.17.97.41,1.93.84,2.89,1.27,1.09.48,2.17.97,3.25,1.48,1.06.47,2.12.97,3.17,1.48.05.01.1.04.14.07,21.02,9.97,41.12,22.54,59.83,37.69.79.64,1.58,1.28,2.37,1.94.19.15.37.3.56.46.48.4.96.8,1.44,1.21.13.1.25.2.37.31.29.24.59.49.88.74.08.06.16.13.23.2.13.11.27.22.4.34.59.5,1.18,1.01,1.77,1.53.04.03.08.07.11.1.7.6,1.4,1.21,2.09,1.83.37.32.74.65,1.1.98.36.32.72.65,1.07.97.04.03.07.06.1.09.56.5,1.12,1.01,1.67,1.52.17.16.34.31.51.47.02.02.03.03.04.04.14.13.28.25.41.38.7.65,1.4,1.31,2.11,1.97.11.1.23.21.34.32.87.83,1.74,1.66,2.6,2.5"/>
    <path class="cls-5" d="m399.03,609.76c.39.36.77.72,1.17,1.08.5.46,1.01.92,1.52,1.37.42.37.84.74,1.26,1.1.43.38.85.74,1.28,1.1l.13.11c.43.37.86.73,1.3,1.09.45.38.91.76,1.37,1.12,9.89,8,20.55,14.56,31.71,19.67.55.25,1.09.5,1.64.74.55.25,1.1.49,1.64.72.55.24,1.1.47,1.66.7.4.17.8.34,1.21.5.25.1.5.2.76.31.56.22,1.11.44,1.67.65.56.22,1.12.43,1.67.64.56.21,1.12.41,1.69.61.56.2,1.13.4,1.69.59,10.16,3.49,20.62,5.86,31.19,7.11.57.07,1.14.13,1.71.19.03,0,.07,0,.1.01,1.75.18,3.5.34,5.26.46.58.04,1.16.08,1.75.11.04,0,.07,0,.11,0,.56.03,1.12.06,1.68.08.59.03,1.18.05,1.77.07.58.02,1.16.04,1.75.05.54.01,1.09.02,1.63.03,1.84.02,3.67.01,5.51-.03.58-.01,1.16-.03,1.75-.05.59-.02,1.18-.04,1.77-.07.56-.02,1.12-.05,1.68-.08.04,0,.07,0,.11,0,.58-.04,1.16-.08,1.75-.11,1.75-.13,3.5-.28,5.26-.46.03,0,.07-.01.1-.01.57-.06,1.14-.13,1.71-.19,10.57-1.25,21.03-3.62,31.19-7.11.56-.19,1.13-.39,1.69-.59.56-.2,1.12-.4,1.69-.61.56-.21,1.12-.42,1.67-.64.56-.21,1.12-.43,1.67-.65.26-.1.51-.2.76-.31.41-.16.81-.33,1.21-.5.55-.23,1.1-.46,1.66-.7.55-.23,1.1-.47,1.64-.72.55-.24,1.09-.49,1.64-.74,11.16-5.11,21.82-11.66,31.71-19.67.46-.37.92-.74,1.37-1.12.44-.35.87-.72,1.3-1.09l.13-.11c.43-.36.85-.73,1.28-1.1.42-.36.84-.73,1.26-1.1.51-.46,1.02-.91,1.52-1.37.4-.36.78-.72,1.17-1.08.73-.68,1.45-1.37,2.17-2.06.09-.09.18-.17.27-.26.47-.45.92-.91,1.38-1.36.46-.46.91-.91,1.36-1.38.79-.81,1.57-1.62,2.33-2.44.36-.39.72-.77,1.08-1.17.46-.5.92-1.01,1.37-1.52.37-.42.74-.84,1.1-1.26.38-.43.74-.85,1.1-1.28l.11-.13c.37-.43.73-.86,1.09-1.3.38-.45.76-.91,1.12-1.37,8-9.89,14.56-20.55,19.67-31.71.19-.4.37-.79.54-1.19.31-.7.62-1.39.92-2.09.24-.55.47-1.1.7-1.66.14-.34.28-.67.41-1.01.13-.32.26-.64.39-.97.22-.56.44-1.11.65-1.67.22-.56.43-1.12.64-1.67,4.16-11.21,6.93-22.82,8.32-34.57l.2-1.76c.19-1.76.34-3.53.47-5.3.04-.59.08-1.18.11-1.76v-.02c.04-.58.07-1.16.09-1.75.03-.59.05-1.18.07-1.77.02-.58.04-1.16.05-1.75.01-.54.02-1.09.03-1.63.02-1.84.01-3.67-.03-5.51-.01-.58-.03-1.16-.05-1.75-.02-.59-.04-1.18-.07-1.77-.02-.58-.05-1.16-.09-1.75v-.02c-.04-.59-.07-1.18-.11-1.76-.13-1.77-.28-3.53-.47-5.3l-.2-1.76c-1.39-11.74-4.16-23.35-8.32-34.57-.21-.56-.42-1.12-.64-1.67-.21-.56-.43-1.12-.65-1.67-.13-.32-.26-.65-.39-.97-.13-.34-.27-.67-.41-1.01-.23-.55-.46-1.1-.7-1.66-.3-.7-.61-1.4-.92-2.09-.17-.4-.35-.79-.54-1.19-5.11-11.16-11.66-21.82-19.67-31.71-.37-.46-.74-.92-1.12-1.37-.35-.44-.72-.87-1.09-1.3l-.11-.13c-.36-.43-.73-.85-1.1-1.28-.36-.42-.73-.84-1.1-1.26-.46-.51-.91-1.02-1.37-1.52-.36-.4-.72-.78-1.08-1.17-.68-.73-1.37-1.45-2.06-2.17"/>
    <path class="cls-5" d="m399.03,609.76c-.82-.76-1.63-1.54-2.44-2.33-.47-.45-.92-.91-1.38-1.36-.46-.46-.91-.91-1.36-1.38-.09-.09-.17-.18-.26-.27-29.42-30.02-48.76-66.25-57.97-104.42-12.04-49.87-6.84-103.04,15.61-150.05,10.73-22.45,25.39-43.49,43.98-62.08,30.35-30.35,67.19-50.21,106.07-59.59,72.23-17.45,151.43,1.3,208.71,56.24.45.43.91.87,1.35,1.31.7.68,1.39,1.36,2.07,2.05.69.68,1.37,1.37,2.05,2.07.44.44.88.9,1.31,1.35.84.86,1.67,1.73,2.5,2.6.1.1.19.2.29.3.79.85,1.59,1.7,2.38,2.56.02.02.05.05.08.09.68.74,1.36,1.48,2.04,2.23.32.35.64.71.97,1.07.32.37.65.73.98,1.1.62.69,1.23,1.39,1.83,2.09.04.04.07.07.1.11.63.72,1.25,1.45,1.87,2.17.43.49.85.99,1.26,1.49.41.48.81.96,1.21,1.44.16.19.31.37.46.56.66.79,1.3,1.58,1.94,2.37,15.16,18.7,27.72,38.8,37.69,59.83.03.05.05.1.07.14.51,1.06,1,2.11,1.48,3.17.51,1.08,1,2.17,1.48,3.25.48,1.06.94,2.12,1.4,3.19.04.08.08.17.11.26.28.64.56,1.28.83,1.93.37.88.74,1.75,1.1,2.63.45,1.1.89,2.2,1.33,3.3,0,.02.02.04.02.06.44,1.1.86,2.2,1.28,3.29,10.24,26.72,16.51,54.62,18.82,82.78.08,1.09.17,2.18.25,3.26.01.15.02.29.03.44.05.75.1,1.51.14,2.26.05.68.09,1.36.12,2.03.03.44.05.88.07,1.32.04.71.07,1.42.1,2.12.03.57.05,1.15.07,1.72.04.84.06,1.68.08,2.52.01.23.02.47.02.71.04,1.16.07,2.33.08,3.5.01.53.02,1.07.02,1.61,0,.08,0,.17,0,.26.02,1.94.02,3.88,0,5.82,0,.09,0,.18,0,.26,0,.54-.01,1.08-.02,1.61-.01,1.17-.04,2.34-.08,3.5,0,.24,0,.47-.02.71-.02.84-.05,1.68-.08,2.52-.02.58-.04,1.15-.07,1.72-.03.71-.06,1.42-.1,2.12-.02.44-.04.88-.07,1.32-.03.68-.07,1.36-.12,2.03-.04.75-.09,1.51-.14,2.26,0,.15-.02.29-.03.44-.08,1.09-.16,2.18-.25,3.26-2.32,28.16-8.59,56.05-18.82,82.78-.42,1.1-.85,2.2-1.28,3.29,0,.01,0,.02-.01.04s0,.02-.01.02c-.44,1.1-.88,2.2-1.33,3.3-.36.88-.73,1.76-1.1,2.63-.04.1-.08.2-.13.29-.15.37-.31.73-.46,1.09-.1.24-.2.47-.31.71-.05.13-.11.26-.17.39-.41.97-.84,1.93-1.27,2.89-.47,1.06-.94,2.11-1.43,3.17,0,.03-.02.06-.04.09-.01.04-.03.08-.05.12-.46,1.01-.94,2.03-1.42,3.04-.02.05-.04.1-.08.16-9.97,21.02-22.53,41.12-37.69,59.82-.64.79-1.28,1.58-1.94,2.37-.15.19-.3.37-.46.56-.4.48-.8.96-1.21,1.44-.41.5-.83,1-1.26,1.49,0,.02-.02.04-.05.06-.35.41-.7.82-1.06,1.23-.28.33-.56.65-.84.98,0,0-.01.01-.02.02-.11.14-.23.27-.34.4l-1.06,1.21c-.14.16-.28.32-.43.48-.32.37-.65.74-.98,1.1-.1.11-.2.23-.3.34-.16.18-.32.36-.49.53-.06.07-.12.14-.18.2-.68.75-1.36,1.49-2.04,2.23-.03.04-.05.07-.08.09-.79.86-1.59,1.71-2.38,2.56-.1.1-.19.2-.29.3-.83.87-1.66,1.74-2.5,2.6-.43.45-.87.91-1.31,1.35-.68.7-1.36,1.39-2.05,2.07-.68.69-1.37,1.37-2.07,2.05-.44.44-.9.88-1.35,1.31-.86.84-1.73,1.67-2.6,2.5-.11.11-.23.22-.34.32-.7.67-1.4,1.32-2.11,1.97-.14.13-.28.25-.41.38-.02.01-.03.02-.04.04-.17.16-.34.31-.51.47-.56.51-1.12,1.02-1.67,1.52-.03.03-.06.06-.1.09-.35.32-.71.64-1.07.97-.37.32-.73.65-1.1.98-.69.62-1.39,1.23-2.09,1.83-.04.04-.08.07-.11.1-.59.52-1.18,1.03-1.77,1.53-.22.19-.43.37-.64.54-.29.25-.59.5-.88.74-.13.11-.25.22-.37.31-.48.41-.96.82-1.44,1.21-.19.16-.37.32-.56.46-.79.66-1.58,1.31-2.37,1.94-18.7,15.16-38.81,27.72-59.83,37.69-.05.03-.1.05-.14.07-1.06.51-2.11,1.01-3.17,1.48-1.08.51-2.17,1-3.25,1.48-.96.43-1.93.86-2.89,1.27-.13.06-.26.11-.38.17-.15.07-.31.13-.46.19-.7.31-1.4.61-2.11.89-.43.19-.86.37-1.3.55-.03.02-.06.03-.1.04-.55.23-1.09.46-1.64.68-.04.02-.08.04-.12.05-.51.21-1.02.42-1.54.62-.26.11-.53.22-.79.32h0c-.22.09-.44.17-.66.26-.89.35-1.78.7-2.67,1.04-1.12.43-2.23.85-3.35,1.26-1.12.41-2.24.82-3.35,1.22h0c-23.55,8.38-47.93,13.72-72.55,16.03-1.01.1-2.02.19-3.02.27-.22.02-.44.04-.65.05-1.03.08-2.07.16-3.1.23-.15.01-.29.02-.44.03-.75.05-1.51.1-2.26.14-.68.05-1.36.09-2.03.12-.44.03-.88.05-1.32.07-.71.04-1.42.07-2.12.1-.57.03-1.15.05-1.72.07-.84.04-1.68.06-2.52.08-.14,0-.28.01-.43.01-.09,0-.19.01-.28,0-1.16.04-2.33.07-3.5.08-.53.01-1.07.02-1.61.02-.08,0-.17,0-.26,0-1.94.02-3.88.02-5.82,0-.09,0-.18,0-.26,0-.54,0-1.08-.01-1.61-.02-1.17-.01-2.34-.04-3.5-.08-.24,0-.47,0-.71-.02-.84-.02-1.68-.05-2.52-.08-.58-.02-1.15-.04-1.72-.07-.71-.03-1.42-.06-2.12-.1-.44-.02-.88-.04-1.32-.07-.68-.03-1.36-.07-2.03-.12-.75-.04-1.51-.09-2.26-.14-.15,0-.29-.02-.44-.03-1.03-.07-2.07-.15-3.1-.23-.22-.02-.44-.04-.65-.05-1.01-.08-2.02-.17-3.02-.27-24.62-2.31-49-7.66-72.55-16.03h0c-1.12-.4-2.24-.8-3.35-1.22-1.12-.41-2.23-.83-3.35-1.26-.89-.34-1.78-.68-2.67-1.04-.22-.08-.44-.17-.66-.26h0c-.26-.11-.53-.21-.79-.32-.52-.2-1.03-.41-1.54-.62-.04-.01-.08-.03-.12-.05-.55-.22-1.1-.44-1.64-.68-.04,0-.07-.02-.1-.04-.44-.18-.87-.36-1.3-.55-.38-.16-.76-.31-1.14-.47-.4-.17-.79-.34-1.19-.52-.08-.03-.16-.06-.23-.1-.13-.05-.26-.11-.38-.17-.97-.41-1.93-.84-2.89-1.27-1.06-.47-2.12-.94-3.17-1.43-.03,0-.06-.02-.09-.04-.04-.01-.08-.03-.12-.05-1.01-.46-2.03-.94-3.04-1.42-.05-.02-.1-.04-.16-.08-21.02-9.97-41.12-22.53-59.82-37.69-.79-.63-1.58-1.28-2.37-1.94-.19-.14-.37-.3-.56-.46-.48-.39-.96-.79-1.44-1.21-.13-.1-.25-.2-.37-.31-.29-.24-.59-.49-.88-.74,0,0-.01,0-.02-.02-.09-.07-.19-.15-.28-.23-.11-.09-.23-.19-.34-.29-.29-.25-.59-.5-.89-.77-.29-.25-.59-.5-.88-.76-.03-.02-.07-.05-.1-.08,0,0-.01-.01-.02-.02-.11-.08-.21-.17-.31-.26-.03-.02-.06-.05-.09-.08l-1.21-1.06c-.16-.14-.32-.28-.48-.43-.37-.32-.74-.65-1.1-.98-.11-.1-.23-.2-.34-.3-.08-.07-.16-.14-.23-.21-.1-.1-.2-.19-.3-.28-.1-.09-.2-.18-.3-.27-.56-.5-1.12-1.01-1.67-1.52-.06-.05-.11-.1-.17-.16-.11-.1-.22-.2-.34-.31-.01-.01-.02-.02-.04-.04-.13-.13-.27-.25-.41-.38-.7-.65-1.4-1.31-2.11-1.97-.01-.01-.03-.02-.04-.03-.1-.1-.2-.19-.3-.29-.87-.83-1.74-1.66-2.6-2.5,57.28,54.94,136.47,73.69,208.71,56.24,38.87-9.38,75.72-29.24,106.07-59.59,18.59-18.59,33.25-39.63,43.98-62.08,22.45-47,27.65-100.18,15.61-150.05-9.21-38.17-28.54-74.39-57.97-104.42-.09-.09-.17-.18-.26-.27-.45-.47-.91-.92-1.36-1.38-.46-.46-.91-.91-1.38-1.36-.81-.79-1.62-1.57-2.44-2.33-.39-.36-.77-.72-1.17-1.08-.5-.46-1.01-.92-1.52-1.37-.42-.37-.84-.74-1.26-1.1-.43-.38-.85-.74-1.28-1.1l-.13-.11c-.43-.37-.86-.73-1.3-1.09-.45-.38-.91-.76-1.37-1.12-9.89-8-20.55-14.56-31.71-19.67-.55-.25-1.09-.5-1.64-.74-.55-.25-1.1-.49-1.64-.72-.55-.24-1.1-.47-1.66-.7-.4-.17-.8-.34-1.21-.5-.25-.1-.5-.2-.76-.31-.56-.22-1.11-.44-1.67-.65-.56-.22-1.12-.43-1.67-.64-.56-.21-1.12-.41-1.69-.61-.56-.2-1.13-.4-1.69-.59-10.16-3.49-20.62-5.86-31.19-7.11-.57-.07-1.14-.13-1.71-.19-.03,0-.07,0-.1-.01-1.75-.18-3.5-.34-5.26-.46-.58-.04-1.16-.08-1.75-.11-.04,0-.07,0-.11,0-.56-.03-1.12-.06-1.68-.08-.59-.03-1.18-.05-1.77-.07-.58-.02-1.16-.04-1.75-.05-.54-.01-1.09-.02-1.63-.03-1.84-.02-3.67-.01-5.51.03-.58.01-1.16.03-1.75.05-.59.02-1.18.04-1.77.07-.56.02-1.12.05-1.68.08-.04,0-.07,0-.11,0-.58.04-1.16.08-1.75.11-1.75.13-3.5.28-5.26.46-.03,0-.07.01-.1.01-.57.06-1.14.13-1.71.19-10.57,1.25-21.03,3.62-31.19,7.11-.56.19-1.13.39-1.69.59-.56.2-1.12.4-1.69.61-.56.21-1.12.42-1.67.64-.56.21-1.12.43-1.67.65-.26.1-.51.2-.76.31-.41.16-.81.33-1.21.5-.55.23-1.1.46-1.66.7-.55.23-1.1.47-1.64.72-.55.24-1.09.49-1.64.74-11.16,5.11-21.82,11.66-31.71,19.67-.46.37-.92.74-1.37,1.12-.44.35-.87.72-1.3,1.09l-.13.11c-.43.36-.85.73-1.28,1.1-.42.36-.84.73-1.26,1.1-.51.46-1.02.91-1.52,1.37-.4.36-.78.72-1.17,1.08-.73.68-1.45,1.37-2.17,2.06-.09.09-.18.17-.27.26-.47.45-.92.91-1.38,1.36-.46.46-.91.91-1.36,1.38-.79.81-1.57,1.62-2.33,2.44-.36.39-.72.77-1.08,1.17-.46.5-.92,1.01-1.37,1.52-.37.42-.74.84-1.1,1.26-.38.43-.74.85-1.1,1.28l-.11.13c-.37.43-.73.86-1.09,1.3-.38.45-.76.91-1.12,1.37-8,9.89-14.56,20.55-19.67,31.71-.19.4-.37.79-.54,1.19-.31.7-.62,1.39-.92,2.09-.24.55-.47,1.1-.7,1.66-.14.34-.28.67-.41,1.01-.13.32-.26.64-.39.97-.22.56-.44,1.11-.65,1.67-.22.56-.43,1.12-.64,1.67-4.16,11.21-6.93,22.82-8.32,34.57l-.2,1.76c-.19,1.76-.34,3.53-.47,5.3-.04.59-.08,1.18-.11,1.76v.02c-.04.58-.07,1.16-.09,1.75-.03.59-.05,1.18-.07,1.77-.02.58-.04,1.16-.05,1.75-.01.54-.02,1.09-.03,1.63-.02,1.84-.01,3.67.03,5.51.01.58.03,1.16.05,1.75.02.59.04,1.18.07,1.77.02.58.05,1.16.09,1.75v.02c.04.59.07,1.18.11,1.76.13,1.77.28,3.53.47,5.3l.2,1.76c1.39,11.74,4.16,23.35,8.32,34.57.21.56.42,1.12.64,1.67.21.56.43,1.12.65,1.67.13.32.26.65.39.97.13.34.27.67.41,1.01.23.55.46,1.1.7,1.66.3.7.61,1.4.92,2.09.17.4.35.79.54,1.19,5.11,11.16,11.66,21.82,19.67,31.71.37.46.74.92,1.12,1.37.35.44.72.87,1.09,1.3l.11.13c.36.43.73.85,1.1,1.28.36.42.73.84,1.1,1.26.46.51.91,1.02,1.37,1.52.36.4.72.78,1.08,1.17.68.73,1.37,1.45,2.06,2.17"/>
  </g>
  <g>
    <path class="cls-11" d="m956.03,596.12c-10.24,0-20-1.6-29.28-4.8-9.28-3.2-17.36-7.68-24.24-13.44-6.88-5.76-11.92-12.4-15.12-19.92-1.6-3.36-1.56-6.48.12-9.36s4.52-4.72,8.52-5.52c2.88-.64,5.72-.2,8.52,1.32,2.8,1.52,4.92,3.8,6.36,6.84,1.92,4,5.08,7.68,9.48,11.04,4.4,3.36,9.72,6.08,15.96,8.16,6.24,2.08,12.8,3.12,19.68,3.12,7.68,0,14.76-1.2,21.24-3.6,6.48-2.4,11.72-5.88,15.72-10.44,4-4.56,6-10.2,6-16.92,0-8.48-3.32-16.08-9.96-22.8-6.64-6.72-17.56-10.88-32.76-12.48-19.84-1.92-35.44-7.76-46.8-17.52-11.36-9.76-17.04-21.84-17.04-36.24,0-10.56,2.96-19.52,8.88-26.88,5.92-7.36,13.96-12.96,24.12-16.8,10.16-3.84,21.48-5.76,33.96-5.76,9.76,0,18.28,1.36,25.56,4.08,7.28,2.72,13.64,6.48,19.08,11.28,5.44,4.8,10.16,10.48,14.16,17.04,2.24,3.52,3.16,6.84,2.76,9.96-.4,3.12-1.96,5.56-4.68,7.32-3.04,1.92-6.32,2.32-9.84,1.2-3.52-1.12-6.16-3.2-7.92-6.24-2.56-4.64-5.68-8.56-9.36-11.76-3.68-3.2-8-5.72-12.96-7.56-4.96-1.84-10.8-2.76-17.52-2.76-11.84-.16-21.76,2.04-29.76,6.6-8,4.56-12,11.56-12,21,0,4.8,1.24,9.4,3.72,13.8,2.48,4.4,7.04,8.2,13.68,11.4,6.64,3.2,16.2,5.44,28.68,6.72,19.04,1.92,33.88,7.72,44.52,17.4,10.64,9.68,15.96,22.44,15.96,38.28,0,9.12-1.88,17.04-5.64,23.76-3.76,6.72-8.8,12.36-15.12,16.92-6.32,4.56-13.52,7.96-21.6,10.2-8.08,2.24-16.44,3.36-25.08,3.36Z"/>
    <path class="cls-11" d="m1113.95,594.68c-11.68,0-22.16-2.92-31.44-8.76-9.28-5.84-16.6-13.76-21.96-23.76-5.36-10-8.04-21.32-8.04-33.96s2.92-24,8.76-34.08c5.84-10.08,13.76-18.04,23.76-23.88,10-5.84,21.24-8.76,33.72-8.76s23.68,2.92,33.6,8.76c9.92,5.84,17.8,13.8,23.64,23.88,5.84,10.08,8.76,21.44,8.76,34.08h-9.36c0,12.64-2.68,23.96-8.04,33.96-5.36,10-12.68,17.92-21.96,23.76-9.28,5.84-19.76,8.76-31.44,8.76Zm4.8-21.6c8.16,0,15.44-1.96,21.84-5.88,6.4-3.92,11.44-9.28,15.12-16.08,3.68-6.8,5.52-14.44,5.52-22.92s-1.84-16.36-5.52-23.16c-3.68-6.8-8.72-12.16-15.12-16.08-6.4-3.92-13.68-5.88-21.84-5.88s-15.24,1.96-21.72,5.88c-6.48,3.92-11.6,9.28-15.36,16.08-3.76,6.8-5.64,14.52-5.64,23.16s1.88,16.12,5.64,22.92c3.76,6.8,8.88,12.16,15.36,16.08,6.48,3.92,13.72,5.88,21.72,5.88Zm53.76,20.88c-3.52,0-6.44-1.16-8.76-3.48-2.32-2.32-3.48-5.24-3.48-8.76v-36.72l4.56-25.44,19.92,8.64v53.52c0,3.52-1.16,6.44-3.48,8.76s-5.24,3.48-8.76,3.48Z"/>
    <path class="cls-11" d="m1275.95,594.68c-12,0-22.6-2.84-31.8-8.52-9.2-5.68-16.44-13.52-21.72-23.52-5.28-10-7.92-21.48-7.92-34.44s2.84-24.68,8.52-34.68c5.68-10,13.48-17.84,23.4-23.52,9.92-5.68,21.36-8.52,34.32-8.52s24.16,2.84,34.08,8.52c9.92,5.68,17.72,13.52,23.4,23.52,5.68,10,8.52,21.56,8.52,34.68h-14.16c0,12.96-2.44,24.44-7.32,34.44-4.88,10-11.56,17.84-20.04,23.52-8.48,5.68-18.24,8.52-29.28,8.52Zm4.32,53.52c-11.36,0-22-2.24-31.92-6.72-9.92-4.48-18.32-11.04-25.2-19.68-2.08-2.72-2.84-5.52-2.28-8.4.56-2.88,2.12-5.2,4.68-6.96,2.88-1.92,5.88-2.56,9-1.92,3.12.64,5.64,2.24,7.56,4.8,4.32,5.44,9.76,9.68,16.32,12.72,6.56,3.04,14,4.56,22.32,4.56,7.68,0,14.76-1.84,21.24-5.52,6.48-3.68,11.64-9.12,15.48-16.32s5.76-16,5.76-26.4v-34.08l7.92-21.12,15.6,5.04v51.84c0,12.64-2.8,24.12-8.4,34.44-5.6,10.32-13.4,18.52-23.4,24.6-10,6.08-21.56,9.12-34.68,9.12Zm.48-75.12c8.32,0,15.68-1.92,22.08-5.76,6.4-3.84,11.4-9.12,15-15.84,3.6-6.72,5.4-14.48,5.4-23.28s-1.8-16.6-5.4-23.4c-3.6-6.8-8.6-12.12-15-15.96-6.4-3.84-13.76-5.76-22.08-5.76s-15.68,1.92-22.08,5.76c-6.4,3.84-11.44,9.16-15.12,15.96-3.68,6.8-5.52,14.6-5.52,23.4s1.84,16.56,5.52,23.28c3.68,6.72,8.72,12,15.12,15.84,6.4,3.84,13.76,5.76,22.08,5.76Z"/>
    <path class="cls-11" d="m1444.9,594.68c-13.28,0-25.08-2.84-35.4-8.52-10.32-5.68-18.4-13.52-24.24-23.52-5.84-10-8.76-21.48-8.76-34.44s2.76-24.68,8.28-34.68c5.52-10,13.16-17.84,22.92-23.52,9.76-5.68,20.96-8.52,33.6-8.52s23.2,2.76,32.16,8.28c8.96,5.52,15.8,13.12,20.52,22.8,4.72,9.68,7.08,20.84,7.08,33.48,0,3.04-1.04,5.56-3.12,7.56-2.08,2-4.72,3-7.92,3h-96.72v-19.2h96l-9.84,6.72c-.16-8-1.76-15.16-4.8-21.48-3.04-6.32-7.36-11.32-12.96-15-5.6-3.68-12.4-5.52-20.4-5.52-9.12,0-16.92,2-23.4,6-6.48,4-11.4,9.48-14.76,16.44-3.36,6.96-5.04,14.84-5.04,23.64s2,16.64,6,23.52c4,6.88,9.52,12.32,16.56,16.32,7.04,4,15.12,6,24.24,6,4.96,0,10.04-.92,15.24-2.76,5.2-1.84,9.4-3.96,12.6-6.36,2.4-1.76,5-2.68,7.8-2.76,2.8-.08,5.24.76,7.32,2.52,2.72,2.4,4.16,5.04,4.32,7.92.16,2.88-1.12,5.36-3.84,7.44-5.44,4.32-12.2,7.84-20.28,10.56-8.08,2.72-15.8,4.08-23.16,4.08Z"/>
    <path class="cls-3" d="m1664.5,596.12c-10.24,0-20-1.6-29.28-4.8-9.28-3.2-17.36-7.68-24.24-13.44-6.88-5.76-11.92-12.4-15.12-19.92-1.6-3.36-1.56-6.48.12-9.36s4.52-4.72,8.52-5.52c2.88-.64,5.72-.2,8.52,1.32,2.8,1.52,4.92,3.8,6.36,6.84,1.92,4,5.08,7.68,9.48,11.04,4.4,3.36,9.72,6.08,15.96,8.16,6.24,2.08,12.8,3.12,19.68,3.12,7.68,0,14.76-1.2,21.24-3.6,6.48-2.4,11.72-5.88,15.72-10.44,4-4.56,6-10.2,6-16.92,0-8.48-3.32-16.08-9.96-22.8-6.64-6.72-17.56-10.88-32.76-12.48-19.84-1.92-35.44-7.76-46.8-17.52-11.36-9.76-17.04-21.84-17.04-36.24,0-10.56,2.96-19.52,8.88-26.88,5.92-7.36,13.96-12.96,24.12-16.8,10.16-3.84,21.48-5.76,33.96-5.76,9.76,0,18.28,1.36,25.56,4.08,7.28,2.72,13.64,6.48,19.08,11.28,5.44,4.8,10.16,10.48,14.16,17.04,2.24,3.52,3.16,6.84,2.76,9.96-.4,3.12-1.96,5.56-4.68,7.32-3.04,1.92-6.32,2.32-9.84,1.2-3.52-1.12-6.16-3.2-7.92-6.24-2.56-4.64-5.68-8.56-9.36-11.76-3.68-3.2-8-5.72-12.96-7.56-4.96-1.84-10.8-2.76-17.52-2.76-11.84-.16-21.76,2.04-29.76,6.6-8,4.56-12,11.56-12,21,0,4.8,1.24,9.4,3.72,13.8,2.48,4.4,7.04,8.2,13.68,11.4,6.64,3.2,16.2,5.44,28.68,6.72,19.04,1.92,33.88,7.72,44.52,17.4,10.64,9.68,15.96,22.44,15.96,38.28,0,9.12-1.88,17.04-5.64,23.76-3.76,6.72-8.8,12.36-15.12,16.92-6.32,4.56-13.52,7.96-21.6,10.2-8.08,2.24-16.44,3.36-25.08,3.36Z"/>
    <path class="cls-3" d="m1762.18,487.88c-3.36,0-6.08-.96-8.16-2.88-2.08-1.92-3.12-4.32-3.12-7.2,0-3.2,1.04-5.76,3.12-7.68,2.08-1.92,4.8-2.88,8.16-2.88h55.44c3.36,0,6.08.96,8.16,2.88,2.08,1.92,3.12,4.48,3.12,7.68,0,2.88-1.04,5.28-3.12,7.2-2.08,1.92-4.8,2.88-8.16,2.88h-55.44Zm53.28,105.84c-8,0-15.2-2.04-21.6-6.12-6.4-4.08-11.44-9.64-15.12-16.68-3.68-7.04-5.52-14.96-5.52-23.76v-114.48c0-3.52,1.12-6.4,3.36-8.64,2.24-2.24,5.12-3.36,8.64-3.36s6.4,1.12,8.64,3.36c2.24,2.24,3.36,5.12,3.36,8.64v114.48c0,6.4,1.76,11.76,5.28,16.08,3.52,4.32,7.84,6.48,12.96,6.48h8.16c2.88,0,5.32,1.12,7.32,3.36,2,2.24,3,5.12,3,8.64s-1.32,6.4-3.96,8.64c-2.64,2.24-6.04,3.36-10.2,3.36h-4.32Z"/>
    <path class="cls-3" d="m1918.65,594.68c-11.68,0-22.16-2.92-31.44-8.76-9.28-5.84-16.6-13.76-21.96-23.76-5.36-10-8.04-21.32-8.04-33.96s2.92-24,8.76-34.08c5.84-10.08,13.76-18.04,23.76-23.88,10-5.84,21.24-8.76,33.72-8.76s23.68,2.92,33.6,8.76c9.92,5.84,17.8,13.8,23.64,23.88,5.84,10.08,8.76,21.44,8.76,34.08h-9.36c0,12.64-2.68,23.96-8.04,33.96-5.36,10-12.68,17.92-21.96,23.76-9.28,5.84-19.76,8.76-31.44,8.76Zm4.8-21.6c8.16,0,15.44-1.96,21.84-5.88,6.4-3.92,11.44-9.28,15.12-16.08,3.68-6.8,5.52-14.44,5.52-22.92s-1.84-16.36-5.52-23.16c-3.68-6.8-8.72-12.16-15.12-16.08-6.4-3.92-13.68-5.88-21.84-5.88s-15.24,1.96-21.72,5.88c-6.48,3.92-11.6,9.28-15.36,16.08-3.76,6.8-5.64,14.52-5.64,23.16s1.88,16.12,5.64,22.92c3.76,6.8,8.88,12.16,15.36,16.08,6.48,3.92,13.72,5.88,21.72,5.88Zm53.76,20.88c-3.52,0-6.44-1.16-8.76-3.48-2.32-2.32-3.48-5.24-3.48-8.76v-36.72l4.56-25.44,19.92,8.64v53.52c0,3.52-1.16,6.44-3.48,8.76s-5.24,3.48-8.76,3.48Z"/>
    <path class="cls-3" d="m2020.41,487.88c-3.36,0-6.08-.96-8.16-2.88-2.08-1.92-3.12-4.32-3.12-7.2,0-3.2,1.04-5.76,3.12-7.68,2.08-1.92,4.8-2.88,8.16-2.88h55.44c3.36,0,6.08.96,8.16,2.88,2.08,1.92,3.12,4.48,3.12,7.68,0,2.88-1.04,5.28-3.12,7.2-2.08,1.92-4.8,2.88-8.16,2.88h-55.44Zm53.28,105.84c-8,0-15.2-2.04-21.6-6.12-6.4-4.08-11.44-9.64-15.12-16.68-3.68-7.04-5.52-14.96-5.52-23.76v-114.48c0-3.52,1.12-6.4,3.36-8.64,2.24-2.24,5.12-3.36,8.64-3.36s6.4,1.12,8.64,3.36c2.24,2.24,3.36,5.12,3.36,8.64v114.48c0,6.4,1.76,11.76,5.28,16.08,3.52,4.32,7.84,6.48,12.96,6.48h8.16c2.88,0,5.32,1.12,7.32,3.36,2,2.24,3,5.12,3,8.64s-1.32,6.4-3.96,8.64c-2.64,2.24-6.04,3.36-10.2,3.36h-4.32Z"/>
    <path class="cls-3" d="m2136.81,441.08c-4.32,0-8.04-1.56-11.16-4.68s-4.68-6.84-4.68-11.16,1.56-8.04,4.68-11.16,6.84-4.68,11.16-4.68,8.04,1.56,11.16,4.68c3.12,3.12,4.68,6.84,4.68,11.16s-1.56,8.04-4.68,11.16c-3.12,3.12-6.84,4.68-11.16,4.68Zm0,152.64c-3.52,0-6.44-1.16-8.76-3.48-2.32-2.32-3.48-5.24-3.48-8.76v-106.8c0-3.68,1.16-6.64,3.48-8.88,2.32-2.24,5.24-3.36,8.76-3.36s6.64,1.12,8.88,3.36c2.24,2.24,3.36,5.2,3.36,8.88v106.8c0,3.52-1.12,6.44-3.36,8.76-2.24,2.32-5.2,3.48-8.88,3.48Z"/>
    <path class="cls-3" d="m2254.16,594.68c-12.96,0-24.4-2.84-34.32-8.52-9.92-5.68-17.72-13.52-23.4-23.52-5.68-10-8.52-21.48-8.52-34.44s2.84-24.68,8.52-34.68c5.68-10,13.48-17.84,23.4-23.52,9.92-5.68,21.36-8.52,34.32-8.52s24.16,2.84,34.08,8.52c9.92,5.68,17.72,13.52,23.4,23.52,5.68,10,8.52,21.56,8.52,34.68s-2.8,24.44-8.4,34.44c-5.6,10-13.36,17.84-23.28,23.52-9.92,5.68-21.36,8.52-34.32,8.52Zm0-21.6c8.32,0,15.68-1.92,22.08-5.76,6.4-3.84,11.4-9.12,15-15.84,3.6-6.72,5.4-14.48,5.4-23.28s-1.8-16.6-5.4-23.4c-3.6-6.8-8.6-12.12-15-15.96-6.4-3.84-13.76-5.76-22.08-5.76s-15.68,1.92-22.08,5.76c-6.4,3.84-11.44,9.16-15.12,15.96-3.68,6.8-5.52,14.6-5.52,23.4s1.84,16.56,5.52,23.28c3.68,6.72,8.72,12,15.12,15.84,6.4,3.84,13.76,5.76,22.08,5.76Z"/>
    <path class="cls-3" d="m2368.88,593.96c-3.52,0-6.44-1.16-8.76-3.48-2.32-2.32-3.48-5.24-3.48-8.76v-107.04c0-3.68,1.16-6.64,3.48-8.88,2.32-2.24,5.24-3.36,8.76-3.36s6.64,1.12,8.88,3.36c2.24,2.24,3.36,5.2,3.36,8.88v107.04c0,3.52-1.12,6.44-3.36,8.76-2.24,2.32-5.2,3.48-8.88,3.48Zm98.64,0c-3.52,0-6.44-1.16-8.76-3.48-2.32-2.32-3.48-5.24-3.48-8.76v-59.04c0-9.12-1.68-16.56-5.04-22.32-3.36-5.76-7.88-10.04-13.56-12.84-5.68-2.8-12.2-4.2-19.56-4.2-6.72,0-12.8,1.36-18.24,4.08-5.44,2.72-9.76,6.36-12.96,10.92-3.2,4.56-4.8,9.8-4.8,15.72h-15.12c0-10.08,2.44-19.08,7.32-27,4.88-7.92,11.56-14.2,20.04-18.84,8.48-4.64,18-6.96,28.56-6.96s20.92,2.36,29.64,7.08c8.72,4.72,15.6,11.64,20.64,20.76s7.56,20.32,7.56,33.6v59.04c0,3.52-1.16,6.44-3.48,8.76s-5.24,3.48-8.76,3.48Z"/>
  </g>
</svg>