<?xml version="1.0" encoding="UTF-8"?>
<svg id="Layer_1" data-name="Layer 1" xmlns="http://www.w3.org/2000/svg" xmlns:xlink="http://www.w3.org/1999/xlink" viewBox="0 0 1000 1000">
  <defs>
    <style>
      .cls-1 {
        fill: url(#linear-gradient-2);
      }

      .cls-2 {
        fill: url(#linear-gradient-6);
      }

      .cls-3 {
        fill: url(#linear-gradient-5);
      }

      .cls-4 {
        fill: none;
      }

      .cls-5 {
        fill: url(#linear-gradient-7);
      }

      .cls-6 {
        fill: url(#linear-gradient-3);
      }

      .cls-7 {
        fill: url(#linear-gradient);
      }

      .cls-8 {
        fill: url(#linear-gradient-4);
      }

      .cls-9 {
        fill: url(#linear-gradient-8);
      }
    </style>
    <linearGradient id="linear-gradient" x1="686.38" y1="725.56" x2="151.74" y2="416.88" gradientUnits="userSpaceOnUse">
      <stop offset="0" stop-color="#9491e2"/>
      <stop offset="1" stop-color="#aff2d8"/>
    </linearGradient>
    <linearGradient id="linear-gradient-2" x1="683.84" y1="566.32" x2="173.72" y2="271.8" xlink:href="#linear-gradient"/>
    <linearGradient id="linear-gradient-3" x1="826.28" y1="728.2" x2="316.16" y2="433.68" xlink:href="#linear-gradient"/>
    <linearGradient id="linear-gradient-4" x1="631.31" y1="468.07" x2="243.5" y2="244.17" xlink:href="#linear-gradient"/>
    <linearGradient id="linear-gradient-5" x1="848.26" y1="583.12" x2="313.62" y2="274.44" xlink:href="#linear-gradient"/>
    <linearGradient id="linear-gradient-6" x1="756.5" y1="755.83" x2="368.69" y2="531.93" xlink:href="#linear-gradient"/>
    <linearGradient id="linear-gradient-7" x1="621.78" y1="715.97" x2="90.46" y2="409.22" xlink:href="#linear-gradient"/>
    <linearGradient id="linear-gradient-8" x1="909.53" y1="590.78" x2="378.22" y2="284.03" gradientUnits="userSpaceOnUse">
      <stop offset="0" stop-color="#9491e2"/>
      <stop offset="1" stop-color="#aff2d8"/>
    </linearGradient>
  </defs>
  <path class="cls-7" d="m643.59,360.78c39.23,40.03,65.01,88.33,77.29,139.22,16.06,66.49,9.12,137.39-20.82,200.06-14.3,29.94-33.85,57.98-58.64,82.78-40.46,40.46-89.59,66.94-141.42,79.46-96.32,23.27-201.91-1.74-278.28-74.98-.6-.58-1.21-1.16-1.8-1.74-.93-.9-1.85-1.82-2.76-2.73s-1.82-1.83-2.73-2.76c-.58-.59-1.17-1.2-1.74-1.8-1.12-1.15-2.22-2.31-3.33-3.47-.13-.14-.25-.26-.38-.4-1.06-1.13-2.12-2.26-3.18-3.41-.03-.04-.06-.08-.1-.12-.91-.98-1.82-1.98-2.72-2.98-.08-.09-.16-.18-.24-.27-.22-.24-.44-.47-.65-.71-.13-.14-.26-.3-.4-.45-.43-.49-.87-.98-1.3-1.47-.19-.21-.38-.42-.57-.64-.63-.71-1.26-1.42-1.87-2.14-.02,0-.02-.02-.03-.02-.38-.43-.75-.86-1.12-1.3-.47-.54-.94-1.09-1.41-1.64-.03-.02-.06-.06-.06-.08-.58-.66-1.14-1.32-1.68-1.98-.54-.64-1.08-1.28-1.61-1.92-.22-.25-.42-.5-.62-.74-.86-1.05-1.73-2.1-2.58-3.16-19.72-24.38-36.63-51.14-50.25-79.76-.05-.07-.08-.14-.1-.21-.66-1.4-1.32-2.81-1.97-4.22-.03-.04-.05-.08-.06-.12-.65-1.4-1.28-2.82-1.91-4.22-.58-1.28-1.14-2.57-1.7-3.86-.08-.17-.15-.34-.22-.52-.14-.31-.28-.62-.41-.94-.21-.49-.42-.97-.62-1.46-.06-.13-.12-.26-.17-.39-.5-1.17-.98-2.34-1.46-3.51-.6-1.46-1.19-2.93-1.78-4.4,0,0,0-.02-.02-.03s0-.03-.02-.05c-.58-1.46-1.15-2.93-1.71-4.39-13.65-35.63-22.01-72.82-25.1-110.37-.11-1.45-.22-2.9-.33-4.35-.02-.2-.03-.39-.04-.59-.07-1-.14-2.01-.19-3.01-.07-.9-.12-1.81-.16-2.71-.04-.58-.07-1.18-.1-1.76-.06-.94-.1-1.89-.14-2.83-.04-.76-.07-1.53-.1-2.3-.04-1.12-.08-2.24-.11-3.36-.02-.31-.02-.62-.02-.94-.05-1.55-.08-3.11-.1-4.67,2.21,105.81,59.19,198.15,143.75,249.8,45.5,27.8,98.97,43.82,156.18,43.82,35.06,0,68.72-6.02,100-17.07,65.48-23.14,120.53-68.38,156.18-126.74,27.38-44.81,43.33-97.36,43.8-153.6.03-2.45.02-4.9-.04-7.34-.02-.78-.04-1.55-.07-2.33-.02-.79-.06-1.58-.1-2.36-.03-.78-.07-1.55-.12-2.33v-.03c-.05-.78-.1-1.57-.15-2.35-.16-2.37-.37-4.72-.62-7.06-.07-.78-.16-1.57-.26-2.35-1.87-16.02-5.65-31.46-11.09-46.09-.28-.74-.56-1.49-.85-2.23-.28-.74-.57-1.49-.87-2.23-.17-.43-.34-.86-.52-1.29-.18-.45-.36-.9-.55-1.34-.3-.74-.61-1.47-.93-2.21-.4-.94-.81-1.86-1.22-2.79-.23-.53-.47-1.06-.72-1.58-6.82-14.88-15.55-29.1-26.22-42.28-.49-.61-.98-1.22-1.5-1.82-.47-.58-.96-1.16-1.45-1.74l-.14-.17c-.48-.58-.97-1.14-1.47-1.7-.48-.56-.97-1.12-1.46-1.68-.61-.68-1.22-1.36-1.83-2.03-.48-.53-.96-1.04-1.44-1.56-.9-.98-1.82-1.94-2.75-2.9Z"/>
  <path class="cls-1" d="m493.62,100.06c-105.81,2.21-198.15,59.19-249.8,143.75-27.8,45.5-43.82,98.97-43.82,156.18,0,35.06,6.02,68.72,17.07,100,23.14,65.48,68.38,120.53,126.74,156.18,44.81,27.38,97.36,43.33,153.6,43.8,2.45.03,4.9.02,7.34-.04.78-.02,1.55-.04,2.33-.07.79-.02,1.58-.06,2.36-.1.75-.03,1.5-.07,2.24-.11.05,0,.1,0,.14,0,.78-.05,1.55-.1,2.33-.15,2.35-.16,4.69-.37,7.01-.62.04,0,.09-.02.13-.02.77-.07,1.52-.16,2.28-.26,14.38-1.68,28.3-4.9,41.58-9.48.76-.26,1.51-.52,2.26-.79.75-.26,1.5-.54,2.25-.82s1.49-.56,2.23-.85c.74-.28,1.49-.58,2.23-.87.34-.14.68-.27,1.02-.41.54-.22,1.08-.44,1.62-.66.74-.3,1.47-.61,2.21-.93.73-.31,1.46-.63,2.19-.96.73-.32,1.46-.65,2.18-.98,14.88-6.82,29.1-15.55,42.28-26.22.61-.49,1.22-.98,1.82-1.5.58-.47,1.16-.96,1.74-1.45l.17-.14c.58-.48,1.14-.97,1.7-1.47.56-.48,1.12-.97,1.68-1.46.68-.61,1.36-1.22,2.03-1.83.53-.48,1.04-.96,1.56-1.44.98-.9,1.94-1.82,2.9-2.75-40.03,39.23-88.33,65.01-139.22,77.29-66.49,16.06-137.39,9.12-200.06-20.82-29.94-14.3-57.98-33.85-82.78-58.64-40.46-40.46-66.94-89.59-79.46-141.42-23.27-96.31,1.73-201.9,74.98-278.28.58-.6,1.16-1.21,1.74-1.8.9-.93,1.82-1.85,2.73-2.76s1.83-1.82,2.76-2.73c.59-.58,1.2-1.17,1.8-1.74,1.15-1.12,2.31-2.22,3.47-3.33.14-.13.26-.25.4-.38.02,0,.04-.02.06-.04.94-.89,1.87-1.76,2.81-2.63.18-.17.36-.33.54-.5.02-.02.04-.04.06-.05.14-.14.3-.27.45-.42.08-.06.15-.14.23-.21.74-.68,1.48-1.36,2.23-2.03.13-.12.26-.24.4-.36.24-.22.47-.44.71-.65.14-.13.3-.26.45-.4.49-.43.98-.87,1.47-1.3.21-.19.42-.38.64-.57.71-.63,1.42-1.26,2.14-1.87,0-.02.02-.02.02-.03.04-.03.08-.07.13-.1.39-.34.78-.69,1.18-1.02.54-.47,1.09-.94,1.64-1.41.12-.11.25-.22.37-.31,0-.02.02-.02.02-.02.39-.34.78-.67,1.18-.99.17-.15.33-.29.5-.42.64-.54,1.28-1.08,1.92-1.61.25-.22.5-.42.74-.62,1.05-.86,2.1-1.73,3.16-2.58,24.38-19.72,51.14-36.63,79.76-50.25.07-.05.14-.08.21-.1,1.4-.66,2.81-1.31,4.22-1.97.04-.03.08-.05.12-.06,1.41-.65,2.81-1.28,4.22-1.91,1.28-.57,2.57-1.14,3.86-1.7.17-.08.34-.15.51-.22.1-.05.21-.09.31-.13.1-.05.2-.1.3-.13.93-.41,1.86-.81,2.8-1.19.58-.25,1.15-.49,1.74-.73.04-.02.08-.04.13-.05.73-.31,1.46-.62,2.19-.9.05-.02.1-.05.16-.06.68-.28,1.36-.56,2.05-.82.12-.06.24-.1.36-.14.23-.1.47-.2.7-.29.29-.12.58-.23.88-.34,1.18-.47,2.38-.93,3.56-1.38,1.49-.57,2.98-1.13,4.46-1.68s2.98-1.09,4.47-1.62h0c31.4-11.17,63.91-18.3,96.74-21.38,1.34-.13,2.69-.25,4.03-.36.3-.02.58-.05.87-.07,1.38-.11,2.76-.22,4.14-.31.2-.02.39-.03.59-.04,1-.07,2.01-.14,3.01-.19.9-.07,1.81-.12,2.71-.16.58-.04,1.18-.07,1.76-.1.94-.06,1.89-.1,2.83-.14.76-.04,1.53-.07,2.3-.1,1.12-.04,2.24-.08,3.36-.11.31-.02.62-.02.94-.02,1.55-.05,3.11-.08,4.67-.1Z"/>
  <path class="cls-6" d="m360.78,356.41c40.03-39.23,88.33-65.01,139.22-77.29,66.49-16.06,137.39-9.12,200.06,20.82,29.94,14.3,57.98,33.85,82.78,58.64,40.46,40.46,66.94,89.59,79.46,141.42,23.27,96.32-1.74,201.91-74.98,278.28-.58.6-1.16,1.21-1.74,1.8-.9.93-1.82,1.85-2.73,2.76s-1.83,1.82-2.76,2.73c-.59.58-1.2,1.17-1.8,1.74-1.15,1.12-2.31,2.22-3.47,3.33-.15.14-.3.29-.46.42-.94.89-1.87,1.76-2.81,2.63-.18.17-.37.34-.54.5-.02.02-.04.04-.06.05-.22.22-.46.42-.68.62-.74.68-1.49,1.36-2.23,2.03-.04.04-.08.08-.13.12-.48.43-.95.86-1.43,1.29-.49.43-.98.87-1.47,1.3-.92.82-1.85,1.64-2.78,2.44-.05.06-.1.1-.15.14-.96.84-1.93,1.66-2.9,2.49-.1.1-.21.18-.31.27-.39.34-.78.67-1.18.99-.17.15-.33.29-.5.42-.64.54-1.28,1.07-1.92,1.61-.25.22-.5.42-.74.62-1.05.86-2.1,1.73-3.16,2.58-24.39,19.72-51.14,36.64-79.77,50.26-.06.04-.13.07-.19.09-1.41.66-2.82,1.33-4.23,1.98-1.44.66-2.89,1.32-4.34,1.97-1.29.57-2.57,1.14-3.86,1.7-.17.08-.34.15-.51.22-.2.09-.41.18-.61.26-.94.41-1.87.8-2.81,1.19-.58.25-1.15.49-1.74.73-.04.02-.08.04-.13.05-.73.31-1.46.61-2.19.9-.05.02-.1.05-.16.06-.68.28-1.36.56-2.05.82-.12.06-.24.1-.36.14-.23.1-.46.2-.7.29-.29.12-.58.23-.88.34-1.18.47-2.37.94-3.56,1.38-1.49.57-2.97,1.13-4.46,1.68-1.49.55-2.98,1.1-4.47,1.62h0c-31.4,11.17-63.91,18.3-96.74,21.38-1.34.13-2.69.25-4.03.36-.29.02-.58.05-.87.07-1.38.11-2.76.22-4.14.31-.2.02-.39.03-.59.04-1,.07-2.01.14-3.01.19-.9.06-1.81.12-2.71.16-.58.04-1.18.07-1.76.1-.94.06-1.89.1-2.83.14-.76.04-1.53.07-2.3.1-1.12.04-2.24.08-3.36.11-.18,0-.38.02-.57.02-.12,0-.25.02-.38,0-1.55.05-3.11.08-4.67.1,105.8-2.21,198.14-59.19,249.8-143.75,27.8-45.5,43.82-98.97,43.82-156.18,0-35.06-6.02-68.72-17.07-100-23.14-65.48-68.38-120.53-126.74-156.18-44.81-27.38-97.36-43.33-153.6-43.8-2.45-.03-4.9-.02-7.34.04-.78.02-1.55.04-2.33.07-.79.02-1.58.06-2.36.1-.75.03-1.5.07-2.24.11-.05,0-.1,0-.14,0-.78.05-1.55.1-2.33.15-2.35.16-4.69.37-7.01.62-.04,0-.09.02-.13.02-.77.07-1.52.16-2.28.26-14.38,1.68-28.3,4.9-41.58,9.48-.76.26-1.51.52-2.26.79-.75.26-1.5.54-2.25.82s-1.49.56-2.23.85c-.74.28-1.49.58-2.23.87-.34.14-.68.27-1.02.41-.54.22-1.08.44-1.62.66-.74.3-1.47.61-2.21.93-.73.31-1.46.63-2.19.96-.73.32-1.46.65-2.18.98-14.88,6.82-29.1,15.55-42.28,26.22-.61.49-1.22.98-1.82,1.5-.58.47-1.16.96-1.74,1.45l-.17.14c-.58.48-1.14.97-1.7,1.47-.56.48-1.12.97-1.68,1.46-.68.61-1.36,1.22-2.03,1.83-.53.48-1.04.96-1.56,1.44-.98.9-1.94,1.82-2.9,2.75Z"/>
  <path class="cls-8" d="m671.59,138.58c28.62,13.62,55.38,30.54,79.77,50.26,1.06.86,2.11,1.72,3.16,2.58.25.2.5.4.74.62.64.54,1.28,1.06,1.92,1.61.17.13.33.26.5.42.39.32.78.66,1.18.99.1.08.21.18.31.27.97.82,1.94,1.65,2.9,2.49.06.04.1.09.15.14.94.8,1.86,1.62,2.78,2.44.5.43.98.87,1.47,1.3.48.42.95.86,1.43,1.29.05.04.09.08.13.12.75.67,1.49,1.35,2.23,2.03.23.21.46.42.68.62.02,0,.04.02.06.05.18.18.37.34.54.5.94.87,1.87,1.74,2.81,2.63.15.14.3.28.46.42,1.16,1.1,2.32,2.21,3.47,3.33-76.38-73.26-181.97-98.26-278.28-74.98-51.83,12.51-100.96,38.99-141.42,79.46-24.79,24.79-44.34,52.84-58.64,82.78-29.94,62.67-36.87,133.58-20.82,200.06,12.28,50.9,38.06,99.19,77.29,139.22.12.12.23.24.35.36.6.62,1.21,1.22,1.82,1.84.62.61,1.22,1.22,1.84,1.82,1.08,1.05,2.16,2.09,3.26,3.1.52.48,1.03.96,1.56,1.44.67.62,1.35,1.22,2.03,1.83.56.5,1.12.98,1.68,1.46.57.5,1.13.99,1.7,1.47l.17.14c.58.49,1.15.98,1.74,1.45.6.51,1.22,1.01,1.82,1.5,13.18,10.67,27.4,19.41,42.28,26.22.73.34,1.46.66,2.18.98.73.33,1.46.65,2.19.96.74.32,1.47.62,2.21.93.54.22,1.07.45,1.62.66.34.14.67.27,1.02.41.74.3,1.49.59,2.23.87.74.29,1.49.57,2.23.85s1.5.55,2.25.82c.74.27,1.5.54,2.26.79,13.28,4.58,27.2,7.8,41.58,9.48.76.1,1.51.18,2.28.26.04,0,.09,0,.13.02,2.32.25,4.66.46,7.01.62.78.06,1.55.1,2.33.15.05,0,.1,0,.14,0,.74.04,1.49.08,2.24.11.78.04,1.57.07,2.36.1.78.03,1.55.06,2.33.07.72.02,1.45.03,2.18.04-56.24-.47-108.79-16.42-153.6-43.8-58.37-35.66-103.6-90.7-126.74-156.18-11.06-31.28-17.07-64.94-17.07-100,0-57.22,16.02-110.69,43.82-156.18,51.65-84.56,143.99-141.54,249.8-143.75.71-.02,1.43-.02,2.15-.03.11,0,.23,0,.35,0,2.58-.02,5.18-.02,7.76,0,.12,0,.24,0,.35,0,.72,0,1.44.02,2.15.03,1.56.02,3.12.06,4.67.1.32,0,.63,0,.94.02,1.12.03,2.24.07,3.36.11.77.02,1.54.06,2.3.1.94.04,1.89.08,2.83.14.58.02,1.18.06,1.76.1.9.04,1.81.1,2.71.16,1,.06,2.01.12,3.01.19.2,0,.39.02.59.04,1.38.1,2.76.2,4.14.31.29.02.58.05.87.07,1.34.11,2.69.23,4.03.36,32.82,3.08,65.34,10.2,96.74,21.38h0c1.5.54,2.98,1.07,4.47,1.62s2.98,1.11,4.46,1.68c1.18.46,2.38.91,3.56,1.38.3.11.59.22.88.34.24.09.47.18.7.29.12.04.24.09.36.14.69.26,1.37.54,2.05.82.06.02.11.04.16.06.74.3,1.46.59,2.19.9.05,0,.09.03.13.05.58.24,1.16.48,1.74.73.94.39,1.87.78,2.81,1.19.21.08.41.17.61.26.18.07.34.14.51.22,1.29.56,2.57,1.13,3.86,1.7,1.45.65,2.9,1.3,4.34,1.97,1.42.65,2.82,1.31,4.23,1.98.06.02.13.05.19.09Z"/>
  <path class="cls-3" d="m300.02,497.42c-.03,2.45-.02,4.9.04,7.34.02.78.04,1.55.07,2.33.02.79.06,1.58.1,2.36.03.78.07,1.55.12,2.33v.03c.05.78.1,1.57.15,2.35.16,2.37.37,4.72.62,7.06.07.78.16,1.57.26,2.35,1.87,16.02,5.65,31.46,11.09,46.09.28.74.56,1.49.85,2.23.28.74.57,1.49.87,2.23.17.43.34.86.52,1.29.18.45.36.9.55,1.34.3.74.61,1.47.93,2.21.4.94.81,1.86,1.22,2.79.23.53.47,1.06.72,1.58,6.82,14.88,15.55,29.1,26.22,42.28.49.61.98,1.22,1.5,1.82.47.58.96,1.16,1.45,1.74l.14.17c.48.58.97,1.14,1.47,1.7.48.56.97,1.12,1.46,1.68.61.68,1.22,1.36,1.83,2.03.48.53.96,1.04,1.44,1.56.9.98,1.82,1.94,2.75,2.9-39.23-40.03-65.01-88.33-77.29-139.22-16.06-66.49-9.12-137.39,20.82-200.06,14.3-29.94,33.85-57.98,58.64-82.78,40.46-40.46,89.59-66.94,141.42-79.46,96.31-23.27,201.9,1.73,278.28,74.98.6.58,1.21,1.16,1.8,1.74.93.9,1.85,1.82,2.76,2.73s1.82,1.83,2.73,2.76c.58.59,1.17,1.2,1.74,1.8,1.12,1.15,2.22,2.31,3.33,3.47.13.14.25.26.38.4,1.06,1.13,2.12,2.26,3.18,3.41.03.03.06.07.1.12.91.98,1.82,1.98,2.72,2.98.43.48.86.95,1.29,1.43.43.49.87.98,1.3,1.47.82.92,1.64,1.85,2.44,2.78.05.05.1.1.14.15.84.96,1.66,1.93,2.49,2.9.58.66,1.14,1.32,1.68,1.98.54.64,1.08,1.28,1.61,1.92.22.25.42.5.62.74.86,1.05,1.73,2.1,2.58,3.16,19.72,24.39,36.64,51.14,50.26,79.77.04.06.07.13.09.19.67,1.41,1.33,2.82,1.98,4.23.66,1.44,1.32,2.89,1.97,4.34.63,1.42,1.26,2.83,1.86,4.25.06.11.1.22.14.34.38.86.74,1.71,1.1,2.58.5,1.17.98,2.34,1.46,3.51.6,1.46,1.19,2.93,1.78,4.4,0,.02.02.05.03.08.58,1.46,1.15,2.93,1.71,4.39,13.65,35.63,22.01,72.82,25.1,110.37.11,1.45.22,2.9.33,4.35.02.2.03.39.04.59.07,1,.14,2.01.19,3.01.07.9.12,1.81.16,2.71.04.58.07,1.18.1,1.76.06.94.1,1.89.14,2.83.04.76.07,1.53.1,2.3.04,1.12.08,2.24.11,3.36.02.31.02.62.02.94.05,1.55.08,3.11.1,4.67-2.21-105.8-59.19-198.14-143.75-249.8-45.5-27.8-98.97-43.82-156.18-43.82-35.06,0-68.72,6.02-100,17.07-65.48,23.14-120.53,68.38-156.18,126.74-27.38,44.81-43.33,97.36-43.8,153.6Z"/>
  <path class="cls-2" d="m221.72,787.31c76.37,73.25,181.96,98.26,278.28,74.98,51.83-12.51,100.96-38.99,141.42-79.46,24.79-24.79,44.34-52.84,58.64-82.78,29.94-62.67,36.87-133.58,20.82-200.06-12.28-50.9-38.06-99.19-77.29-139.22-.12-.12-.23-.24-.35-.36-.6-.62-1.21-1.22-1.82-1.84-.62-.61-1.22-1.22-1.84-1.82-1.08-1.05-2.16-2.09-3.26-3.1-.52-.48-1.03-.96-1.56-1.44-.67-.62-1.35-1.22-2.03-1.83-.56-.5-1.12-.98-1.68-1.46-.57-.5-1.13-.99-1.7-1.47l-.17-.14c-.58-.49-1.15-.98-1.74-1.45-.6-.51-1.22-1.01-1.82-1.5-13.18-10.67-27.4-19.41-42.28-26.22-.73-.34-1.46-.66-2.18-.98-.73-.33-1.46-.65-2.19-.96-.74-.32-1.47-.62-2.21-.93-.54-.22-1.07-.45-1.62-.66-.34-.14-.67-.27-1.02-.41-.74-.3-1.49-.59-2.23-.87-.74-.29-1.49-.57-2.23-.85s-1.5-.55-2.25-.82c-.74-.27-1.5-.54-2.26-.79-13.28-4.58-27.2-7.8-41.58-9.48-.76-.1-1.51-.18-2.28-.26-.04,0-.09,0-.13-.02-2.32-.25-4.66-.46-7.01-.62-.78-.06-1.55-.1-2.33-.15-.05,0-.1,0-.14,0-.74-.04-1.49-.08-2.24-.11-.78-.04-1.57-.07-2.36-.1-.78-.03-1.55-.06-2.33-.07-.72-.02-1.45-.03-2.18-.04,56.24.47,108.79,16.42,153.6,43.8,58.37,35.66,103.6,90.7,126.74,156.18,11.06,31.28,17.07,64.94,17.07,100,0,57.22-16.02,110.69-43.82,156.18-51.66,84.56-144,141.54-249.8,143.75-.71.02-1.43.02-2.15.03-.11,0-.23,0-.35,0-2.58.02-5.18.02-7.76,0-.12,0-.24,0-.35,0-.72,0-1.44-.02-2.15-.03-1.56-.02-3.12-.06-4.67-.1-.32,0-.63,0-.94-.02-1.12-.03-2.24-.07-3.36-.11-.77-.02-1.54-.06-2.3-.1-.94-.04-1.89-.08-2.83-.14-.58-.02-1.18-.06-1.76-.1-.9-.04-1.81-.1-2.71-.16-1-.06-2.01-.12-3.01-.19-.2,0-.39-.02-.59-.04-1.38-.1-2.76-.2-4.14-.31-.29-.02-.58-.05-.87-.07-1.34-.11-2.69-.23-4.03-.36-32.82-3.08-65.34-10.21-96.74-21.38h0c-1.49-.53-2.98-1.07-4.47-1.62-1.5-.55-2.98-1.11-4.46-1.68-1.19-.45-2.38-.91-3.56-1.38-.3-.1-.58-.22-.88-.34-.23-.09-.47-.18-.7-.29-.12-.04-.24-.09-.36-.14-.69-.26-1.37-.54-2.05-.82-.06-.02-.11-.04-.16-.06-.73-.29-1.46-.59-2.19-.9-.05,0-.09-.02-.13-.05-.58-.24-1.16-.48-1.74-.73-.94-.38-1.87-.78-2.8-1.19-.1-.04-.2-.08-.3-.13-.1-.04-.21-.08-.31-.13-.18-.07-.34-.14-.51-.22-1.29-.56-2.58-1.13-3.86-1.7-1.42-.63-2.82-1.26-4.22-1.91-.04,0-.08-.02-.12-.06-1.41-.66-2.82-1.31-4.22-1.97-.06-.02-.14-.06-.21-.1-28.62-13.62-55.38-30.53-79.76-50.25-1.06-.86-2.11-1.72-3.16-2.58-.25-.19-.5-.4-.74-.62-.64-.54-1.28-1.06-1.92-1.61-.17-.13-.33-.26-.5-.42-.39-.32-.78-.66-1.18-.99,0,0-.02,0-.02-.02-.12-.1-.25-.21-.37-.31-.55-.46-1.1-.94-1.64-1.41-.39-.33-.78-.67-1.18-1.02-.04-.03-.09-.07-.13-.1,0,0-.02-.02-.02-.03-.72-.62-1.43-1.24-2.14-1.87-.22-.18-.43-.38-.64-.57-.5-.43-.98-.87-1.47-1.3-.15-.14-.3-.27-.45-.4-.14-.12-.27-.24-.41-.38-.1-.08-.21-.17-.3-.27-.14-.12-.27-.24-.4-.36-.74-.67-1.49-1.35-2.23-2.03-.08-.07-.15-.14-.23-.21-.15-.14-.3-.27-.45-.42-.02,0-.04-.02-.06-.05-.18-.18-.37-.34-.54-.5-.94-.87-1.87-1.74-2.81-2.63-.02-.02-.04-.03-.06-.04-.14-.14-.26-.26-.4-.38-1.16-1.1-2.32-2.21-3.47-3.33Z"/>
  <path class="cls-5" d="m699.98,502.58c-.47,56.24-16.42,108.79-43.8,153.6-35.66,58.37-90.7,103.6-156.18,126.74-31.28,11.06-64.94,17.07-100,17.07-57.22,0-110.69-16.02-156.18-43.82-84.56-51.65-141.54-143.99-143.75-249.8-.02-.71-.02-1.43-.03-2.15,0-.11,0-.23,0-.35-.02-2.58-.02-5.18,0-7.76,0-.12,0-.24,0-.35,0-.72.02-1.44.03-2.15.02-1.56.06-3.12.1-4.67,0-.32,0-.63.02-.94.03-1.12.07-2.24.11-3.36.02-.77.06-1.54.1-2.3.04-.94.08-1.89.14-2.83.02-.58.06-1.18.1-1.76.04-.9.09-1.81.16-2.71.06-1,.12-2.01.19-3.01,0-.2.02-.39.04-.59.1-1.45.22-2.9.33-4.35,3.09-37.54,11.45-74.74,25.1-110.37.56-1.46,1.13-2.93,1.71-4.39,0-.03.02-.06.03-.08.58-1.47,1.18-2.94,1.78-4.4.48-1.18.97-2.34,1.46-3.51.36-.86.73-1.72,1.1-2.58.04-.12.09-.23.14-.34.61-1.42,1.23-2.83,1.86-4.25.65-1.45,1.3-2.9,1.97-4.34.65-1.42,1.3-2.82,1.98-4.23.02-.06.05-.13.09-.19,13.62-28.62,30.54-55.38,50.26-79.77.86-1.06,1.72-2.11,2.58-3.16.13-.16.26-.33.4-.49.06-.09.14-.18.22-.26.53-.64,1.06-1.28,1.61-1.92.54-.66,1.1-1.33,1.68-1.98.82-.97,1.65-1.94,2.49-2.9.04-.06.09-.1.14-.15.8-.94,1.62-1.86,2.44-2.78.43-.5.87-.98,1.3-1.47.42-.48.86-.95,1.29-1.43.9-1,1.81-1.99,2.72-2.98.04-.05.07-.09.1-.12,1.06-1.14,2.12-2.28,3.18-3.41.14-.14.26-.26.38-.4,1.1-1.16,2.21-2.32,3.33-3.47-73.26,76.38-98.26,181.97-74.98,278.28,12.51,51.83,38.99,100.96,79.46,141.42,24.79,24.79,52.84,44.34,82.78,58.64,62.67,29.94,133.58,36.87,200.06,20.82,50.9-12.28,99.19-38.06,139.22-77.29.12-.12.24-.23.36-.35.62-.6,1.22-1.21,1.84-1.82.61-.62,1.22-1.22,1.82-1.84,1.05-1.08,2.09-2.16,3.1-3.26.48-.52.96-1.03,1.44-1.56.62-.67,1.22-1.35,1.83-2.03.5-.56.98-1.12,1.46-1.68.5-.57.99-1.13,1.47-1.7l.14-.17c.49-.58.98-1.15,1.45-1.74.51-.6,1.01-1.22,1.5-1.82,10.67-13.18,19.41-27.4,26.22-42.28.25-.53.49-1.06.72-1.58.42-.93.82-1.86,1.22-2.79.32-.74.62-1.47.93-2.21.19-.45.38-.9.55-1.34.18-.43.35-.86.52-1.29.3-.74.59-1.49.87-2.23.29-.74.57-1.49.85-2.23,5.44-14.63,9.22-30.07,11.09-46.09.1-.78.19-1.57.26-2.35.26-2.34.46-4.7.62-7.06.06-.78.1-1.57.15-2.35v-.03c.05-.78.09-1.55.12-2.33.04-.78.07-1.57.1-2.36.03-.78.06-1.55.07-2.33.02-.72.03-1.45.04-2.18Z"/>
  <path class="cls-9" d="m300.02,497.42c.47-56.24,16.42-108.79,43.8-153.6,35.66-58.37,90.7-103.6,156.18-126.74,31.28-11.06,64.94-17.07,100-17.07,57.22,0,110.69,16.02,156.18,43.82,84.56,51.66,141.54,144,143.75,249.8.02.71.02,1.43.03,2.15,0,.11,0,.23,0,.35.02,2.58.02,5.18,0,7.76,0,.12,0,.24,0,.35,0,.72-.02,1.44-.03,2.15-.02,1.56-.06,3.12-.1,4.67,0,.32,0,.63-.02.94-.03,1.12-.07,2.24-.11,3.36-.02.77-.06,1.54-.1,2.3-.04.94-.08,1.89-.14,2.83-.02.58-.06,1.18-.1,1.76-.04.9-.09,1.81-.16,2.71-.06,1-.12,2.01-.19,3.01,0,.2-.02.39-.04.59-.1,1.45-.22,2.9-.33,4.35-3.09,37.54-11.45,74.74-25.1,110.37-.56,1.46-1.13,2.93-1.71,4.39,0,.02,0,.03-.02.05s0,.02-.02.03c-.58,1.47-1.18,2.94-1.78,4.4-.48,1.18-.97,2.34-1.46,3.51-.05.13-.1.26-.17.39-.2.49-.41.97-.62,1.46-.14.32-.27.63-.41.94-.07.18-.14.35-.22.52-.56,1.29-1.12,2.58-1.7,3.86-.63,1.41-1.26,2.82-1.91,4.22,0,.04-.03.08-.06.12-.65,1.41-1.3,2.82-1.97,4.22-.02.07-.06.14-.1.21-13.62,28.62-30.53,55.38-50.25,79.76-.86,1.06-1.72,2.11-2.58,3.16-.2.25-.4.5-.62.74l-1.61,1.92c-.54.66-1.1,1.33-1.68,1.98,0,.02-.03.06-.06.08-.46.55-.94,1.1-1.41,1.64-.37.44-.74.87-1.12,1.3,0,0-.02.02-.03.02-.62.72-1.24,1.43-1.87,2.14-.18.22-.38.43-.57.64-.43.5-.87.98-1.3,1.47-.14.15-.27.3-.4.45-.21.24-.42.47-.65.71-.08.1-.16.18-.24.27-.9,1-1.81,1.99-2.72,2.98-.04.05-.07.09-.1.12-1.06,1.14-2.12,2.28-3.18,3.41-.14.14-.26.26-.38.4-1.1,1.16-2.21,2.32-3.33,3.47,73.25-76.37,98.26-181.96,74.98-278.28-12.51-51.83-38.99-100.96-79.46-141.42-24.79-24.79-52.84-44.34-82.78-58.64-62.67-29.94-133.58-36.87-200.06-20.82-50.9,12.28-99.19,38.06-139.22,77.29-.12.12-.24.23-.36.35-.62.6-1.22,1.21-1.84,1.82-.61.62-1.22,1.22-1.82,1.84-1.05,1.08-2.09,2.16-3.1,3.26-.48.52-.96,1.03-1.44,1.56-.62.67-1.22,1.35-1.83,2.03-.5.56-.98,1.12-1.46,1.68-.5.57-.99,1.13-1.47,1.7l-.14.17c-.49.58-.98,1.15-1.45,1.74-.51.6-1.01,1.22-1.5,1.82-10.67,13.18-19.41,27.4-26.22,42.28-.25.53-.49,1.06-.72,1.58-.42.93-.82,1.86-1.22,2.79-.32.74-.62,1.47-.93,2.21-.19.45-.38.9-.55,1.34-.18.43-.35.86-.52,1.29-.3.74-.59,1.49-.87,2.23-.29.74-.57,1.49-.85,2.23-5.44,14.63-9.22,30.07-11.09,46.09-.1.78-.19,1.57-.26,2.35-.26,2.34-.46,4.7-.62,7.06-.06.78-.1,1.57-.15,2.35v.03c-.05.78-.09,1.55-.12,2.33-.04.78-.07,1.57-.1,2.36-.03.78-.06,1.55-.07,2.33-.02.72-.03,1.45-.04,2.18Z"/>
  <path class="cls-4" d="m127.18,645.19c-.58-1.49-1.15-2.98-1.71-4.47"/>
  <path class="cls-4" d="m128.94,649.64c-.26-.64-.51-1.28-.76-1.92-.34-.84-.67-1.68-1-2.52"/>
  <path class="cls-4" d="m132.62,658.46c-.14-.31-.27-.62-.41-.94"/>
  <path class="cls-4" d="m138.48,671.39c-.64-1.34-1.27-2.7-1.9-4.06"/>
  <path class="cls-4" d="m199.82,764.36c-.48-.54-.95-1.07-1.42-1.61-.17-.19-.33-.38-.49-.56"/>
  <path class="cls-4" d="m227.31,792.65c-.56-.53-1.11-1.05-1.66-1.58"/>
  <path class="cls-4" d="m229.06,794.25s-.04-.02-.06-.05"/>
  <path class="cls-4" d="m233.08,797.91c-.14-.12-.27-.24-.41-.38"/>
  <path class="cls-4" d="m237.78,802.06c-.72-.62-1.43-1.24-2.14-1.87"/>
  <path class="cls-4" d="m240.75,804.62c-.55-.46-1.1-.94-1.64-1.41"/>
  <path class="cls-4" d="m332.82,863.49c-1.41-.66-2.82-1.31-4.22-1.97"/>
  <path class="cls-4" d="m792.65,772.69c-.54.58-1.08,1.14-1.62,1.72"/>
  <path class="cls-4" d="m802.09,762.19c-.16.18-.32.37-.49.56-.46.54-.94,1.07-1.42,1.61"/>
  <path class="cls-4" d="m863.42,667.34c-.62,1.36-1.26,2.71-1.9,4.06"/>
  <path class="cls-4" d="m867.78,657.51c-.14.32-.26.63-.41.94"/>
  <path class="cls-4" d="m872.82,645.2c-.33.84-.66,1.68-1,2.52-.25.64-.5,1.28-.76,1.92"/>
  <path class="cls-4" d="m874.54,640.72c-.56,1.5-1.13,2.98-1.71,4.47"/>
  <path class="cls-4" d="m328.61,138.48c1.4-.66,2.81-1.31,4.22-1.97"/>
  <path class="cls-4" d="m239.11,196.79c.54-.47,1.09-.94,1.64-1.41"/>
  <path class="cls-4" d="m235.64,199.82c.71-.63,1.42-1.26,2.14-1.87"/>
  <path class="cls-4" d="m232.37,202.74c.24-.22.47-.44.71-.65"/>
  <path class="cls-4" d="m229,205.8s.04-.04.06-.05"/>
  <path class="cls-4" d="m225.65,208.94c.55-.54,1.1-1.06,1.66-1.58"/>
  <path class="cls-4" d="m699.98,502.58c-.47,56.24-16.42,108.79-43.8,153.6-35.66,58.37-90.7,103.6-156.18,126.74-31.28,11.06-64.94,17.07-100,17.07-57.22,0-110.69-16.02-156.18-43.82-84.56-51.65-141.54-143.99-143.75-249.8"/>
  <path class="cls-4" d="m899.94,493.62c-2.21-105.8-59.19-198.14-143.75-249.8-45.5-27.8-98.97-43.82-156.18-43.82-35.06,0-68.72,6.02-100,17.07-65.48,23.14-120.53,68.38-156.18,126.74-27.38,44.81-43.33,97.36-43.8,153.6"/>
  <path class="cls-4" d="m229,794.2c-.18-.18-.37-.34-.54-.5"/>
  <path class="cls-4" d="m239.11,803.21c-.39-.33-.78-.67-1.18-1.02"/>
  <path class="cls-4" d="m242.32,805.94c-.39-.32-.78-.66-1.18-.99"/>
  <path class="cls-4" d="m341.54,867.38c-.18-.07-.34-.14-.51-.22"/>
  <path class="cls-4" d="m343.43,868.19c-.43-.18-.86-.37-1.28-.56"/>
  <path class="cls-4" d="m346.69,869.55c-.58-.24-1.16-.48-1.74-.73"/>
  <path class="cls-4" d="m352.27,871.82l-.7-.29"/>
  <path class="cls-4" d="m648.42,871.54l-.7.29"/>
  <path class="cls-4" d="m655.05,868.82c-.58.25-1.15.49-1.74.73"/>
  <path class="cls-4" d="m658.98,867.15c-.17.08-.34.15-.51.22"/>
  <path class="cls-4" d="m758.86,804.95c-.39.34-.78.67-1.18.99"/>
  <path class="cls-4" d="m759.7,804.23c-.18.15-.36.3-.54.45"/>
  <path class="cls-4" d="m770.26,205.13c.22.21.45.42.68.62"/>
  <path class="cls-4" d="m758.86,195.05c.28.23.56.47.85.72"/>
  <path class="cls-4" d="m647.73,128.18c.35.14.7.28,1.06.43"/>
  <path class="cls-4" d="m646.84,127.83c.3.11.58.22.88.34"/>
  <path class="cls-4" d="m352.28,128.18c.3-.12.58-.23.88-.34"/>
  <path class="cls-4" d="m351.22,128.61c.35-.15.7-.29,1.06-.43"/>
  <path class="cls-4" d="m341.85,132.5c.53-.23,1.06-.46,1.58-.69"/>
  <path class="cls-4" d="m240.75,195.38c.12-.11.25-.22.37-.31"/>
  <path class="cls-4" d="m229.06,205.75c.15-.14.3-.28.45-.42"/>
  <path class="cls-4" d="m639.22,643.59c-40.03,39.23-88.33,65.01-139.22,77.29-66.49,16.06-137.39,9.12-200.06-20.82-29.94-14.3-57.98-33.85-82.78-58.64-40.46-40.46-66.94-89.59-79.46-141.42-23.27-96.31,1.73-201.9,74.98-278.28"/>
  <path class="cls-4" d="m787.31,778.28c73.25-76.37,98.26-181.96,74.98-278.28-12.51-51.83-38.99-100.96-79.46-141.42-24.79-24.79-52.84-44.34-82.78-58.64-62.67-29.94-133.58-36.87-200.06-20.82-50.9,12.28-99.19,38.06-139.22,77.29"/>
  <path class="cls-4" d="m506.38,899.94c-.71.02-1.43.02-2.15.03"/>
  <path class="cls-4" d="m511.69,300.34c-.74-.04-1.49-.08-2.24-.11-.78-.04-1.57-.07-2.36-.1-.78-.03-1.55-.06-2.33-.07"/>
  <path class="cls-4" d="m521.17,301.11c-2.32-.25-4.66-.46-7.01-.62-.78-.06-1.55-.1-2.33-.15"/>
  <path class="cls-4" d="m569.66,312.47c-.74-.28-1.5-.55-2.25-.82-.74-.27-1.5-.54-2.26-.79-13.28-4.58-27.2-7.8-41.58-9.48-.76-.1-1.51-.18-2.28-.26"/>
  <path class="cls-4" d="m574.13,314.19c-.74-.3-1.49-.59-2.23-.87"/>
  <path class="cls-4" d="m578.97,316.19c-.74-.31-1.47-.62-2.21-.93-.54-.22-1.07-.45-1.62-.66"/>
  <path class="cls-4" d="m629.18,347.3c-.58-.48-1.15-.96-1.74-1.45-.61-.5-1.22-1-1.82-1.5-12.87-10.4-27.06-19.23-42.28-26.22-.73-.33-1.46-.66-2.18-.98"/>
  <path class="cls-4" d="m632.74,350.38c-.56-.49-1.12-.98-1.68-1.46-.57-.5-1.14-.98-1.7-1.47"/>
  <path class="cls-4" d="m636.33,353.66c-.52-.48-1.04-.96-1.56-1.44"/>
  <path class="cls-4" d="m647.78,365.23l-1.44-1.56"/>
  <path class="cls-4" d="m652.55,370.65c-.49-.57-.98-1.14-1.47-1.7-.49-.56-.98-1.12-1.46-1.68"/>
  <path class="cls-4" d="m682.58,418.24l-.72-1.58c-6.99-15.22-15.82-29.41-26.22-42.28-.5-.61-1-1.22-1.5-1.82-.49-.58-.97-1.16-1.45-1.74"/>
  <path class="cls-4" d="m686.68,428.1c-.28-.74-.57-1.49-.87-2.23-.17-.43-.34-.86-.52-1.29-.18-.45-.36-.9-.55-1.34-.3-.74-.62-1.48-.93-2.21"/>
  <path class="cls-4" d="m699.66,488.19c-.05-.78-.1-1.57-.15-2.35-.16-2.37-.37-4.72-.62-7.06-.07-.78-.16-1.57-.26-2.35-1.87-16.02-5.65-31.46-11.09-46.09"/>
  <path class="cls-4" d="m699.94,495.24c-.02-.78-.04-1.55-.07-2.33-.02-.79-.06-1.58-.1-2.36-.03-.78-.07-1.55-.12-2.33"/>
  <path class="cls-4" d="m699.66,511.78c.05-.78.09-1.55.12-2.33.04-.78.07-1.57.1-2.36.03-.78.06-1.55.07-2.33"/>
  <path class="cls-4" d="m687.53,569.66c5.44-14.63,9.22-30.07,11.09-46.09.1-.78.19-1.57.26-2.35.26-2.34.46-4.7.62-7.06.06-.78.1-1.57.15-2.35"/>
  <path class="cls-4" d="m683.81,578.97c.31-.73.62-1.46.93-2.21.19-.45.38-.9.55-1.34.18-.43.35-.86.52-1.29.3-.74.59-1.49.87-2.23"/>
  <path class="cls-4" d="m652.7,629.18c.48-.58.96-1.15,1.45-1.74.5-.6,1-1.22,1.5-1.82,10.4-12.87,19.23-27.06,26.22-42.28.24-.53.48-1.06.72-1.58"/>
  <path class="cls-4" d="m649.62,632.74c.49-.56.98-1.12,1.46-1.68.5-.57.98-1.14,1.47-1.7"/>
  <path class="cls-4" d="m646.34,636.33l1.44-1.56"/>
  <path class="cls-4" d="m634.77,647.78c.52-.48,1.04-.96,1.56-1.44"/>
  <path class="cls-4" d="m629.35,652.55c.57-.49,1.14-.98,1.7-1.47.56-.49,1.12-.98,1.68-1.46"/>
  <path class="cls-4" d="m581.16,682.85l2.18-.98c15.22-6.99,29.4-15.82,42.28-26.22.61-.5,1.22-1,1.82-1.5.58-.49,1.16-.97,1.74-1.45"/>
  <path class="cls-4" d="m575.14,685.4c.54-.22,1.08-.44,1.62-.66.74-.3,1.47-.62,2.21-.93"/>
  <path class="cls-4" d="m571.9,686.68c.74-.28,1.49-.58,2.23-.87"/>
  <path class="cls-4" d="m521.3,698.87c.77-.07,1.52-.16,2.28-.26,14.38-1.68,28.3-4.9,41.58-9.48.76-.26,1.51-.52,2.26-.79.75-.26,1.5-.54,2.25-.82"/>
  <path class="cls-4" d="m511.83,699.66c.78-.05,1.55-.1,2.33-.15,2.35-.16,4.69-.37,7.01-.62"/>
  <path class="cls-4" d="m504.76,699.94c.78-.02,1.55-.04,2.33-.07.79-.02,1.58-.06,2.36-.1.75-.03,1.5-.07,2.24-.11"/>
  <path class="cls-4" d="m488.94,100.17c1.55-.05,3.11-.08,4.67-.1"/>
  <path class="cls-4" d="m472.03,100.98c1-.08,2-.14,3.01-.19.9-.07,1.81-.12,2.71-.16.58-.04,1.17-.07,1.76-.1.94-.06,1.89-.1,2.83-.14.76-.04,1.53-.06,2.3-.1,1.12-.04,2.24-.08,3.36-.11"/>
  <path class="cls-4" d="m467.3,101.34c1.38-.12,2.75-.22,4.14-.31"/>
  <path class="cls-4" d="m365.66,123.14c30.69-10.96,63.1-18.26,96.74-21.38,1.34-.14,2.68-.26,4.03-.36"/>
  <path class="cls-4" d="m353.16,127.83c1.18-.47,2.37-.94,3.56-1.38,1.48-.58,2.97-1.14,4.46-1.68,1.49-.56,2.98-1.1,4.47-1.62"/>
  <path class="cls-4" d="m351.58,128.46c.23-.1.47-.2.7-.29"/>
  <path class="cls-4" d="m349.17,129.43c.68-.29,1.37-.56,2.05-.82"/>
  <path class="cls-4" d="m346.82,130.4c.73-.31,1.46-.62,2.19-.9"/>
  <path class="cls-4" d="m342.15,132.37c.93-.41,1.86-.81,2.8-1.19.58-.25,1.15-.5,1.74-.73"/>
  <path class="cls-4" d="m332.94,136.46c1.41-.65,2.81-1.28,4.22-1.91,1.28-.57,2.57-1.14,3.86-1.7.17-.07.34-.15.51-.22"/>
  <path class="cls-4" d="m328.61,138.48c1.34-.63,2.7-1.26,4.06-1.9"/>
  <path class="cls-4" d="m245.48,191.42c1.05-.86,2.1-1.73,3.16-2.58,24.38-19.72,51.14-36.63,79.76-50.25"/>
  <path class="cls-4" d="m242.82,193.64c.64-.54,1.28-1.08,1.92-1.61"/>
  <path class="cls-4" d="m241.14,195.05c.39-.33.78-.66,1.18-.99"/>
  <path class="cls-4" d="m237.94,197.81c.39-.34.78-.68,1.18-1.02.39-.34.78-.68,1.18-1.02"/>
  <path class="cls-4" d="m237.37,198.3c.15-.13.3-.26.44-.38"/>
  <path class="cls-4" d="m235.64,199.82c.54-.48,1.07-.95,1.61-1.42"/>
  <path class="cls-4" d="m233.53,201.69c.49-.44.98-.88,1.47-1.3"/>
  <path class="cls-4" d="m229.74,205.13c.74-.69,1.48-1.37,2.23-2.03"/>
  <path class="cls-4" d="m225.59,208.98c.58-.54,1.14-1.09,1.72-1.62.38-.35.76-.7,1.14-1.05.18-.17.36-.34.54-.5"/>
  <path class="cls-4" d="m221.72,212.69c1.15-1.13,2.31-2.24,3.47-3.33"/>
  <path class="cls-4" d="m214.43,219.92c.9-.93,1.82-1.85,2.73-2.76s1.83-1.82,2.76-2.73"/>
  <path class="cls-4" d="m209.36,225.19c1.09-1.17,2.2-2.32,3.33-3.47"/>
  <path class="cls-4" d="m205.8,229c1.05-1.14,2.1-2.28,3.18-3.41"/>
  <path class="cls-4" d="m197.94,237.78c.8-.94,1.62-1.86,2.44-2.78.42-.49.86-.98,1.3-1.47.42-.48.86-.95,1.29-1.43.9-.99,1.8-1.98,2.72-2.98"/>
  <path class="cls-4" d="m191.82,244.99c.07-.08.14-.17.22-.26.53-.64,1.06-1.28,1.61-1.92.55-.66,1.11-1.33,1.68-1.98.82-.97,1.65-1.94,2.49-2.9"/>
  <path class="cls-4" d="m138.58,328.41c13.62-28.62,30.54-55.38,50.26-79.77.86-1.06,1.72-2.11,2.58-3.16"/>
  <path class="cls-4" d="m132.68,341.42c.61-1.42,1.23-2.83,1.86-4.25.65-1.45,1.3-2.9,1.97-4.34.65-1.42,1.3-2.82,1.98-4.23"/>
  <path class="cls-4" d="m128.19,352.25c.58-1.47,1.17-2.94,1.78-4.4.48-1.18.97-2.34,1.46-3.51.36-.86.73-1.72,1.1-2.58"/>
  <path class="cls-4" d="m101.02,471.44c.1-1.46.21-2.9.33-4.35,3.14-38.6,11.76-75.65,25.1-110.37.55-1.47,1.12-2.94,1.71-4.39"/>
  <path class="cls-4" d="m100.19,488c.03-1.12.07-2.24.11-3.36.02-.77.06-1.54.1-2.3.04-.94.08-1.89.14-2.83.02-.59.06-1.18.1-1.76.04-.9.09-1.81.16-2.71.05-1.01.11-2.01.19-3.01"/>
  <path class="cls-4" d="m100.03,495.77c0-.72.02-1.44.03-2.15.02-1.56.06-3.12.1-4.67"/>
  <path class="cls-4" d="m100.02,503.88c-.02-1.3-.02-2.58-.02-3.88s0-2.58.02-3.88"/>
  <path class="cls-4" d="m100.17,511.06c-.05-1.55-.08-3.11-.1-4.67-.02-.71-.02-1.43-.03-2.15"/>
  <path class="cls-4" d="m100.98,527.97c-.08-1-.14-2-.19-3.01-.07-.9-.12-1.81-.16-2.71-.04-.58-.07-1.17-.1-1.76-.06-.94-.1-1.89-.14-2.83-.04-.76-.07-1.53-.1-2.3-.04-1.12-.08-2.24-.11-3.36"/>
  <path class="cls-4" d="m128.16,647.67c-.34-.82-.66-1.65-.98-2.47h0c-.25-.65-.5-1.28-.73-1.92-.34-.86-.66-1.7-.98-2.56-12.77-33.98-21.05-70.15-24.11-107.81-.12-1.45-.23-2.9-.33-4.35"/>
  <path class="cls-4" d="m131.43,655.66c-.5-1.17-.98-2.34-1.46-3.51-.34-.83-.69-1.67-1.03-2.51-.25-.62-.5-1.26-.74-1.89"/>
  <path class="cls-4" d="m132.22,657.51c-.21-.49-.42-.97-.62-1.46"/>
  <path class="cls-4" d="m136.46,667.06c-.65-1.4-1.28-2.82-1.91-4.22-.58-1.28-1.14-2.57-1.7-3.86"/>
  <path class="cls-4" d="m138.48,671.39c-.66-1.4-1.32-2.81-1.97-4.22"/>
  <path class="cls-4" d="m191.42,754.52c-.86-1.05-1.73-2.1-2.58-3.16-19.72-24.38-36.63-51.14-50.25-79.76"/>
  <path class="cls-4" d="m195.32,759.17c-.57-.66-1.13-1.32-1.68-1.98-.54-.64-1.08-1.28-1.61-1.92"/>
  <path class="cls-4" d="m196.79,760.89c-.47-.54-.94-1.09-1.41-1.64"/>
  <path class="cls-4" d="m199.82,764.36c-.63-.71-1.26-1.42-1.87-2.14"/>
  <path class="cls-4" d="m201.69,766.47c-.44-.49-.88-.98-1.3-1.47"/>
  <path class="cls-4" d="m202.74,767.63c-.22-.24-.44-.47-.65-.71"/>
  <path class="cls-4" d="m205.7,770.88c-.92-.98-1.82-1.98-2.72-2.98"/>
  <path class="cls-4" d="m208.98,774.41c-1.07-1.14-2.13-2.27-3.18-3.41"/>
  <path class="cls-4" d="m212.69,778.28c-1.13-1.15-2.24-2.3-3.33-3.47"/>
  <path class="cls-4" d="m219.92,785.57c-.93-.9-1.85-1.82-2.76-2.73s-1.82-1.83-2.73-2.76"/>
  <path class="cls-4" d="m225.19,790.64c-1.16-1.09-2.32-2.2-3.47-3.33"/>
  <path class="cls-4" d="m228.46,793.7c-.38-.34-.76-.7-1.14-1.05-.58-.54-1.14-1.08-1.72-1.62"/>
  <path class="cls-4" d="m229.5,794.66c-.15-.14-.3-.27-.45-.42"/>
  <path class="cls-4" d="m231.97,796.9c-.75-.66-1.5-1.34-2.23-2.03"/>
  <path class="cls-4" d="m232.77,797.63s-.06-.06-.1-.1c-.1-.08-.21-.17-.3-.27"/>
  <path class="cls-4" d="m235,799.62c-.49-.42-.98-.86-1.47-1.3"/>
  <path class="cls-4" d="m237.25,801.6c-.54-.46-1.07-.94-1.61-1.42"/>
  <path class="cls-4" d="m237.81,802.09c-.14-.13-.29-.26-.44-.38"/>
  <path class="cls-4" d="m240.3,804.23c-.4-.34-.79-.68-1.18-1.02"/>
  <path class="cls-4" d="m241.12,804.93c-.12-.1-.25-.21-.37-.31"/>
  <path class="cls-4" d="m244.74,807.97c-.64-.54-1.28-1.06-1.92-1.61"/>
  <path class="cls-4" d="m328.4,861.42c-28.62-13.62-55.38-30.53-79.76-50.25-1.06-.86-2.11-1.72-3.16-2.58"/>
  <path class="cls-4" d="m332.66,863.42c-1.35-.63-2.71-1.26-4.06-1.9"/>
  <path class="cls-4" d="m341.02,867.15c-1.29-.56-2.58-1.13-3.86-1.7-1.42-.63-2.82-1.26-4.22-1.91"/>
  <path class="cls-4" d="m344.95,868.82c-.94-.38-1.87-.78-2.8-1.19-.1-.04-.2-.08-.3-.13"/>
  <path class="cls-4" d="m349.01,870.5c-.73-.29-1.46-.59-2.19-.9"/>
  <path class="cls-4" d="m365.66,876.86c-1.5-.52-2.98-1.06-4.47-1.62-1.5-.54-2.98-1.1-4.46-1.68-1.19-.45-2.38-.91-3.56-1.38-.3-.1-.58-.22-.88-.34-.23-.09-.47-.18-.7-.29-.12-.04-.24-.09-.36-.14-.68-.26-1.37-.54-2.05-.82"/>
  <path class="cls-4" d="m466.43,898.59c-1.35-.1-2.7-.22-4.03-.36-33.63-3.12-66.05-10.42-96.74-21.38"/>
  <path class="cls-4" d="m471.44,898.98c-1.38-.09-2.76-.19-4.14-.31"/>
  <path class="cls-4" d="m488,899.81c-1.12-.03-2.24-.07-3.36-.11-.77-.03-1.54-.06-2.3-.1-.94-.04-1.89-.08-2.83-.14-.59-.02-1.18-.06-1.76-.1-.9-.04-1.81-.1-2.71-.16-1.01-.05-2.01-.11-3.01-.19"/>
  <path class="cls-4" d="m495.77,899.97c-.72,0-1.44-.02-2.15-.03-1.56-.02-3.12-.06-4.67-.1"/>
  <path class="cls-4" d="m503.88,899.98c-1.3.02-2.58.02-3.88.02s-2.58,0-3.88-.02"/>
  <path class="cls-4" d="m511.06,899.83c-1.55.05-3.11.08-4.67.1,105.8-2.21,198.14-59.19,249.8-143.75,27.8-45.5,43.82-98.97,43.82-156.18,0-35.06-6.02-68.72-17.07-100-23.14-65.48-68.38-120.53-126.74-156.18-44.81-27.38-97.36-43.33-153.6-43.8"/>
  <path class="cls-4" d="m527.97,899.02c-1,.08-2,.14-3.01.19-.9.06-1.81.12-2.71.16-.58.04-1.17.07-1.76.1-.94.06-1.89.1-2.83.14-.76.04-1.53.06-2.3.1-1.12.04-2.24.08-3.36.11-.18,0-.38.02-.57.02"/>
  <path class="cls-4" d="m532.7,898.66c-1.38.12-2.75.22-4.14.31"/>
  <path class="cls-4" d="m634.34,876.86c-30.69,10.95-63.1,18.25-96.74,21.38-1.34.14-2.68.26-4.03.36"/>
  <path class="cls-4" d="m650.83,870.57c-.68.28-1.36.56-2.05.82-.12.06-.24.1-.36.14-.23.1-.46.2-.7.29-.29.12-.58.23-.88.34-1.18.47-2.37.94-3.56,1.38-1.48.58-2.97,1.14-4.46,1.68-1.49.56-2.98,1.1-4.47,1.62"/>
  <path class="cls-4" d="m653.18,869.6c-.73.31-1.46.61-2.19.9"/>
  <path class="cls-4" d="m657.86,867.63c-.94.41-1.87.8-2.81,1.19"/>
  <path class="cls-4" d="m671.4,861.51c-1.41.66-2.82,1.33-4.23,1.98-1.44.66-2.89,1.32-4.34,1.97-1.29.57-2.57,1.14-3.86,1.7"/>
  <path class="cls-4" d="m754.52,808.58c-1.05.86-2.1,1.73-3.16,2.58-24.39,19.72-51.14,36.64-79.77,50.26"/>
  <path class="cls-4" d="m757.18,806.36c-.64.54-1.28,1.07-1.92,1.61"/>
  <path class="cls-4" d="m762.06,802.19c-.96.84-1.93,1.66-2.9,2.49-.1.1-.21.18-.31.27"/>
  <path class="cls-4" d="m767.9,797.02c-.48.43-.95.86-1.43,1.29-.49.44-.98.88-1.47,1.3-.92.82-1.85,1.64-2.78,2.44"/>
  <path class="cls-4" d="m771,794.2s-.04.04-.06.05c-.22.22-.46.42-.68.62-.74.69-1.48,1.36-2.23,2.03"/>
  <path class="cls-4" d="m774.35,791.06c-.93.9-1.86,1.77-2.81,2.63"/>
  <path class="cls-4" d="m778.28,787.31c-1.15,1.13-2.3,2.24-3.47,3.33"/>
  <path class="cls-4" d="m785.57,780.08c-.9.93-1.82,1.85-2.73,2.76s-1.83,1.82-2.76,2.73"/>
  <path class="cls-4" d="m790.64,774.81c-1.09,1.17-2.2,2.32-3.33,3.47"/>
  <path class="cls-4" d="m794.2,771c-.52.56-1.04,1.13-1.55,1.69-.54.58-1.09,1.14-1.62,1.72"/>
  <path class="cls-4" d="m797.02,767.9c-.9,1-1.8,1.99-2.72,2.98"/>
  <path class="cls-4" d="m797.91,766.92c-.21.24-.42.47-.65.71"/>
  <path class="cls-4" d="m799.62,765c-.43.49-.86.98-1.3,1.47"/>
  <path class="cls-4" d="m802.06,762.22c-.62.72-1.24,1.43-1.87,2.14"/>
  <path class="cls-4" d="m804.62,759.25c-.46.55-.94,1.1-1.41,1.64"/>
  <path class="cls-4" d="m807.97,755.26l-1.61,1.92c-.55.66-1.11,1.33-1.68,1.98"/>
  <path class="cls-4" d="m861.42,671.6c-13.62,28.62-30.53,55.38-50.25,79.76-.86,1.06-1.72,2.11-2.58,3.16"/>
  <path class="cls-4" d="m863.49,667.18c-.65,1.41-1.3,2.82-1.97,4.22"/>
  <path class="cls-4" d="m867.15,658.98c-.56,1.29-1.12,2.58-1.7,3.86-.63,1.41-1.26,2.82-1.91,4.22"/>
  <path class="cls-4" d="m868.4,656.06c-.2.49-.41.97-.62,1.46"/>
  <path class="cls-4" d="m871.81,647.75c-.24.63-.5,1.26-.74,1.89-.34.84-.69,1.68-1.03,2.51-.48,1.18-.97,2.34-1.46,3.51"/>
  <path class="cls-4" d="m898.98,528.56c-.1,1.46-.21,2.9-.33,4.35-3.06,37.66-11.34,73.82-24.11,107.81-.32.86-.65,1.7-.98,2.56-.23.64-.48,1.27-.73,1.91h0c-.32.83-.65,1.66-.98,2.48"/>
  <path class="cls-4" d="m899.81,512c-.03,1.12-.07,2.24-.11,3.36-.02.77-.06,1.54-.1,2.3-.04.94-.08,1.89-.14,2.83-.02.59-.06,1.18-.1,1.76-.04.9-.09,1.81-.16,2.71-.05,1.01-.11,2.01-.19,3.01"/>
  <path class="cls-4" d="m899.97,504.23c0,.72-.02,1.44-.03,2.15-.02,1.56-.06,3.12-.1,4.67"/>
  <path class="cls-4" d="m899.98,496.12c.02,1.3.02,2.58.02,3.88s0,2.58-.02,3.88"/>
  <path class="cls-4" d="m899.83,488.94c.05,1.55.08,3.11.1,4.67.02.71.02,1.43.03,2.15"/>
  <path class="cls-4" d="m899.02,472.03c.08,1,.14,2,.19,3.01.07.9.12,1.81.16,2.71.04.58.07,1.17.1,1.76.06.94.1,1.89.14,2.83.04.76.07,1.53.1,2.3.04,1.12.08,2.24.11,3.36"/>
  <path class="cls-4" d="m871.84,352.33c.59,1.46,1.16,2.92,1.71,4.39,13.34,34.72,21.96,71.77,25.1,110.37.12,1.45.23,2.9.33,4.35"/>
  <path class="cls-4" d="m867.46,341.76c.38.86.74,1.71,1.1,2.58.5,1.17.98,2.34,1.46,3.51.61,1.46,1.2,2.93,1.78,4.4"/>
  <path class="cls-4" d="m861.51,328.6c.67,1.41,1.33,2.82,1.98,4.23.66,1.44,1.32,2.89,1.97,4.34.63,1.42,1.26,2.83,1.86,4.25"/>
  <path class="cls-4" d="m808.58,245.48c.86,1.05,1.73,2.1,2.58,3.16,19.72,24.39,36.64,51.14,50.26,79.77"/>
  <path class="cls-4" d="m802.19,237.94c.84.96,1.66,1.93,2.49,2.9.57.66,1.13,1.32,1.68,1.98.54.64,1.08,1.28,1.61,1.92"/>
  <path class="cls-4" d="m794.3,229.12c.92.98,1.82,1.98,2.72,2.98.43.48.86.95,1.29,1.43.44.49.88.98,1.3,1.47.82.92,1.64,1.85,2.44,2.78"/>
  <path class="cls-4" d="m791.02,225.59c1.07,1.13,2.13,2.26,3.18,3.41"/>
  <path class="cls-4" d="m787.31,221.72c1.13,1.15,2.24,2.3,3.33,3.47"/>
  <path class="cls-4" d="m780.08,214.43c.93.9,1.85,1.82,2.76,2.73s1.82,1.83,2.73,2.76"/>
  <path class="cls-4" d="m774.81,209.36c1.17,1.09,2.32,2.2,3.47,3.33"/>
  <path class="cls-4" d="m771.54,206.3c.94.86,1.88,1.74,2.81,2.63"/>
  <path class="cls-4" d="m770.94,205.75s.04.02.06.05"/>
  <path class="cls-4" d="m768.03,203.1c.75.67,1.5,1.34,2.23,2.03"/>
  <path class="cls-4" d="m762.22,197.94c.94.8,1.86,1.62,2.78,2.44.49.42.98.86,1.47,1.3.48.42.95.86,1.43,1.29"/>
  <path class="cls-4" d="m759.17,195.32c.97.82,1.94,1.65,2.9,2.49"/>
  <path class="cls-4" d="m757.68,194.06c.39.33.78.66,1.18.99"/>
  <path class="cls-4" d="m755.26,192.03c.64.54,1.28,1.06,1.92,1.61"/>
  <path class="cls-4" d="m671.59,138.58c28.62,13.62,55.38,30.54,79.77,50.26,1.06.86,2.11,1.72,3.16,2.58"/>
  <path class="cls-4" d="m658.46,132.62c.17.07.34.15.51.22,1.29.56,2.57,1.13,3.86,1.7,1.45.65,2.9,1.3,4.34,1.97,1.42.65,2.82,1.31,4.23,1.98"/>
  <path class="cls-4" d="m653.31,130.45c.58.24,1.16.48,1.74.73.94.39,1.87.78,2.81,1.19"/>
  <path class="cls-4" d="m650.99,129.5c.74.3,1.46.59,2.19.9"/>
  <path class="cls-4" d="m648.78,128.61c.69.26,1.37.54,2.05.82"/>
  <path class="cls-4" d="m647.72,128.18c.24.09.47.18.7.29"/>
  <path class="cls-4" d="m634.34,123.14c1.5.52,2.98,1.06,4.47,1.62,1.5.54,2.98,1.1,4.46,1.68,1.19.45,2.38.91,3.56,1.38"/>
  <path class="cls-4" d="m533.57,101.41c1.35.1,2.7.22,4.03.36,33.63,3.13,66.05,10.42,96.74,21.38"/>
  <path class="cls-4" d="m528.56,101.02c1.38.09,2.76.19,4.14.31"/>
  <path class="cls-4" d="m512,100.19c1.12.03,2.24.07,3.36.11.77.03,1.54.06,2.3.1.94.04,1.89.08,2.83.14.59.02,1.18.06,1.76.1.9.04,1.81.1,2.71.16,1.01.05,2.01.11,3.01.19"/>
  <path class="cls-4" d="m504.23,100.03c.72,0,1.44.02,2.15.03,1.56.02,3.12.06,4.67.1"/>
  <path class="cls-4" d="m496.12,100.02c1.3-.02,2.58-.02,3.88-.02s2.58,0,3.88.02"/>
  <path class="cls-4" d="m497.42,699.98c-56.24-.47-108.79-16.42-153.6-43.8-58.37-35.66-103.6-90.7-126.74-156.18-11.06-31.28-17.07-64.94-17.07-100,0-57.22,16.02-110.69,43.82-156.18,51.65-84.56,143.99-141.54,249.8-143.75.71-.02,1.43-.02,2.15-.03"/>
  <path class="cls-4" d="m488.31,699.66c.74.04,1.49.08,2.24.11.78.04,1.57.07,2.36.1.78.03,1.55.06,2.33.07"/>
  <path class="cls-4" d="m478.83,698.89c2.32.25,4.66.46,7.01.62.78.06,1.55.1,2.33.15"/>
  <path class="cls-4" d="m430.34,687.53c.74.28,1.5.55,2.25.82.74.27,1.5.54,2.26.79,13.28,4.58,27.2,7.8,41.58,9.48.76.1,1.51.18,2.28.26"/>
  <path class="cls-4" d="m425.87,685.81c.74.3,1.49.59,2.23.87"/>
  <path class="cls-4" d="m421.03,683.81c.74.31,1.47.62,2.21.93.54.22,1.07.45,1.62.66"/>
  <path class="cls-4" d="m370.82,652.7c.58.48,1.15.96,1.74,1.45.61.5,1.22,1,1.82,1.5,12.87,10.4,27.06,19.23,42.28,26.22l2.18.98"/>
  <path class="cls-4" d="m367.26,649.62l1.68,1.46c.57.5,1.14.98,1.7,1.47"/>
  <path class="cls-4" d="m363.67,646.34l1.56,1.44"/>
  <path class="cls-4" d="m352.22,634.77l1.44,1.56"/>
  <path class="cls-4" d="m347.45,629.35c.49.57.98,1.14,1.47,1.7.49.56.98,1.12,1.46,1.68"/>
  <path class="cls-4" d="m317.42,581.76l.72,1.58c6.99,15.22,15.82,29.41,26.22,42.28.5.61,1,1.22,1.5,1.82.49.58.97,1.16,1.45,1.74"/>
  <path class="cls-4" d="m313.32,571.9c.28.74.57,1.49.87,2.23.17.43.34.86.52,1.29.18.45.36.9.55,1.34.3.74.62,1.48.93,2.21"/>
  <path class="cls-4" d="m300.34,511.81c.05.78.1,1.57.15,2.35.16,2.37.37,4.72.62,7.06.07.78.16,1.57.26,2.35,1.87,16.02,5.65,31.46,11.09,46.09"/>
  <path class="cls-4" d="m300.06,504.76c.02.78.04,1.55.07,2.33.02.79.06,1.58.1,2.36.03.78.07,1.55.12,2.33"/>
  <path class="cls-4" d="m300.34,488.22c-.05.78-.09,1.55-.12,2.33-.04.78-.07,1.57-.1,2.36-.03.78-.06,1.55-.07,2.33"/>
  <path class="cls-4" d="m312.47,430.34c-5.44,14.63-9.22,30.07-11.09,46.09-.1.78-.19,1.57-.26,2.35-.26,2.34-.46,4.7-.62,7.06-.06.78-.1,1.57-.15,2.35"/>
  <path class="cls-4" d="m316.19,421.03c-.31.73-.62,1.46-.93,2.21-.19.45-.38.9-.55,1.34-.18.43-.35.86-.52,1.29-.3.74-.59,1.49-.87,2.23"/>
  <path class="cls-4" d="m347.3,370.82c-.48.58-.96,1.15-1.45,1.74-.5.6-1,1.22-1.5,1.82-10.4,12.87-19.23,27.06-26.22,42.28l-.72,1.58"/>
  <path class="cls-4" d="m350.38,367.26c-.49.56-.98,1.12-1.46,1.68-.5.57-.98,1.14-1.47,1.7"/>
  <path class="cls-4" d="m353.66,363.67l-1.44,1.56"/>
  <path class="cls-4" d="m365.23,352.22l-1.56,1.44"/>
  <path class="cls-4" d="m370.65,347.45c-.57.49-1.14.98-1.7,1.47l-1.68,1.46"/>
  <path class="cls-4" d="m418.84,317.15c-.73.33-1.46.66-2.18.98-15.22,6.99-29.4,15.82-42.28,26.22-.61.5-1.22,1-1.82,1.5-.58.49-1.16.97-1.74,1.45"/>
  <path class="cls-4" d="m424.86,314.6c-.54.22-1.08.44-1.62.66-.74.3-1.47.62-2.21.93"/>
  <path class="cls-4" d="m428.1,313.32c-.74.28-1.49.58-2.23.87"/>
  <path class="cls-4" d="m478.7,301.13c-.77.07-1.52.16-2.28.26-14.38,1.68-28.3,4.9-41.58,9.48-.76.26-1.51.52-2.26.79-.75.26-1.5.54-2.25.82"/>
  <path class="cls-4" d="m488.17,300.34c-.78.05-1.55.1-2.33.15-2.35.16-4.69.37-7.01.62"/>
  <path class="cls-4" d="m495.24,300.06c-.78.02-1.55.04-2.33.07-.79.02-1.58.06-2.36.1-.75.03-1.5.07-2.24.11"/>
  <path class="cls-4" d="m221.72,787.31c-.6-.58-1.21-1.16-1.8-1.74-.93-.9-1.85-1.81-2.76-2.73-.92-.91-1.82-1.83-2.73-2.76-.58-.59-1.17-1.2-1.74-1.8-1.12-1.15-2.22-2.31-3.33-3.47-.13-.14-.25-.26-.38-.4-1.06-1.13-2.12-2.26-3.18-3.41-.03-.04-.06-.08-.1-.12-.91-.98-1.82-1.98-2.72-2.98-.08-.09-.16-.18-.24-.27-.22-.23-.43-.47-.65-.71-.13-.14-.26-.3-.4-.45-.43-.49-.87-.98-1.3-1.47-.19-.21-.38-.42-.57-.64l-1.42-1.61c-.15-.18-.31-.35-.46-.54-.02,0-.02-.02-.03-.02-.38-.43-.75-.86-1.12-1.3-.48-.54-.95-1.1-1.41-1.64-.03-.02-.06-.06-.06-.08-.58-.66-1.14-1.32-1.68-1.98-.54-.64-1.08-1.28-1.61-1.92-.22-.25-.42-.5-.62-.74-.88-1.05-1.74-2.1-2.58-3.16-20.21-24.94-36.95-51.74-50.25-79.76-.05-.07-.08-.14-.1-.21-.65-1.35-1.28-2.7-1.9-4.06-.03-.05-.06-.1-.07-.16-.03-.04-.05-.08-.06-.12-.66-1.41-1.29-2.82-1.91-4.22-.58-1.28-1.14-2.57-1.7-3.86-.08-.17-.15-.34-.22-.52-.14-.31-.28-.62-.41-.94-.21-.48-.42-.97-.62-1.46-.06-.13-.12-.26-.17-.39-.5-1.17-.98-2.34-1.46-3.51-.6-1.46-1.19-2.93-1.78-4.4,0,0,0-.02-.02-.03s0-.03-.02-.05c-.58-1.46-1.15-2.93-1.71-4.39-13.65-35.63-22.01-72.82-25.1-110.37-.11-1.45-.22-2.9-.33-4.35-.02-.2-.03-.39-.04-.59-.07-1-.14-2.01-.19-3.01-.06-.9-.12-1.81-.16-2.71-.04-.58-.07-1.18-.1-1.76-.06-.94-.1-1.89-.14-2.83-.04-.76-.07-1.53-.1-2.3-.05-1.12-.08-2.24-.11-3.36-.02-.31-.02-.62-.02-.94-.05-1.55-.09-3.11-.1-4.67-.02-.71-.02-1.43-.03-2.15,0-.11,0-.23,0-.35-.02-2.58-.02-5.18,0-7.76,0-.12,0-.24,0-.35,0-.72.02-1.44.03-2.15.02-1.56.06-3.12.1-4.67,0-.32,0-.63.02-.94.03-1.12.06-2.24.11-3.36.02-.77.06-1.54.1-2.3.04-.94.08-1.89.14-2.83.02-.58.06-1.18.1-1.76.04-.9.1-1.81.16-2.71.06-1,.12-2.01.19-3.01,0-.2.02-.39.04-.59.1-1.45.22-2.9.33-4.35,3.09-37.54,11.45-74.74,25.1-110.37.56-1.46,1.13-2.93,1.71-4.39,0-.03.02-.06.03-.08.58-1.47,1.18-2.94,1.78-4.4.48-1.18.97-2.34,1.46-3.51.36-.86.73-1.72,1.1-2.58.04-.12.09-.23.14-.34.61-1.42,1.22-2.83,1.86-4.25.64-1.45,1.29-2.9,1.97-4.34.64-1.42,1.3-2.82,1.98-4.23.02-.06.05-.13.09-.19,13.3-28.03,30.05-54.83,50.26-79.77.85-1.06,1.7-2.11,2.58-3.16.13-.16.26-.33.4-.49.06-.09.14-.18.22-.26.53-.64,1.06-1.28,1.61-1.92.54-.66,1.1-1.33,1.68-1.98.82-.97,1.65-1.94,2.49-2.9.04-.06.09-.1.14-.15.8-.94,1.62-1.86,2.44-2.78.43-.5.87-.98,1.3-1.47.43-.48.86-.96,1.29-1.43.9-1,1.81-1.99,2.72-2.98.04-.05.07-.09.1-.12,1.06-1.14,2.12-2.28,3.18-3.41.14-.14.26-.26.38-.4,1.1-1.16,2.21-2.32,3.33-3.47.58-.6,1.16-1.21,1.74-1.8.9-.93,1.81-1.85,2.73-2.76.91-.92,1.83-1.82,2.76-2.73.59-.58,1.2-1.17,1.8-1.74,1.15-1.12,2.31-2.22,3.47-3.33.14-.13.26-.25.4-.38.02,0,.04-.02.06-.04.94-.89,1.87-1.76,2.81-2.63.18-.17.36-.33.54-.5.02,0,.03-.02.06-.05.14-.14.3-.27.45-.42.08-.06.15-.14.23-.21.74-.68,1.48-1.36,2.23-2.03.13-.12.26-.24.4-.36.23-.22.47-.43.71-.65.14-.13.3-.26.45-.4.49-.43.98-.87,1.47-1.3.21-.19.42-.38.64-.57l1.61-1.42s.08-.06.12-.1c.14-.12.27-.24.42-.35,0-.02.02-.02.02-.03.04-.03.08-.07.13-.1.39-.34.78-.69,1.18-1.02.39-.34.78-.69,1.18-1.02.15-.13.3-.26.46-.38.12-.11.25-.22.37-.31,0-.02.02-.02.02-.02.39-.34.78-.67,1.18-.99.17-.15.33-.29.5-.42.64-.54,1.28-1.08,1.92-1.61.25-.22.5-.42.74-.62,1.05-.88,2.1-1.74,3.16-2.58,24.94-20.21,51.74-36.96,79.76-50.25.07-.05.14-.08.21-.1,1.35-.65,2.7-1.28,4.06-1.9.05-.03.1-.06.16-.07.04-.03.08-.05.12-.06,1.41-.66,2.82-1.29,4.22-1.91,1.28-.58,2.57-1.14,3.86-1.7.17-.08.34-.15.51-.22.1-.05.21-.09.31-.13.1-.05.2-.1.3-.13.42-.19.85-.38,1.28-.56.5-.22,1.01-.42,1.52-.63.58-.25,1.15-.49,1.74-.73.04-.02.08-.04.13-.05.73-.31,1.46-.61,2.19-.9.05-.02.1-.05.16-.06.68-.28,1.36-.56,2.05-.82.12-.06.24-.1.36-.14l.7-.29h0c.29-.12.58-.23.88-.34,1.18-.47,2.38-.93,3.56-1.38,1.49-.57,2.98-1.13,4.46-1.68s2.98-1.09,4.47-1.62h0c31.4-11.17,63.91-18.3,96.74-21.38,1.34-.13,2.69-.25,4.03-.36.3-.02.58-.05.87-.07,1.38-.11,2.76-.22,4.14-.31.2-.02.39-.03.59-.04,1-.07,2.01-.14,3.01-.19.9-.07,1.81-.12,2.71-.16.58-.04,1.18-.07,1.76-.1.94-.06,1.89-.1,2.83-.14.76-.04,1.53-.07,2.3-.1,1.12-.05,2.24-.08,3.36-.11.31-.02.62-.02.94-.02,1.55-.05,3.11-.09,4.67-.1.71-.02,1.43-.02,2.15-.03.11,0,.23,0,.35,0,2.58-.02,5.18-.02,7.76,0,.12,0,.24,0,.35,0,.72,0,1.44.02,2.15.03,1.56.02,3.12.06,4.67.1.32,0,.63,0,.94.02,1.12.03,2.24.06,3.36.11.77.02,1.54.06,2.3.1.94.04,1.89.08,2.83.14.58.02,1.18.06,1.76.1.9.04,1.81.1,2.71.16,1,.06,2.01.12,3.01.19.2,0,.39.02.59.04,1.38.1,2.76.2,4.14.31.29.02.58.05.87.07,1.34.11,2.69.23,4.03.36,32.82,3.08,65.34,10.2,96.74,21.38h0c1.5.54,2.98,1.07,4.47,1.62s2.98,1.11,4.46,1.68c1.18.46,2.38.91,3.56,1.38.3.11.59.22.88.34h0l.7.29c.12.04.24.09.36.14.69.26,1.37.54,2.05.82.06.02.11.04.16.06.74.3,1.46.59,2.19.9.05,0,.09.03.13.05.58.24,1.16.48,1.74.73.94.38,1.87.78,2.81,1.19.21.08.41.17.61.26.18.07.34.14.51.22,1.29.55,2.58,1.12,3.86,1.7,1.45.64,2.9,1.29,4.34,1.97,1.42.63,2.82,1.3,4.23,1.98.06.02.13.05.19.09,28.03,13.3,54.83,30.05,79.77,50.26,1.06.85,2.11,1.7,3.16,2.58.25.2.5.4.74.62.64.53,1.28,1.06,1.92,1.61.17.13.33.26.5.42.39.32.78.66,1.18.99.1.08.21.18.31.27.18.14.36.3.54.45.79.67,1.58,1.35,2.36,2.04.06.04.1.09.15.14.94.8,1.86,1.62,2.78,2.44.5.43.98.87,1.47,1.3.48.43.96.86,1.43,1.29.05.04.09.08.13.12.75.67,1.49,1.35,2.23,2.03.23.21.46.42.68.62.02.02.04.04.06.05.18.18.37.34.54.5.94.87,1.87,1.74,2.81,2.63.15.14.3.28.46.42,1.16,1.1,2.32,2.21,3.47,3.33"/>
  <path class="cls-4" d="m363.67,646.34c.52.48,1.03.96,1.56,1.44.67.62,1.35,1.22,2.03,1.83.56.5,1.12.98,1.68,1.46.57.5,1.13.99,1.7,1.47l.17.14c.58.49,1.15.98,1.74,1.45.6.51,1.22,1.01,1.82,1.5,13.18,10.67,27.4,19.41,42.28,26.22.73.34,1.46.66,2.18.98.73.33,1.46.65,2.19.96.74.32,1.47.62,2.21.93.54.22,1.07.45,1.62.66.34.14.67.27,1.02.41.74.3,1.48.59,2.23.87.74.29,1.49.57,2.23.85.75.28,1.5.55,2.25.82.75.27,1.5.54,2.26.79,13.54,4.66,27.5,7.82,41.58,9.48.76.09,1.52.18,2.28.26.04,0,.09,0,.13.02,2.34.24,4.67.45,7.01.62.78.05,1.55.1,2.33.15.05,0,.1,0,.14,0,.74.04,1.5.08,2.24.11.79.04,1.58.07,2.36.1.78.03,1.55.06,2.33.07.72.02,1.45.03,2.18.04,2.45.03,4.9.02,7.34-.04.78-.02,1.55-.04,2.33-.07.78-.02,1.57-.06,2.36-.1.74-.03,1.5-.07,2.24-.11.05,0,.1,0,.14,0,.78-.05,1.55-.1,2.33-.15,2.34-.17,4.67-.38,7.01-.62.04,0,.09-.02.13-.02.76-.08,1.52-.17,2.28-.26,14.09-1.66,28.04-4.82,41.58-9.48.75-.26,1.5-.52,2.26-.79.75-.26,1.5-.54,2.25-.82.74-.28,1.49-.56,2.23-.85.75-.28,1.49-.58,2.23-.87.34-.14.68-.27,1.02-.41.54-.22,1.08-.44,1.62-.66.74-.3,1.47-.61,2.21-.93.73-.31,1.46-.63,2.19-.96.73-.32,1.46-.65,2.18-.98,14.88-6.82,29.1-15.55,42.28-26.22.61-.49,1.22-.98,1.82-1.5.58-.47,1.16-.96,1.74-1.45l.17-.14c.58-.48,1.14-.97,1.7-1.47.56-.48,1.12-.97,1.68-1.46.68-.61,1.36-1.22,2.03-1.83.53-.48,1.04-.96,1.56-1.44.98-.9,1.94-1.82,2.9-2.75.12-.12.24-.23.36-.35.62-.6,1.22-1.21,1.84-1.82.61-.62,1.22-1.22,1.82-1.84,1.05-1.08,2.09-2.16,3.1-3.26.48-.52.96-1.03,1.44-1.56.62-.67,1.22-1.35,1.83-2.03.5-.56.98-1.12,1.46-1.68.5-.57.99-1.13,1.47-1.7l.14-.17c.49-.58.98-1.15,1.45-1.74.51-.6,1.01-1.22,1.5-1.82,10.67-13.18,19.41-27.4,26.22-42.28.25-.53.49-1.06.72-1.58.42-.93.82-1.86,1.22-2.79.32-.74.62-1.47.93-2.21.19-.45.38-.9.55-1.34.18-.42.35-.86.52-1.29.3-.74.59-1.48.87-2.23.29-.74.57-1.49.85-2.23,5.54-14.95,9.24-30.43,11.09-46.09l.26-2.35c.25-2.35.46-4.7.62-7.06.06-.78.1-1.57.15-2.35v-.03c.05-.78.09-1.55.12-2.33.04-.79.07-1.58.1-2.36.03-.78.06-1.55.07-2.33.02-.72.03-1.45.04-2.18.03-2.45.02-4.9-.04-7.34-.02-.78-.04-1.55-.07-2.33-.02-.78-.06-1.57-.1-2.36-.03-.78-.07-1.55-.12-2.33v-.03c-.05-.78-.1-1.57-.15-2.35-.17-2.36-.38-4.71-.62-7.06-.09-.78-.18-1.57-.26-2.35-1.85-15.66-5.54-31.14-11.09-46.09-.28-.74-.56-1.49-.85-2.23-.28-.75-.58-1.49-.87-2.23-.17-.43-.34-.86-.52-1.29-.18-.45-.36-.9-.55-1.34-.3-.74-.61-1.47-.93-2.21-.4-.94-.81-1.86-1.22-2.79-.23-.53-.47-1.06-.72-1.58-6.82-14.88-15.55-29.1-26.22-42.28-.49-.61-.98-1.22-1.5-1.82-.47-.58-.96-1.16-1.45-1.74l-.14-.17c-.48-.58-.97-1.14-1.47-1.7-.48-.56-.97-1.12-1.46-1.68-.61-.68-1.22-1.36-1.83-2.03-.48-.53-.96-1.04-1.44-1.56-.9-.98-1.82-1.94-2.75-2.9"/>
  <path class="cls-4" d="m363.67,646.34c-1.1-1.02-2.18-2.06-3.26-3.1-.62-.6-1.22-1.21-1.84-1.82-.61-.62-1.22-1.22-1.82-1.84-.12-.12-.23-.24-.35-.36-39.23-40.03-65.01-88.33-77.29-139.22-16.06-66.49-9.12-137.39,20.82-200.06,14.3-29.94,33.85-57.98,58.64-82.78,40.46-40.46,89.59-66.94,141.42-79.46,96.31-23.27,201.9,1.73,278.28,74.98.6.58,1.21,1.16,1.8,1.74.93.9,1.85,1.81,2.76,2.73.92.91,1.82,1.83,2.73,2.76.58.59,1.17,1.2,1.74,1.8,1.12,1.15,2.22,2.31,3.33,3.47.13.14.25.26.38.4,1.06,1.13,2.12,2.26,3.18,3.41.03.03.06.07.1.12.91.98,1.82,1.98,2.72,2.98.42.47.86.95,1.29,1.43.43.49.87.98,1.3,1.47.82.92,1.64,1.85,2.44,2.78.05.05.1.1.14.15.84.96,1.67,1.93,2.49,2.9.58.66,1.14,1.32,1.68,1.98.54.64,1.08,1.28,1.61,1.92.22.25.42.5.62.74.88,1.05,1.74,2.1,2.58,3.16,20.21,24.94,36.96,51.74,50.26,79.77.04.06.07.13.09.19.68,1.41,1.34,2.82,1.98,4.23.68,1.44,1.33,2.89,1.97,4.34.64,1.42,1.26,2.82,1.86,4.25.06.11.1.22.14.34.38.86.74,1.71,1.1,2.58.5,1.17.98,2.34,1.46,3.51.6,1.46,1.19,2.93,1.78,4.4,0,.02.02.05.03.08.58,1.46,1.15,2.93,1.71,4.39,13.65,35.63,22.01,72.82,25.1,110.37.11,1.45.22,2.9.33,4.35.02.2.03.39.04.59.07,1,.14,2.01.19,3.01.06.9.12,1.81.16,2.71.04.58.07,1.18.1,1.76.06.94.1,1.89.14,2.83.04.76.07,1.53.1,2.3.05,1.12.08,2.24.11,3.36.02.31.02.62.02.94.05,1.55.09,3.11.1,4.67.02.71.02,1.43.03,2.15,0,.11,0,.23,0,.35.02,2.58.02,5.18,0,7.76,0,.12,0,.24,0,.35,0,.72-.02,1.44-.03,2.15-.02,1.56-.06,3.12-.1,4.67,0,.32,0,.63-.02.94-.03,1.12-.06,2.24-.11,3.36-.02.77-.06,1.54-.1,2.3-.04.94-.08,1.89-.14,2.83-.02.58-.06,1.18-.1,1.76-.04.9-.1,1.81-.16,2.71-.06,1-.12,2.01-.19,3.01,0,.2-.02.39-.04.59-.1,1.45-.22,2.9-.33,4.35-3.09,37.54-11.45,74.74-25.1,110.37-.56,1.46-1.13,2.93-1.71,4.39,0,.02,0,.03-.02.05s0,.02-.02.03c-.58,1.47-1.18,2.94-1.78,4.4-.48,1.18-.97,2.34-1.46,3.51-.05.13-.1.26-.17.39-.2.49-.41.98-.62,1.46-.14.32-.27.63-.41.94-.07.18-.14.35-.22.52-.55,1.29-1.12,2.58-1.7,3.86-.62,1.41-1.26,2.82-1.91,4.22,0,.04-.03.08-.06.12-.02.06-.04.11-.07.16-.62,1.35-1.25,2.7-1.9,4.06-.02.07-.06.14-.1.21-13.3,28.02-30.04,54.82-50.25,79.76-.85,1.06-1.7,2.11-2.58,3.16-.2.25-.4.5-.62.74-.53.64-1.06,1.28-1.61,1.92-.54.66-1.1,1.33-1.68,1.98,0,.02-.03.06-.06.08-.46.55-.93,1.1-1.41,1.64-.37.44-.74.87-1.12,1.3,0,0-.02.02-.03.02-.14.18-.3.36-.46.54l-1.42,1.61c-.18.22-.38.43-.57.64-.43.5-.87.98-1.3,1.47-.14.15-.27.3-.4.45-.22.24-.43.48-.65.71-.08.1-.16.18-.24.27-.9,1-1.81,1.99-2.72,2.98-.04.05-.07.09-.1.12-1.06,1.14-2.12,2.28-3.18,3.41-.14.14-.26.26-.38.4-1.1,1.16-2.21,2.32-3.33,3.47-.58.6-1.16,1.21-1.74,1.8-.9.93-1.81,1.85-2.73,2.76-.91.92-1.83,1.82-2.76,2.73-.59.58-1.2,1.17-1.8,1.74-1.15,1.12-2.31,2.22-3.47,3.33-.15.14-.3.29-.46.42-.94.89-1.87,1.76-2.81,2.63-.18.17-.37.34-.54.5-.02.02-.04.03-.06.05-.23.21-.46.42-.68.62-.74.68-1.49,1.36-2.23,2.03-.04.04-.08.08-.13.12-.47.42-.95.86-1.43,1.29-.49.43-.98.87-1.47,1.3-.92.82-1.85,1.64-2.78,2.44-.05.06-.1.1-.15.14-.78.69-1.58,1.37-2.36,2.04-.29.25-.57.49-.85.72-.39.34-.78.67-1.18.99-.17.15-.33.29-.5.42-.64.55-1.28,1.09-1.92,1.61-.25.22-.5.42-.74.62-1.05.88-2.1,1.74-3.16,2.58-24.94,20.21-51.74,36.96-79.77,50.26-.06.04-.13.07-.19.09-1.41.68-2.82,1.34-4.23,1.98-1.44.68-2.89,1.33-4.34,1.97-1.28.58-2.57,1.14-3.86,1.7-.17.08-.34.15-.51.22-.2.09-.41.18-.61.26-.94.41-1.87.81-2.81,1.19-.58.25-1.15.49-1.74.73-.04.02-.08.04-.13.05-.73.31-1.46.61-2.19.9-.05.02-.1.05-.16.06-.68.28-1.36.56-2.05.82-.35.15-.7.29-1.06.43h0c-.3.12-.58.23-.88.34-1.18.47-2.37.94-3.56,1.38-1.49.57-2.97,1.13-4.46,1.68-1.49.55-2.98,1.1-4.47,1.62h0c-31.4,11.17-63.91,18.3-96.74,21.38-1.34.13-2.69.25-4.03.36-.29.02-.58.05-.87.07-1.38.11-2.76.22-4.14.31-.2.02-.39.03-.59.04-1,.07-2.01.14-3.01.19-.9.06-1.81.12-2.71.16-.58.04-1.18.07-1.76.1-.94.06-1.89.1-2.83.14-.76.04-1.53.07-2.3.1-1.12.05-2.24.08-3.36.11-.18,0-.38.02-.57.02-.12,0-.25.02-.38,0-1.55.05-3.11.09-4.67.1-.71.02-1.43.02-2.15.03-.11,0-.23,0-.35,0-2.58.02-5.18.02-7.76,0-.12,0-.24,0-.35,0-.72,0-1.44-.02-2.15-.03-1.56-.02-3.12-.06-4.67-.1-.32,0-.63,0-.94-.02-1.12-.03-2.24-.06-3.36-.11-.77-.02-1.54-.06-2.3-.1-.94-.04-1.89-.08-2.83-.14-.58-.02-1.18-.06-1.76-.1-.9-.04-1.81-.1-2.71-.16-1-.06-2.01-.12-3.01-.19-.2,0-.39-.02-.59-.04-1.38-.1-2.76-.2-4.14-.31-.29-.02-.58-.05-.87-.07-1.34-.11-2.69-.23-4.03-.36-32.82-3.08-65.34-10.21-96.74-21.38h0c-1.49-.53-2.98-1.07-4.47-1.62-1.5-.55-2.98-1.11-4.46-1.68-1.19-.45-2.38-.91-3.56-1.38-.3-.11-.58-.22-.88-.34h0c-.35-.14-.7-.28-1.06-.43-.69-.26-1.37-.54-2.05-.82-.06-.02-.11-.04-.16-.06-.74-.3-1.46-.59-2.19-.9-.05,0-.09-.02-.13-.05-.58-.24-1.16-.48-1.74-.73-.5-.21-1.01-.42-1.52-.63-.53-.22-1.06-.46-1.58-.69-.1-.04-.21-.08-.31-.13-.17-.07-.34-.14-.51-.22-1.29-.55-2.58-1.12-3.86-1.7-1.42-.62-2.82-1.26-4.22-1.91-.04,0-.08-.02-.12-.06-.06-.02-.11-.04-.16-.07-1.35-.62-2.7-1.25-4.06-1.9-.06-.02-.14-.06-.21-.1-28.02-13.29-54.82-30.04-79.76-50.25-1.06-.84-2.11-1.7-3.16-2.58-.25-.19-.5-.4-.74-.62-.64-.52-1.28-1.06-1.92-1.61-.17-.13-.33-.26-.5-.42-.39-.32-.78-.66-1.18-.99,0,0-.02,0-.02-.02-.12-.1-.25-.2-.37-.31-.15-.12-.3-.25-.46-.38-.39-.34-.79-.67-1.18-1.02-.39-.33-.78-.67-1.18-1.02-.04-.03-.09-.07-.13-.1,0,0-.02-.02-.02-.03-.14-.11-.28-.23-.42-.35-.04-.03-.08-.07-.12-.1l-1.61-1.42c-.22-.18-.43-.38-.64-.57-.5-.43-.98-.87-1.47-1.3-.15-.14-.3-.27-.45-.4-.1-.1-.21-.19-.31-.28-.14-.13-.27-.25-.4-.37-.14-.12-.27-.24-.4-.36-.74-.67-1.49-1.35-2.23-2.03-.08-.07-.15-.14-.23-.21-.14-.14-.3-.27-.45-.42-.02-.02-.03-.03-.06-.05-.18-.17-.36-.34-.54-.5-.94-.87-1.87-1.74-2.81-2.63-.02-.02-.04-.03-.06-.04-.14-.14-.26-.26-.4-.38-1.16-1.1-2.32-2.21-3.47-3.33,76.37,73.25,181.96,98.26,278.28,74.98,51.83-12.51,100.96-38.99,141.42-79.46,24.79-24.79,44.34-52.84,58.64-82.78,29.94-62.67,36.87-133.58,20.82-200.06-12.28-50.9-38.06-99.19-77.29-139.22-.12-.12-.23-.24-.35-.36-.6-.62-1.21-1.22-1.82-1.84-.62-.61-1.22-1.22-1.84-1.82-1.08-1.05-2.16-2.09-3.26-3.1-.52-.48-1.03-.96-1.56-1.44-.67-.62-1.35-1.22-2.03-1.83-.56-.5-1.12-.98-1.68-1.46-.57-.5-1.13-.99-1.7-1.47l-.17-.14c-.58-.49-1.15-.98-1.74-1.45-.6-.51-1.22-1.01-1.82-1.5-13.18-10.67-27.4-19.41-42.28-26.22-.73-.34-1.46-.66-2.18-.98-.73-.33-1.46-.65-2.19-.96-.74-.32-1.47-.62-2.21-.93-.54-.22-1.07-.45-1.62-.66-.34-.14-.67-.27-1.02-.41-.74-.3-1.48-.59-2.23-.87-.74-.29-1.49-.57-2.23-.85-.75-.28-1.5-.55-2.25-.82-.75-.27-1.5-.54-2.26-.79-13.54-4.66-27.5-7.82-41.58-9.48-.76-.09-1.52-.18-2.28-.26-.04,0-.09,0-.13-.02-2.34-.24-4.67-.45-7.01-.62-.78-.05-1.55-.1-2.33-.15-.05,0-.1,0-.14,0-.74-.04-1.5-.08-2.24-.11-.79-.04-1.58-.07-2.36-.1-.78-.03-1.55-.06-2.33-.07-.72-.02-1.45-.03-2.18-.04-2.45-.03-4.9-.02-7.34.04-.78.02-1.55.04-2.33.07-.78.02-1.57.06-2.36.1-.74.03-1.5.07-2.24.11-.05,0-.1,0-.14,0-.78.05-1.55.1-2.33.15-2.34.17-4.67.38-7.01.62-.04,0-.09.02-.13.02-.76.08-1.52.17-2.28.26-14.09,1.66-28.04,4.82-41.58,9.48-.75.26-1.5.52-2.26.79-.75.26-1.5.54-2.25.82-.74.28-1.49.56-2.23.85-.75.28-1.49.58-2.23.87-.34.14-.68.27-1.02.41-.54.22-1.08.44-1.62.66-.74.3-1.47.61-2.21.93-.73.31-1.46.63-2.19.96-.73.32-1.46.65-2.18.98-14.88,6.82-29.1,15.55-42.28,26.22-.61.49-1.22.98-1.82,1.5-.58.47-1.16.96-1.74,1.45l-.17.14c-.58.48-1.14.97-1.7,1.47-.56.48-1.12.97-1.68,1.46-.68.61-1.36,1.22-2.03,1.83-.53.48-1.04.96-1.56,1.44-.98.9-1.94,1.82-2.9,2.75-.12.12-.24.23-.36.35-.62.6-1.22,1.21-1.84,1.82-.61.62-1.22,1.22-1.82,1.84-1.05,1.08-2.09,2.16-3.1,3.26-.48.52-.96,1.03-1.44,1.56-.62.67-1.22,1.35-1.83,2.03-.5.56-.98,1.12-1.46,1.68-.5.57-.99,1.13-1.47,1.7l-.14.17c-.49.58-.98,1.15-1.45,1.74-.51.6-1.01,1.22-1.5,1.82-10.67,13.18-19.41,27.4-26.22,42.28-.25.53-.49,1.06-.72,1.58-.42.93-.82,1.86-1.22,2.79-.32.74-.62,1.47-.93,2.21-.19.45-.38.9-.55,1.34-.18.42-.35.86-.52,1.29-.3.74-.59,1.48-.87,2.23-.29.74-.57,1.49-.85,2.23-5.54,14.95-9.24,30.43-11.09,46.09l-.26,2.35c-.25,2.35-.46,4.7-.62,7.06-.06.78-.1,1.57-.15,2.35v.03c-.05.78-.09,1.55-.12,2.33-.04.79-.07,1.58-.1,2.36-.03.78-.06,1.55-.07,2.33-.02.72-.03,1.45-.04,2.18-.03,2.45-.02,4.9.04,7.34.02.78.04,1.55.07,2.33.02.78.06,1.57.1,2.36.03.78.07,1.55.12,2.33v.03c.05.78.1,1.57.15,2.35.17,2.36.38,4.71.62,7.06l.26,2.35c1.85,15.66,5.54,31.14,11.09,46.09.28.74.56,1.49.85,2.23.28.75.58,1.49.87,2.23.17.43.34.86.52,1.29.18.45.36.9.55,1.34.3.74.61,1.47.93,2.21.4.94.81,1.86,1.22,2.79.23.53.47,1.06.72,1.58,6.82,14.88,15.55,29.1,26.22,42.28.49.61.98,1.22,1.5,1.82.47.58.96,1.16,1.45,1.74l.14.17c.48.58.97,1.14,1.47,1.7.48.56.97,1.12,1.46,1.68.61.68,1.22,1.36,1.83,2.03.48.53.96,1.04,1.44,1.56.9.98,1.82,1.94,2.75,2.9"/>
</svg>